libre-caslon-display_regular.sfdir
StartChar: exclam
Encoding: 33 33 550
Width: 240
Flags: W
LayerCount: 2
Back
Fore
SplineSet
115 170 m 1,0,1
 110 252 110 252 107.5 325 c 128,-1,2
 105 398 105 398 98 461 c 0,3,4
 90 536 90 536 85.5 589.5 c 128,-1,5
 81 643 81 643 81 663 c 0,6,7
 81 686 81 686 91.5 699 c 128,-1,8
 102 712 102 712 120 712 c 0,9,10
 159 712 159 712 159 666 c 0,11,12
 159 646 159 646 153.5 593 c 128,-1,13
 148 540 148 540 142 465 c 0,14,15
 137 402 137 402 133 327.5 c 128,-1,16
 129 253 129 253 125 170 c 1,17,-1
 115 170 l 1,0,1
72 38 m 256,18,19
 72 58 72 58 85 72 c 128,-1,20
 98 86 98 86 120 86 c 256,21,22
 142 86 142 86 155 72 c 128,-1,23
 168 58 168 58 168 38 c 256,24,25
 168 18 168 18 155 4 c 128,-1,26
 142 -10 142 -10 120 -10 c 256,27,28
 98 -10 98 -10 85 4 c 128,-1,29
 72 18 72 18 72 38 c 256,18,19
EndSplineSet
EndChar
StartChar: quotedbl
Encoding: 34 34 4
Width: 258
Flags: W
LayerCount: 2
Back
Fore
SplineSet
79 510 m 1,0,1
 79 550 79 550 75.5 577.5 c 128,-1,2
 72 605 72 605 68 624.5 c 128,-1,3
 64 644 64 644 60.5 658 c 128,-1,4
 57 672 57 672 57 684 c 0,5,6
 57 700 57 700 64.5 707 c 128,-1,7
 72 714 72 714 84 714 c 256,8,9
 96 714 96 714 103.5 707 c 128,-1,10
 111 700 111 700 111 684 c 0,11,12
 111 671 111 671 107.5 657 c 128,-1,13
 104 643 104 643 100 623.5 c 128,-1,14
 96 604 96 604 92.5 577 c 128,-1,15
 89 550 89 550 89 510 c 1,16,-1
 79 510 l 1,0,1
169 510 m 1,17,18
 169 550 169 550 165.5 577.5 c 128,-1,19
 162 605 162 605 158 624.5 c 128,-1,20
 154 644 154 644 150.5 658 c 128,-1,21
 147 672 147 672 147 684 c 0,22,23
 147 700 147 700 154.5 707 c 128,-1,24
 162 714 162 714 174 714 c 256,25,26
 186 714 186 714 193.5 707 c 128,-1,27
 201 700 201 700 201 684 c 0,28,29
 201 671 201 671 197.5 657 c 128,-1,30
 194 643 194 643 190 623.5 c 128,-1,31
 186 604 186 604 182.5 577 c 128,-1,32
 179 550 179 550 179 510 c 1,33,-1
 169 510 l 1,17,18
EndSplineSet
EndChar
StartChar: numbersign
Encoding: 35 35 5
Width: 601
Flags: W
LayerCount: 2
Back
Fore
SplineSet
54 252 m 1,0,-1
 181 252 l 1,1,-1
 207 422 l 1,2,-1
 85 422 l 1,3,-1
 90 444 l 1,4,-1
 211 444 l 1,5,-1
 233 583 l 1,6,-1
 256 583 l 1,7,-1
 234 444 l 1,8,-1
 403 444 l 1,9,-1
 425 583 l 1,10,-1
 448 583 l 1,11,-1
 426 444 l 1,12,-1
 552 444 l 1,13,-1
 547 422 l 1,14,-1
 422 422 l 1,15,-1
 396 252 l 1,16,-1
 517 252 l 1,17,-1
 511 230 l 1,18,-1
 392 230 l 1,19,-1
 371 92 l 1,20,-1
 348 92 l 1,21,-1
 369 230 l 1,22,-1
 200 230 l 1,23,-1
 179 92 l 1,24,-1
 156 92 l 1,25,-1
 177 230 l 1,26,-1
 49 230 l 1,27,-1
 54 252 l 1,0,-1
204 252 m 1,28,-1
 373 252 l 1,29,-1
 399 422 l 1,30,-1
 230 422 l 1,31,-1
 204 252 l 1,28,-1
EndSplineSet
EndChar
StartChar: dollar
Encoding: 36 36 6
Width: 516
Flags: W
LayerCount: 2
Back
Fore
SplineSet
269 800 m 1,0,-1
 269 706 l 1,1,2
 305 705 305 705 338.5 696.5 c 128,-1,3
 372 688 372 688 397.5 674 c 128,-1,4
 423 660 423 660 438.5 642 c 128,-1,5
 454 624 454 624 454 605 c 0,6,7
 454 589 454 589 444 578.5 c 128,-1,8
 434 568 434 568 418 568 c 0,9,10
 398 568 398 568 389.5 582 c 128,-1,11
 381 596 381 596 377 607 c 0,12,13
 371 624 371 624 363 639 c 128,-1,14
 355 654 355 654 343 666 c 128,-1,15
 331 678 331 678 313.5 685.5 c 128,-1,16
 296 693 296 693 269 694 c 1,17,-1
 269 395 l 1,18,-1
 295 383 l 2,19,20
 331 366 331 366 363 349 c 128,-1,21
 395 332 395 332 419.5 310 c 128,-1,22
 444 288 444 288 458.5 258.5 c 128,-1,23
 473 229 473 229 473 189 c 0,24,25
 473 146 473 146 456.5 110.5 c 128,-1,26
 440 75 440 75 412.5 48.5 c 128,-1,27
 385 22 385 22 348 6 c 128,-1,28
 311 -10 311 -10 269 -14 c 1,29,-1
 269 -101 l 1,30,-1
 247 -101 l 1,31,-1
 247 -16 l 1,32,33
 208 -16 208 -16 172.5 -6 c 128,-1,34
 137 4 137 4 110.5 20.5 c 128,-1,35
 84 37 84 37 68.5 58 c 128,-1,36
 53 79 53 79 53 102 c 0,37,38
 53 120 53 120 62.5 131 c 128,-1,39
 72 142 72 142 89 142 c 0,40,41
 108 142 108 142 116.5 129.5 c 128,-1,42
 125 117 125 117 130 103 c 0,43,44
 139 80 139 80 146.5 60.5 c 128,-1,45
 154 41 154 41 165.5 27 c 128,-1,46
 177 13 177 13 196 4.5 c 128,-1,47
 215 -4 215 -4 247 -4 c 1,48,-1
 247 306 l 1,49,-1
 227 315 l 2,50,51
 195 330 195 330 163.5 346.5 c 128,-1,52
 132 363 132 363 106.5 385.5 c 128,-1,53
 81 408 81 408 65 438.5 c 128,-1,54
 49 469 49 469 49 513 c 0,55,56
 49 554 49 554 63.5 588 c 128,-1,57
 78 622 78 622 104.5 647 c 128,-1,58
 131 672 131 672 167 687 c 128,-1,59
 203 702 203 702 247 705 c 1,60,-1
 247 800 l 1,61,-1
 269 800 l 1,0,-1
411 139 m 0,62,63
 411 169 411 169 401 191.5 c 128,-1,64
 391 214 391 214 372 232 c 128,-1,65
 353 250 353 250 327 265 c 128,-1,66
 301 280 301 280 269 295 c 1,67,-1
 269 -3 l 1,68,69
 332 2 332 2 371.5 39.5 c 128,-1,70
 411 77 411 77 411 139 c 0,62,63
114 560 m 0,71,72
 114 531 114 531 123 509 c 128,-1,73
 132 487 132 487 149 469.5 c 128,-1,74
 166 452 166 452 190.5 437 c 128,-1,75
 215 422 215 422 247 406 c 1,76,-1
 247 693 l 1,77,78
 185 690 185 690 149.5 655 c 128,-1,79
 114 620 114 620 114 560 c 0,71,72
EndSplineSet
EndChar
StartChar: ampersand
Encoding: 38 38 8
Width: 828
Flags: W
LayerCount: 2
Back
Fore
SplineSet
627 331 m 0,0,1
 578 219 578 219 522 144 c 1,2,-1
 544 120 l 2,3,4
 564 97 564 97 580 81.5 c 128,-1,5
 596 66 596 66 610.5 57 c 128,-1,6
 625 48 625 48 639 44 c 128,-1,7
 653 40 653 40 670 40 c 0,8,9
 699 40 699 40 722.5 52 c 128,-1,10
 746 64 746 64 773 93 c 2,11,-1
 783 104 l 1,12,-1
 787 102 l 1,13,-1
 783 91 l 2,14,15
 764 39 764 39 723.5 9.5 c 128,-1,16
 683 -20 683 -20 631 -20 c 0,17,18
 592 -20 592 -20 559.5 -1 c 128,-1,19
 527 18 527 18 488 63 c 2,20,-1
 470 84 l 1,21,22
 366 -20 366 -20 241 -20 c 0,23,24
 147 -20 147 -20 96.5 23.5 c 128,-1,25
 46 67 46 67 46 147 c 0,26,27
 46 221 46 221 91.5 276.5 c 128,-1,28
 137 332 137 332 228 364 c 1,29,30
 202 394 202 394 184.5 418 c 128,-1,31
 167 442 167 442 156.5 462 c 128,-1,32
 146 482 146 482 141.5 500.5 c 128,-1,33
 137 519 137 519 137 538 c 0,34,35
 137 575 137 575 150.5 605.5 c 128,-1,36
 164 636 164 636 188.5 658.5 c 128,-1,37
 213 681 213 681 247 693.5 c 128,-1,38
 281 706 281 706 321 706 c 0,39,40
 390 706 390 706 433 670.5 c 128,-1,41
 476 635 476 635 476 578 c 0,42,43
 476 548 476 548 464 519.5 c 128,-1,44
 452 491 452 491 430 466 c 128,-1,45
 408 441 408 441 377 420.5 c 128,-1,46
 346 400 346 400 309 386 c 1,47,-1
 513 155 l 1,48,49
 542 192 542 192 567 236 c 128,-1,50
 592 280 592 280 611 331 c 0,51,52
 613 337 613 337 614 340 c 128,-1,53
 615 343 615 343 615 348 c 0,54,55
 615 359 615 359 608.5 364 c 128,-1,56
 602 369 602 369 585 371 c 2,57,-1
 504 376 l 1,58,-1
 504 384 l 1,59,-1
 757 384 l 1,60,-1
 757 376 l 1,61,-1
 681 371 l 2,62,63
 668 370 668 370 660 368.5 c 128,-1,64
 652 367 652 367 646 362.5 c 128,-1,65
 640 358 640 358 636 350.5 c 128,-1,66
 632 343 632 343 627 331 c 0,0,1
136 172 m 0,67,68
 136 101 136 101 174.5 58.5 c 128,-1,69
 213 16 213 16 277 16 c 0,70,71
 323 16 323 16 369 37.5 c 128,-1,72
 415 59 415 59 458 97 c 1,73,-1
 235 356 l 1,74,75
 188 327 188 327 162 279 c 128,-1,76
 136 231 136 231 136 172 c 0,67,68
409 565 m 0,77,78
 409 625 409 625 382 659.5 c 128,-1,79
 355 694 355 694 308 694 c 0,80,81
 263 694 263 694 235 663 c 128,-1,82
 207 632 207 632 207 581 c 0,83,84
 207 539 207 539 230 494.5 c 128,-1,85
 253 450 253 450 304 392 c 1,86,87
 409 450 409 450 409 565 c 0,77,78
EndSplineSet
EndChar
StartChar: quotesingle
Encoding: 39 39 9
Width: 168
Flags: W
LayerCount: 2
Back
Fore
SplineSet
79 510 m 1,0,1
 79 550 79 550 75.5 577.5 c 128,-1,2
 72 605 72 605 68 624.5 c 128,-1,3
 64 644 64 644 60.5 658 c 128,-1,4
 57 672 57 672 57 684 c 0,5,6
 57 700 57 700 64.5 707 c 128,-1,7
 72 714 72 714 84 714 c 256,8,9
 96 714 96 714 103.5 707 c 128,-1,10
 111 700 111 700 111 684 c 0,11,12
 111 671 111 671 107.5 657 c 128,-1,13
 104 643 104 643 100 623.5 c 128,-1,14
 96 604 96 604 92.5 577 c 128,-1,15
 89 550 89 550 89 510 c 1,16,-1
 79 510 l 1,17,-1
 79 510 l 1,0,1
EndSplineSet
EndChar
StartChar: parenleft
Encoding: 40 40 10
Width: 267
Flags: W
LayerCount: 2
Back
Fore
SplineSet
119 281 m 256,0,1
 119 206 119 206 128 136.5 c 128,-1,2
 137 67 137 67 153 7.5 c 128,-1,3
 169 -52 169 -52 191.5 -99 c 128,-1,4
 214 -146 214 -146 241 -175 c 1,5,-1
 237 -178 l 1,6,7
 205 -151 205 -151 170.5 -104.5 c 128,-1,8
 136 -58 136 -58 107.5 3 c 128,-1,9
 79 64 79 64 61 135.5 c 128,-1,10
 43 207 43 207 43 282 c 256,11,12
 43 357 43 357 61 428.5 c 128,-1,13
 79 500 79 500 107.5 560.5 c 128,-1,14
 136 621 136 621 170.5 668 c 128,-1,15
 205 715 205 715 237 742 c 1,16,-1
 241 739 l 1,17,18
 214 710 214 710 191.5 663 c 128,-1,19
 169 616 169 616 153 556 c 128,-1,20
 137 496 137 496 128 426 c 128,-1,21
 119 356 119 356 119 281 c 256,0,1
EndSplineSet
EndChar
StartChar: parenright
Encoding: 41 41 11
Width: 267
Flags: W
LayerCount: 2
Back
Fore
SplineSet
148 281 m 256,0,1
 148 356 148 356 139 426 c 128,-1,2
 130 496 130 496 114 556 c 128,-1,3
 98 616 98 616 75.5 663 c 128,-1,4
 53 710 53 710 26 739 c 1,5,-1
 30 742 l 1,6,7
 62 715 62 715 96.5 668 c 128,-1,8
 131 621 131 621 159.5 560.5 c 128,-1,9
 188 500 188 500 206 428.5 c 128,-1,10
 224 357 224 357 224 282 c 256,11,12
 224 207 224 207 206 135.5 c 128,-1,13
 188 64 188 64 159.5 3 c 128,-1,14
 131 -58 131 -58 96.5 -104.5 c 128,-1,15
 62 -151 62 -151 30 -178 c 1,16,-1
 26 -175 l 1,17,18
 53 -146 53 -146 75.5 -99 c 128,-1,19
 98 -52 98 -52 114 7.5 c 128,-1,20
 130 67 130 67 139 136.5 c 128,-1,21
 148 206 148 206 148 281 c 256,0,1
EndSplineSet
EndChar
StartChar: asterisk
Encoding: 42 42 12
Width: 408
Flags: W
LayerCount: 2
Back
Fore
SplineSet
231 685 m 0,0,1
 231 675 231 675 227.5 665.5 c 128,-1,2
 224 656 224 656 220 642.5 c 128,-1,3
 216 629 216 629 212.5 610.5 c 128,-1,4
 209 592 209 592 209 565 c 1,5,6
 236 583 236 583 252.5 599 c 128,-1,7
 269 615 269 615 280 627 c 128,-1,8
 291 639 291 639 299 645.5 c 128,-1,9
 307 652 307 652 317 652 c 0,10,11
 326 652 326 652 334.5 646.5 c 128,-1,12
 343 641 343 641 343 627 c 0,13,14
 343 616 343 616 335 610.5 c 128,-1,15
 327 605 327 605 311 599.5 c 128,-1,16
 295 594 295 594 271 585 c 128,-1,17
 247 576 247 576 214 557 c 1,18,19
 246 539 246 539 270.5 530 c 128,-1,20
 295 521 295 521 311 515.5 c 128,-1,21
 327 510 327 510 335 504.5 c 128,-1,22
 343 499 343 499 343 488 c 0,23,24
 343 475 343 475 335 469 c 128,-1,25
 327 463 327 463 317 463 c 256,26,27
 307 463 307 463 299 469.5 c 128,-1,28
 291 476 291 476 280 488 c 128,-1,29
 269 500 269 500 252.5 515.5 c 128,-1,30
 236 531 236 531 209 549 c 1,31,32
 209 522 209 522 212.5 504 c 128,-1,33
 216 486 216 486 220 472.5 c 128,-1,34
 224 459 224 459 227.5 449 c 128,-1,35
 231 439 231 439 231 430 c 0,36,37
 231 416 231 416 223.5 408.5 c 128,-1,38
 216 401 216 401 204 401 c 256,39,40
 192 401 192 401 184.5 408.5 c 128,-1,41
 177 416 177 416 177 430 c 0,42,43
 177 439 177 439 180.5 448.5 c 128,-1,44
 184 458 184 458 188 471.5 c 128,-1,45
 192 485 192 485 195.5 503.5 c 128,-1,46
 199 522 199 522 199 549 c 1,47,48
 172 531 172 531 155.5 515.5 c 128,-1,49
 139 500 139 500 128 488 c 128,-1,50
 117 476 117 476 108.5 469.5 c 128,-1,51
 100 463 100 463 90 463 c 0,52,53
 81 463 81 463 73 468.5 c 128,-1,54
 65 474 65 474 65 487 c 0,55,56
 65 499 65 499 73 504.5 c 128,-1,57
 81 510 81 510 97 515.5 c 128,-1,58
 113 521 113 521 137 530 c 128,-1,59
 161 539 161 539 194 557 c 1,60,61
 162 576 162 576 137.5 585 c 128,-1,62
 113 594 113 594 97 599.5 c 128,-1,63
 81 605 81 605 73 610.5 c 128,-1,64
 65 616 65 616 65 627 c 0,65,66
 65 640 65 640 73 646 c 128,-1,67
 81 652 81 652 91 652 c 256,68,69
 101 652 101 652 109 645.5 c 128,-1,70
 117 639 117 639 128 627 c 128,-1,71
 139 615 139 615 155.5 599 c 128,-1,72
 172 583 172 583 199 565 c 1,73,74
 199 592 199 592 195.5 611 c 128,-1,75
 192 630 192 630 188 643 c 128,-1,76
 184 656 184 656 180.5 666 c 128,-1,77
 177 676 177 676 177 685 c 0,78,79
 177 700 177 700 184.5 707 c 128,-1,80
 192 714 192 714 204 714 c 256,81,82
 216 714 216 714 223.5 707 c 128,-1,83
 231 700 231 700 231 685 c 0,0,1
EndSplineSet
EndChar
StartChar: plus
Encoding: 43 43 13
Width: 454
Flags: W
LayerCount: 2
Back
Fore
SplineSet
57 355 m 1,0,-1
 216 355 l 1,1,-1
 216 514 l 1,2,-1
 238 514 l 1,3,-1
 238 355 l 1,4,-1
 397 355 l 1,5,-1
 397 333 l 1,6,-1
 238 333 l 1,7,-1
 238 174 l 1,8,-1
 216 174 l 1,9,-1
 216 333 l 1,10,-1
 57 333 l 1,11,-1
 57 355 l 1,0,-1
EndSplineSet
EndChar
StartChar: comma
Encoding: 44 44 14
Width: 234
Flags: W
LayerCount: 2
Back
Fore
SplineSet
73 -156 m 1,0,1
 95 -135 95 -135 109 -106 c 128,-1,2
 123 -77 123 -77 123 -52 c 0,3,4
 123 -31 123 -31 114 -19.5 c 128,-1,5
 105 -8 105 -8 93.5 1 c 128,-1,6
 82 10 82 10 73 20 c 128,-1,7
 64 30 64 30 64 48 c 0,8,9
 64 71 64 71 77.5 85 c 128,-1,10
 91 99 91 99 111 99 c 0,11,12
 137 99 137 99 154 79 c 128,-1,13
 171 59 171 59 171 20 c 0,14,15
 171 -34 171 -34 147 -79.5 c 128,-1,16
 123 -125 123 -125 77 -161 c 1,17,-1
 73 -156 l 1,0,1
EndSplineSet
EndChar
StartChar: hyphen
Encoding: 45 45 15
Width: 356
Flags: W
LayerCount: 2
Back
Fore
SplineSet
72 238 m 1,0,-1
 292 238 l 1,1,-1
 285 216 l 1,2,-1
 65 216 l 1,3,-1
 72 238 l 1,0,-1
EndSplineSet
EndChar
StartChar: period
Encoding: 46 46 16
Width: 231
Flags: W
LayerCount: 2
Back
Fore
SplineSet
64 48 m 256,0,1
 64 70 64 70 78.5 84.5 c 128,-1,2
 93 99 93 99 116 99 c 256,3,4
 139 99 139 99 153 84.5 c 128,-1,5
 167 70 167 70 167 48 c 256,6,7
 167 26 167 26 153 11 c 128,-1,8
 139 -4 139 -4 116 -4 c 256,9,10
 93 -4 93 -4 78.5 11 c 128,-1,11
 64 26 64 26 64 48 c 256,0,1
EndSplineSet
EndChar
StartChar: slash
Encoding: 47 47 17
Width: 325
Flags: W
LayerCount: 2
Back
Fore
SplineSet
279 690 m 1,0,-1
 69 0 l 1,1,-1
 46 0 l 1,2,-1
 256 690 l 1,3,-1
 279 690 l 1,0,-1
EndSplineSet
EndChar
StartChar: zero
Encoding: 48 48 18
Width: 622
Flags: W
LayerCount: 2
Back
Fore
SplineSet
311 706 m 256,0,1
 364 706 364 706 410.5 678 c 128,-1,2
 457 650 457 650 491.5 601 c 128,-1,3
 526 552 526 552 546 486 c 128,-1,4
 566 420 566 420 566 345 c 256,5,6
 566 270 566 270 546 204 c 128,-1,7
 526 138 526 138 491.5 89 c 128,-1,8
 457 40 457 40 410.5 12 c 128,-1,9
 364 -16 364 -16 311 -16 c 256,10,11
 258 -16 258 -16 211.5 12 c 128,-1,12
 165 40 165 40 130.5 89 c 128,-1,13
 96 138 96 138 76 204 c 128,-1,14
 56 270 56 270 56 345 c 256,15,16
 56 420 56 420 76 486 c 128,-1,17
 96 552 96 552 130.5 601 c 128,-1,18
 165 650 165 650 211.5 678 c 128,-1,19
 258 706 258 706 311 706 c 256,0,1
152 345 m 256,20,21
 152 167 152 167 191 81.5 c 128,-1,22
 230 -4 230 -4 311 -4 c 256,23,24
 392 -4 392 -4 431 81.5 c 128,-1,25
 470 167 470 167 470 345 c 256,26,27
 470 523 470 523 431 608.5 c 128,-1,28
 392 694 392 694 311 694 c 256,29,30
 230 694 230 694 191 608.5 c 128,-1,31
 152 523 152 523 152 345 c 256,20,21
EndSplineSet
Substitution2: "'numr' Numerators lookup 10 subtable" zero.numerator
Substitution2: "'dnom' Denominators lookup 9 subtable" zero.denominator
Substitution2: "'sups' Superscript lookup 8 subtable" zerosuperior
Substitution2: "'sinf' Scientific Inferiors lookup 7 subtable" zeroinferior
Substitution2: "'onum' Oldstyle Figures lookup 4 subtable" zero.oldstyle
EndChar
StartChar: one
Encoding: 49 49 19
Width: 344
Flags: W
LayerCount: 2
Back
Fore
SplineSet
143 600 m 1,0,-1
 40 600 l 1,1,-1
 40 607 l 1,2,3
 104 615 104 615 145 640.5 c 128,-1,4
 186 666 186 666 215 714 c 1,5,-1
 220 712 l 1,6,-1
 220 17 l 1,7,-1
 312 9 l 1,8,-1
 312 0 l 1,9,-1
 41 0 l 1,10,-1
 41 9 l 1,11,-1
 143 17 l 1,12,-1
 143 600 l 1,0,-1
EndSplineSet
Substitution2: "'numr' Numerators lookup 10 subtable" one.numerator
Substitution2: "'dnom' Denominators lookup 9 subtable" one.denominator
Substitution2: "'sups' Superscript lookup 8 subtable" onesuperior
Substitution2: "'sinf' Scientific Inferiors lookup 7 subtable" oneinferior
Substitution2: "'onum' Oldstyle Figures lookup 4 subtable" one.oldstyle
EndChar
StartChar: two
Encoding: 50 50 20
Width: 510
Flags: W
LayerCount: 2
Back
Fore
SplineSet
38 0 m 1,0,-1
 35 9 l 1,1,-1
 142 111 l 2,2,3
 345 304 345 304 345 490 c 0,4,5
 345 568 345 568 312 609.5 c 128,-1,6
 279 651 279 651 216 651 c 0,7,8
 167 651 167 651 128 626.5 c 128,-1,9
 89 602 89 602 65 557 c 1,10,-1
 56 562 l 1,11,12
 69 595 69 595 90 621.5 c 128,-1,13
 111 648 111 648 137.5 666.5 c 128,-1,14
 164 685 164 685 195 695.5 c 128,-1,15
 226 706 226 706 259 706 c 0,16,17
 298 706 298 706 331 691.5 c 128,-1,18
 364 677 364 677 388 651.5 c 128,-1,19
 412 626 412 626 425.5 590 c 128,-1,20
 439 554 439 554 439 512 c 0,21,22
 439 477 439 477 428.5 443.5 c 128,-1,23
 418 410 418 410 395.5 372.5 c 128,-1,24
 373 335 373 335 337 292.5 c 128,-1,25
 301 250 301 250 250 198 c 2,26,-1
 130 77 l 1,27,-1
 361 77 l 2,28,29
 389 77 389 77 403 85.5 c 128,-1,30
 417 94 417 94 425 123 c 2,31,-1
 444 196 l 1,32,-1
 452 194 l 1,33,-1
 429 0 l 1,34,-1
 38 0 l 1,0,-1
EndSplineSet
Substitution2: "'numr' Numerators lookup 10 subtable" two.numerator
Substitution2: "'dnom' Denominators lookup 9 subtable" two.denominator
Substitution2: "'sups' Superscript lookup 8 subtable" twosuperior
Substitution2: "'sinf' Scientific Inferiors lookup 7 subtable" twoinferior
Substitution2: "'onum' Oldstyle Figures lookup 4 subtable" two.oldstyle
EndChar
StartChar: three
Encoding: 51 51 21
Width: 516
Flags: W
LayerCount: 2
Back
Fore
SplineSet
162 352 m 1,0,1
 237 382 237 382 278 433 c 128,-1,2
 319 484 319 484 319 544 c 0,3,4
 319 594 319 594 292.5 622.5 c 128,-1,5
 266 651 266 651 219 651 c 0,6,7
 173 651 173 651 136.5 624 c 128,-1,8
 100 597 100 597 77 546 c 1,9,-1
 68 550 l 1,10,11
 93 623 93 623 145.5 665 c 128,-1,12
 198 707 198 707 265 707 c 0,13,14
 328 707 328 707 367.5 672 c 128,-1,15
 407 637 407 637 407 581 c 0,16,17
 407 531 407 531 373.5 485 c 128,-1,18
 340 439 340 439 279 405 c 1,19,-1
 279 401 l 1,20,21
 319 400 319 400 353 384.5 c 128,-1,22
 387 369 387 369 412 343.5 c 128,-1,23
 437 318 437 318 451 283.5 c 128,-1,24
 465 249 465 249 465 209 c 0,25,26
 465 162 465 162 446 121 c 128,-1,27
 427 80 427 80 394.5 49.5 c 128,-1,28
 362 19 362 19 318.5 1.5 c 128,-1,29
 275 -16 275 -16 225 -16 c 0,30,31
 189 -16 189 -16 156.5 -6.5 c 128,-1,32
 124 3 124 3 99.5 19 c 128,-1,33
 75 35 75 35 60.5 56 c 128,-1,34
 46 77 46 77 46 101 c 0,35,36
 46 123 46 123 57.5 136 c 128,-1,37
 69 149 69 149 89 149 c 0,38,39
 110 149 110 149 124 132.5 c 128,-1,40
 138 116 138 116 155 69 c 0,41,42
 164 46 164 46 170.5 32 c 128,-1,43
 177 18 177 18 184.5 10.5 c 128,-1,44
 192 3 192 3 202.5 0.5 c 128,-1,45
 213 -2 213 -2 228 -2 c 0,46,47
 297 -2 297 -2 336 43 c 128,-1,48
 375 88 375 88 375 166 c 0,49,50
 375 207 375 207 364 241 c 128,-1,51
 353 275 353 275 333 299.5 c 128,-1,52
 313 324 313 324 285.5 337.5 c 128,-1,53
 258 351 258 351 225 351 c 0,54,55
 211 351 211 351 195 349 c 128,-1,56
 179 347 179 347 165 342 c 1,57,-1
 162 352 l 1,0,1
EndSplineSet
Substitution2: "'numr' Numerators lookup 10 subtable" three.numerator
Substitution2: "'dnom' Denominators lookup 9 subtable" three.denominator
Substitution2: "'sups' Superscript lookup 8 subtable" threesuperior
Substitution2: "'sinf' Scientific Inferiors lookup 7 subtable" threeinferior
Substitution2: "'onum' Oldstyle Figures lookup 4 subtable" three.oldstyle
EndChar
StartChar: four
Encoding: 52 52 22
Width: 509
Flags: W
LayerCount: 2
Back
Fore
SplineSet
300 195 m 1,0,-1
 23 195 l 1,1,-1
 20 201 l 1,2,-1
 372 714 l 1,3,-1
 377 712 l 1,4,-1
 377 247 l 1,5,-1
 462 247 l 1,6,-1
 462 195 l 1,7,-1
 377 195 l 1,8,-1
 377 17 l 1,9,-1
 463 9 l 1,10,-1
 463 0 l 1,11,-1
 198 0 l 1,12,-1
 198 9 l 1,13,-1
 300 17 l 1,14,-1
 300 195 l 1,0,-1
300 578 m 1,15,-1
 296 578 l 1,16,-1
 68 250 l 1,17,-1
 69 247 l 1,18,-1
 300 247 l 1,19,-1
 300 578 l 1,15,-1
EndSplineSet
Substitution2: "'numr' Numerators lookup 10 subtable" four.numerator
Substitution2: "'dnom' Denominators lookup 9 subtable" four.denominator
Substitution2: "'sups' Superscript lookup 8 subtable" foursuperior
Substitution2: "'sinf' Scientific Inferiors lookup 7 subtable" fourinferior
Substitution2: "'onum' Oldstyle Figures lookup 4 subtable" four.oldstyle
EndChar
StartChar: five
Encoding: 53 53 23
Width: 499
Flags: W
LayerCount: 2
Back
Fore
SplineSet
129 438 m 1,0,1
 161 446 161 446 181.5 449.5 c 128,-1,2
 202 453 202 453 224 453 c 0,3,4
 275 453 275 453 316 437.5 c 128,-1,5
 357 422 357 422 386.5 393.5 c 128,-1,6
 416 365 416 365 432 324.5 c 128,-1,7
 448 284 448 284 448 235 c 0,8,9
 448 182 448 182 430 136 c 128,-1,10
 412 90 412 90 380 56.5 c 128,-1,11
 348 23 348 23 305 3.5 c 128,-1,12
 262 -16 262 -16 212 -16 c 0,13,14
 177 -16 177 -16 145 -6.5 c 128,-1,15
 113 3 113 3 88.5 19 c 128,-1,16
 64 35 64 35 49.5 56.5 c 128,-1,17
 35 78 35 78 35 101 c 0,18,19
 35 123 35 123 47.5 136 c 128,-1,20
 60 149 60 149 81 149 c 0,21,22
 101 149 101 149 111.5 138 c 128,-1,23
 122 127 122 127 129 110 c 128,-1,24
 136 93 136 93 141.5 73.5 c 128,-1,25
 147 54 147 54 156.5 37 c 128,-1,26
 166 20 166 20 182.5 9 c 128,-1,27
 199 -2 199 -2 227 -2 c 0,28,29
 257 -2 257 -2 281.5 12 c 128,-1,30
 306 26 306 26 324 51 c 128,-1,31
 342 76 342 76 351.5 111.5 c 128,-1,32
 361 147 361 147 361 190 c 0,33,34
 361 281 361 281 319 332.5 c 128,-1,35
 277 384 277 384 204 384 c 0,36,37
 150 384 150 384 105 349 c 1,38,-1
 101 350 l 1,39,-1
 149 690 l 1,40,-1
 410 690 l 1,41,42
 415 698 415 698 419.5 706 c 128,-1,43
 424 714 424 714 429 723 c 1,44,-1
 436 721 l 1,45,-1
 404 615 l 1,46,-1
 153 615 l 1,47,-1
 129 438 l 1,0,1
EndSplineSet
Substitution2: "'numr' Numerators lookup 10 subtable" five.numerator
Substitution2: "'dnom' Denominators lookup 9 subtable" five.denominator
Substitution2: "'sups' Superscript lookup 8 subtable" fivesuperior
Substitution2: "'sinf' Scientific Inferiors lookup 7 subtable" fiveinferior
Substitution2: "'onum' Oldstyle Figures lookup 4 subtable" five.oldstyle
EndChar
StartChar: six
Encoding: 54 54 24
Width: 512
Flags: W
LayerCount: 2
Back
Fore
SplineSet
261 -16 m 0,0,1
 213 -16 213 -16 175 2 c 128,-1,2
 137 20 137 20 110 54 c 128,-1,3
 83 88 83 88 68.5 136 c 128,-1,4
 54 184 54 184 54 243 c 0,5,6
 54 322 54 322 77.5 394.5 c 128,-1,7
 101 467 101 467 144.5 527.5 c 128,-1,8
 188 588 188 588 249.5 636 c 128,-1,9
 311 684 311 684 387 714 c 1,10,-1
 391 706 l 1,11,12
 282 640 282 640 225.5 558.5 c 128,-1,13
 169 477 169 477 159 370 c 1,14,15
 182 396 182 396 216 409.5 c 128,-1,16
 250 423 250 423 290 423 c 0,17,18
 331 423 331 423 364.5 408 c 128,-1,19
 398 393 398 393 422 366 c 128,-1,20
 446 339 446 339 459 301 c 128,-1,21
 472 263 472 263 472 217 c 0,22,23
 472 166 472 166 456.5 123 c 128,-1,24
 441 80 441 80 413 49 c 128,-1,25
 385 18 385 18 346 1 c 128,-1,26
 307 -16 307 -16 261 -16 c 0,0,1
267 -4 m 0,27,28
 319 -4 319 -4 349 50.5 c 128,-1,29
 379 105 379 105 379 199 c 0,30,31
 379 296 379 296 347 347.5 c 128,-1,32
 315 399 315 399 255 399 c 0,33,34
 226 399 226 399 200 387 c 128,-1,35
 174 375 174 375 157 352 c 1,36,37
 152 324 152 324 149 287.5 c 128,-1,38
 146 251 146 251 146 219 c 0,39,40
 146 168 146 168 154.5 127 c 128,-1,41
 163 86 163 86 179 57 c 128,-1,42
 195 28 195 28 217.5 12 c 128,-1,43
 240 -4 240 -4 267 -4 c 0,27,28
EndSplineSet
Substitution2: "'numr' Numerators lookup 10 subtable" six.numerator
Substitution2: "'dnom' Denominators lookup 9 subtable" six.denominator
Substitution2: "'sups' Superscript lookup 8 subtable" sixsuperior
Substitution2: "'sinf' Scientific Inferiors lookup 7 subtable" sixinferior
Substitution2: "'onum' Oldstyle Figures lookup 4 subtable" six.oldstyle
EndChar
StartChar: seven
Encoding: 55 55 25
Width: 432
Flags: W
LayerCount: 2
Back
Fore
SplineSet
417 690 m 1,0,-1
 423 685 l 1,1,2
 395 619 395 619 373 567.5 c 128,-1,3
 351 516 351 516 333 470.5 c 128,-1,4
 315 425 315 425 298.5 380.5 c 128,-1,5
 282 336 282 336 264.5 284.5 c 128,-1,6
 247 233 247 233 226.5 169.5 c 128,-1,7
 206 106 206 106 180 23 c 0,8,9
 174 3 174 3 160 -6.5 c 128,-1,10
 146 -16 146 -16 132 -16 c 0,11,12
 113 -16 113 -16 104.5 -5 c 128,-1,13
 96 6 96 6 96 22 c 256,14,15
 96 38 96 38 103 51 c 2,16,-1
 378 615 l 1,17,-1
 74 615 l 1,18,19
 61 596 61 596 53.5 581.5 c 128,-1,20
 46 567 46 567 38 547 c 1,21,-1
 31 550 l 1,22,-1
 85 722 l 1,23,-1
 90 720 l 1,24,25
 90 712 90 712 90.5 705 c 128,-1,26
 91 698 91 698 92 690 c 1,27,-1
 417 690 l 1,0,-1
EndSplineSet
Substitution2: "'numr' Numerators lookup 10 subtable" seven.numerator
Substitution2: "'dnom' Denominators lookup 9 subtable" seven.denominator
Substitution2: "'sups' Superscript lookup 8 subtable" sevensuperior
Substitution2: "'sinf' Scientific Inferiors lookup 7 subtable" seveninferior
Substitution2: "'onum' Oldstyle Figures lookup 4 subtable" seven.oldstyle
EndChar
StartChar: eight
Encoding: 56 56 26
Width: 525
Flags: W
LayerCount: 2
Back
Fore
SplineSet
310 400 m 1,0,1
 394 353 394 353 433 302 c 128,-1,2
 472 251 472 251 472 190 c 0,3,4
 472 147 472 147 455.5 109.5 c 128,-1,5
 439 72 439 72 409.5 44 c 128,-1,6
 380 16 380 16 341 0 c 128,-1,7
 302 -16 302 -16 257 -16 c 0,8,9
 215 -16 215 -16 178.5 -2 c 128,-1,10
 142 12 142 12 114.5 37 c 128,-1,11
 87 62 87 62 71.5 95 c 128,-1,12
 56 128 56 128 56 166 c 0,13,14
 56 226 56 226 96 274.5 c 128,-1,15
 136 323 136 323 211 355 c 1,16,17
 143 391 143 391 111 434.5 c 128,-1,18
 79 478 79 478 79 533 c 0,19,20
 79 570 79 570 93 601.5 c 128,-1,21
 107 633 107 633 132.5 656.5 c 128,-1,22
 158 680 158 680 192 693 c 128,-1,23
 226 706 226 706 267 706 c 0,24,25
 304 706 304 706 335 695.5 c 128,-1,26
 366 685 366 685 388.5 666 c 128,-1,27
 411 647 411 647 423.5 620.5 c 128,-1,28
 436 594 436 594 436 563 c 0,29,30
 436 512 436 512 402.5 469 c 128,-1,31
 369 426 369 426 310 400 c 1,0,1
301 405 m 1,32,33
 334 431 334 431 352 471 c 128,-1,34
 370 511 370 511 370 560 c 0,35,36
 370 623 370 623 341 658.5 c 128,-1,37
 312 694 312 694 261 694 c 0,38,39
 213 694 213 694 184 662 c 128,-1,40
 155 630 155 630 155 576 c 0,41,42
 155 520 155 520 190 479.5 c 128,-1,43
 225 439 225 439 301 405 c 1,32,33
222 348 m 1,44,45
 132 301 132 301 132 170 c 0,46,47
 132 88 132 88 166.5 42 c 128,-1,48
 201 -4 201 -4 264 -4 c 0,49,50
 324 -4 324 -4 361 36 c 128,-1,51
 398 76 398 76 398 140 c 256,52,53
 398 204 398 204 356.5 253 c 128,-1,54
 315 302 315 302 222 348 c 1,44,45
EndSplineSet
Substitution2: "'numr' Numerators lookup 10 subtable" eight.numerator
Substitution2: "'dnom' Denominators lookup 9 subtable" eight.denominator
Substitution2: "'sups' Superscript lookup 8 subtable" eightsuperior
Substitution2: "'sinf' Scientific Inferiors lookup 7 subtable" eightinferior
Substitution2: "'onum' Oldstyle Figures lookup 4 subtable" eight.oldstyle
EndChar
StartChar: nine
Encoding: 57 57 27
Width: 511
Flags: W
LayerCount: 2
Back
Fore
SplineSet
252 714 m 0,0,1
 348 714 348 714 402.5 644.5 c 128,-1,2
 457 575 457 575 457 453 c 0,3,4
 457 376 457 376 434 304.5 c 128,-1,5
 411 233 411 233 367.5 172 c 128,-1,6
 324 111 324 111 262.5 63 c 128,-1,7
 201 15 201 15 124 -16 c 1,8,-1
 120 -8 l 1,9,10
 225 58 225 58 281.5 142.5 c 128,-1,11
 338 227 338 227 352 338 c 1,12,13
 329 312 329 312 295.5 298.5 c 128,-1,14
 262 285 262 285 222 285 c 0,15,16
 181 285 181 285 147 299.5 c 128,-1,17
 113 314 113 314 89 340.5 c 128,-1,18
 65 367 65 367 52 404.5 c 128,-1,19
 39 442 39 442 39 488 c 0,20,21
 39 537 39 537 54.5 578.5 c 128,-1,22
 70 620 70 620 98.5 650 c 128,-1,23
 127 680 127 680 166 697 c 128,-1,24
 205 714 205 714 252 714 c 0,0,1
250 702 m 256,25,26
 194 702 194 702 163 650 c 128,-1,27
 132 598 132 598 132 506 c 0,28,29
 132 412 132 412 164 360.5 c 128,-1,30
 196 309 196 309 256 309 c 0,31,32
 285 309 285 309 310.5 321 c 128,-1,33
 336 333 336 333 354 356 c 1,34,35
 359 385 359 385 362 419.5 c 128,-1,36
 365 454 365 454 365 486 c 0,37,38
 365 591 365 591 335.5 646.5 c 128,-1,39
 306 702 306 702 250 702 c 256,25,26
EndSplineSet
Substitution2: "'numr' Numerators lookup 10 subtable" nine.numerator
Substitution2: "'dnom' Denominators lookup 9 subtable" nine.denominator
Substitution2: "'sups' Superscript lookup 8 subtable" ninesuperior
Substitution2: "'sinf' Scientific Inferiors lookup 7 subtable" nineinferior
Substitution2: "'onum' Oldstyle Figures lookup 4 subtable" nine.oldstyle
EndChar
StartChar: colon
Encoding: 58 58 28
Width: 233
Flags: W
LayerCount: 2
Back
Fore
SplineSet
65 48 m 256,0,1
 65 70 65 70 79.5 84.5 c 128,-1,2
 94 99 94 99 117 99 c 256,3,4
 140 99 140 99 154 84.5 c 128,-1,5
 168 70 168 70 168 48 c 256,6,7
 168 26 168 26 154 11 c 128,-1,8
 140 -4 140 -4 117 -4 c 256,9,10
 94 -4 94 -4 79.5 11 c 128,-1,11
 65 26 65 26 65 48 c 256,0,1
65 358 m 256,12,13
 65 380 65 380 79.5 394.5 c 128,-1,14
 94 409 94 409 117 409 c 256,15,16
 140 409 140 409 154 394.5 c 128,-1,17
 168 380 168 380 168 358 c 256,18,19
 168 336 168 336 154 321 c 128,-1,20
 140 306 140 306 117 306 c 256,21,22
 94 306 94 306 79.5 321 c 128,-1,23
 65 336 65 336 65 358 c 256,12,13
EndSplineSet
EndChar
StartChar: semicolon
Encoding: 59 59 29
Width: 246
Flags: W
LayerCount: 2
Back
Fore
SplineSet
67 358 m 256,0,1
 67 380 67 380 81.5 394.5 c 128,-1,2
 96 409 96 409 119 409 c 256,3,4
 142 409 142 409 156 394.5 c 128,-1,5
 170 380 170 380 170 358 c 256,6,7
 170 336 170 336 156 321 c 128,-1,8
 142 306 142 306 119 306 c 256,9,10
 96 306 96 306 81.5 321 c 128,-1,11
 67 336 67 336 67 358 c 256,0,1
80 -156 m 1,12,13
 102 -135 102 -135 116 -106 c 128,-1,14
 130 -77 130 -77 130 -52 c 0,15,16
 130 -31 130 -31 121 -19.5 c 128,-1,17
 112 -8 112 -8 100.5 1 c 128,-1,18
 89 10 89 10 80 20 c 128,-1,19
 71 30 71 30 71 48 c 0,20,21
 71 71 71 71 84.5 85 c 128,-1,22
 98 99 98 99 118 99 c 0,23,24
 144 99 144 99 161 79 c 128,-1,25
 178 59 178 59 178 20 c 0,26,27
 178 -34 178 -34 154 -79.5 c 128,-1,28
 130 -125 130 -125 84 -161 c 1,29,-1
 80 -156 l 1,12,13
EndSplineSet
EndChar
StartChar: less
Encoding: 60 60 30
Width: 423
Flags: W
LayerCount: 2
Back
Fore
SplineSet
52 362 m 1,0,-1
 324 504 l 1,1,-1
 333 488 l 1,2,-1
 66 346 l 1,3,-1
 334 206 l 1,4,-1
 325 186 l 1,5,-1
 52 329 l 1,6,-1
 52 362 l 1,0,-1
EndSplineSet
EndChar
StartChar: equal
Encoding: 61 61 31
Width: 481
Flags: W
LayerCount: 2
Back
Fore
SplineSet
80 250 m 1,0,-1
 410 250 l 1,1,-1
 403 228 l 1,2,-1
 73 228 l 1,3,-1
 80 250 l 1,0,-1
80 435 m 1,4,-1
 410 435 l 1,5,-1
 403 413 l 1,6,-1
 73 413 l 1,7,-1
 80 435 l 1,4,-1
EndSplineSet
EndChar
StartChar: greater
Encoding: 62 62 32
Width: 423
Flags: W
LayerCount: 2
Back
Fore
SplineSet
371 329 m 1,0,-1
 98 186 l 1,1,-1
 89 206 l 1,2,-1
 357 346 l 1,3,-1
 90 488 l 1,4,-1
 99 504 l 1,5,-1
 371 362 l 1,6,-1
 371 329 l 1,0,-1
EndSplineSet
EndChar
StartChar: question
Encoding: 63 63 33
Width: 363
Flags: W
LayerCount: 2
Back
Fore
SplineSet
107 170 m 1,0,-1
 99 402 l 1,1,-1
 126 402 l 2,2,3
 218 402 218 402 260 421.5 c 128,-1,4
 302 441 302 441 302 485 c 0,5,6
 302 514 302 514 285 534 c 128,-1,7
 268 554 268 554 242.5 569 c 128,-1,8
 217 584 217 584 187.5 595.5 c 128,-1,9
 158 607 158 607 132.5 618.5 c 128,-1,10
 107 630 107 630 90 643.5 c 128,-1,11
 73 657 73 657 73 677 c 0,12,13
 73 712 73 712 117 712 c 0,14,15
 153 712 153 712 189 691.5 c 128,-1,16
 225 671 225 671 253 637.5 c 128,-1,17
 281 604 281 604 298.5 561.5 c 128,-1,18
 316 519 316 519 316 476 c 0,19,20
 316 407 316 407 272.5 366.5 c 128,-1,21
 229 326 229 326 151 323 c 2,22,-1
 125 322 l 1,23,-1
 117 170 l 1,24,-1
 107 170 l 1,0,-1
60 38 m 256,25,26
 60 59 60 59 73.5 72.5 c 128,-1,27
 87 86 87 86 108 86 c 256,28,29
 129 86 129 86 142.5 72.5 c 128,-1,30
 156 59 156 59 156 38 c 256,31,32
 156 17 156 17 142.5 3.5 c 128,-1,33
 129 -10 129 -10 108 -10 c 256,34,35
 87 -10 87 -10 73.5 3.5 c 128,-1,36
 60 17 60 17 60 38 c 256,25,26
EndSplineSet
EndChar
StartChar: at
Encoding: 64 64 34
Width: 752
Flags: W
LayerCount: 2
Back
Fore
SplineSet
551 -127 m 1,0,1
 473 -173 473 -173 370 -173 c 0,2,3
 296 -173 296 -173 235.5 -152 c 128,-1,4
 175 -131 175 -131 132.5 -92.5 c 128,-1,5
 90 -54 90 -54 66.5 0.5 c 128,-1,6
 43 55 43 55 43 122 c 0,7,8
 43 199 43 199 72 265.5 c 128,-1,9
 101 332 101 332 152 381.5 c 128,-1,10
 203 431 203 431 272 459.5 c 128,-1,11
 341 488 341 488 420 488 c 0,12,13
 481 488 481 488 533 469 c 128,-1,14
 585 450 585 450 622.5 416.5 c 128,-1,15
 660 383 660 383 681 336 c 128,-1,16
 702 289 702 289 702 233 c 0,17,18
 702 185 702 185 686.5 141.5 c 128,-1,19
 671 98 671 98 645 65 c 128,-1,20
 619 32 619 32 584 13 c 128,-1,21
 549 -6 549 -6 510 -6 c 0,22,23
 472 -6 472 -6 450.5 12.5 c 128,-1,24
 429 31 429 31 429 65 c 0,25,26
 429 78 429 78 433 83 c 1,27,-1
 430 84 l 1,28,29
 375 5 375 5 304 5 c 0,30,31
 259 5 259 5 233 32 c 128,-1,32
 207 59 207 59 207 107 c 0,33,34
 207 150 207 150 227 194 c 128,-1,35
 247 238 247 238 278.5 273.5 c 128,-1,36
 310 309 310 309 348.5 331.5 c 128,-1,37
 387 354 387 354 425 354 c 0,38,39
 471 354 471 354 488 314 c 1,40,-1
 492 314 l 1,41,-1
 504 354 l 1,42,-1
 580 354 l 1,43,-1
 502 90 l 2,44,45
 498 79 498 79 497 72 c 128,-1,46
 496 65 496 65 496 57 c 0,47,48
 496 34 496 34 504 25 c 128,-1,49
 512 16 512 16 531 16 c 0,50,51
 561 16 561 16 589.5 34 c 128,-1,52
 618 52 618 52 639.5 82 c 128,-1,53
 661 112 661 112 674 151 c 128,-1,54
 687 190 687 190 687 232 c 0,55,56
 687 285 687 285 667 329 c 128,-1,57
 647 373 647 373 611.5 405 c 128,-1,58
 576 437 576 437 526.5 455 c 128,-1,59
 477 473 477 473 419 473 c 0,60,61
 353 473 353 473 296 446.5 c 128,-1,62
 239 420 239 420 197 374 c 128,-1,63
 155 328 155 328 131 265 c 128,-1,64
 107 202 107 202 107 129 c 0,65,66
 107 63 107 63 127 10.5 c 128,-1,67
 147 -42 147 -42 183.5 -79.5 c 128,-1,68
 220 -117 220 -117 272.5 -137 c 128,-1,69
 325 -157 325 -157 390 -157 c 0,70,71
 436 -157 436 -157 471 -147 c 128,-1,72
 506 -137 506 -137 546 -114 c 1,73,-1
 551 -127 l 1,0,1
325 19 m 0,74,75
 352 19 352 19 379 42 c 128,-1,76
 406 65 406 65 427.5 101.5 c 128,-1,77
 449 138 449 138 462.5 184 c 128,-1,78
 476 230 476 230 476 275 c 0,79,80
 476 310 476 310 466.5 326 c 128,-1,81
 457 342 457 342 436 342 c 0,82,83
 409 342 409 342 381 319.5 c 128,-1,84
 353 297 353 297 330.5 261 c 128,-1,85
 308 225 308 225 294 181 c 128,-1,86
 280 137 280 137 280 94 c 0,87,88
 280 19 280 19 325 19 c 0,74,75
EndSplineSet
EndChar
StartChar: A
Encoding: 65 65 35
Width: 658
Flags: W
LayerCount: 2
Back
Fore
SplineSet
178 8 m 1,0,-1
 178 0 l 1,1,-1
 -35 0 l 1,2,-1
 -35 8 l 1,3,-1
 21 13 l 2,4,5
 46 15 46 15 56.5 22.5 c 128,-1,6
 67 30 67 30 75 53 c 2,7,-1
 320 706 l 1,8,-1
 338 706 l 1,9,-1
 590 18 l 1,10,-1
 673 8 l 1,11,-1
 673 0 l 1,12,-1
 428 0 l 1,13,-1
 428 8 l 1,14,-1
 510 18 l 1,15,-1
 416 274 l 1,16,-1
 174 274 l 1,17,-1
 91 53 l 2,18,19
 87 42 87 42 87 35 c 0,20,21
 87 24 87 24 93.5 19.5 c 128,-1,22
 100 15 100 15 117 13 c 2,23,-1
 178 8 l 1,0,-1
294 595 m 1,24,-1
 180 290 l 1,25,-1
 410 290 l 1,26,-1
 298 595 l 1,27,-1
 294 595 l 1,24,-1
EndSplineSet
Substitution2: "Single Substitution lookup 11 subtable" ordfeminine
Substitution2: "'ss01' Style Set 1 lookup 3 subtable" A.ss01
EndChar
StartChar: B
Encoding: 66 66 36
Width: 615
Flags: W
LayerCount: 2
Back
Fore
SplineSet
40 682 m 1,0,-1
 40 690 l 1,1,-1
 289 690 l 2,2,3
 407 690 407 690 469 648 c 128,-1,4
 531 606 531 606 531 526 c 0,5,6
 531 463 531 463 492.5 421 c 128,-1,7
 454 379 454 379 382 368 c 1,8,-1
 382 364 l 1,9,10
 470 352 470 352 515.5 307.5 c 128,-1,11
 561 263 561 263 561 189 c 0,12,13
 561 153 561 153 549 119 c 128,-1,14
 537 85 537 85 510 58.5 c 128,-1,15
 483 32 483 32 440 16 c 128,-1,16
 397 0 397 0 335 0 c 2,17,-1
 40 0 l 1,18,-1
 40 8 l 1,19,-1
 122 16 l 1,20,-1
 122 674 l 1,21,-1
 40 682 l 1,0,-1
311 12 m 2,22,23
 392 12 392 12 429 56.5 c 128,-1,24
 466 101 466 101 466 186 c 0,25,26
 466 279 466 279 425.5 319 c 128,-1,27
 385 359 385 359 311 359 c 2,28,-1
 199 359 l 1,29,-1
 199 12 l 1,30,-1
 311 12 l 2,22,23
315 371 m 2,31,32
 384 371 384 371 412.5 411 c 128,-1,33
 441 451 441 451 441 526 c 256,34,35
 441 601 441 601 403.5 639.5 c 128,-1,36
 366 678 366 678 286 678 c 2,37,-1
 199 678 l 1,38,-1
 199 371 l 1,39,-1
 315 371 l 2,31,32
EndSplineSet
EndChar
StartChar: C
Encoding: 67 67 37
Width: 676
Flags: W
LayerCount: 2
Back
Fore
SplineSet
526 68 m 0,0,1
 556 102 556 102 573 146 c 128,-1,2
 590 190 590 190 600 232 c 1,3,-1
 613 230 l 1,4,-1
 613 0 l 1,5,-1
 600 0 l 1,6,-1
 566 55 l 1,7,8
 521 23 521 23 469 3.5 c 128,-1,9
 417 -16 417 -16 367 -16 c 0,10,11
 301 -16 301 -16 243.5 12 c 128,-1,12
 186 40 186 40 143.5 88.5 c 128,-1,13
 101 137 101 137 76.5 203 c 128,-1,14
 52 269 52 269 52 345 c 256,15,16
 52 421 52 421 76.5 486.5 c 128,-1,17
 101 552 101 552 143 601 c 128,-1,18
 185 650 185 650 242 678 c 128,-1,19
 299 706 299 706 365 706 c 0,20,21
 410 706 410 706 457 692 c 128,-1,22
 504 678 504 678 563 646 c 1,23,-1
 587 694 l 1,24,-1
 600 694 l 1,25,-1
 610 469 l 1,26,-1
 596 465 l 1,27,28
 582 542 582 542 552 592 c 256,29,30
 522 642 522 642 474 668 c 128,-1,31
 426 694 426 694 368 694 c 0,32,33
 261 694 261 694 204.5 603.5 c 128,-1,34
 148 513 148 513 148 345 c 0,35,36
 148 178 148 178 204.5 88 c 128,-1,37
 261 -2 261 -2 367 -2 c 0,38,39
 413 -2 413 -2 455 17.5 c 128,-1,40
 497 37 497 37 526 68 c 0,0,1
EndSplineSet
EndChar
StartChar: D
Encoding: 68 68 38
Width: 704
Flags: W
LayerCount: 2
Back
Fore
SplineSet
40 690 m 1,0,-1
 306 690 l 2,1,2
 442 690 442 690 519 637 c 0,3,4
 581 594 581 594 614.5 519 c 128,-1,5
 648 444 648 444 648 349 c 0,6,7
 648 253 648 253 614 176 c 128,-1,8
 580 99 580 99 519 54 c 0,9,10
 480 25 480 25 429.5 12.5 c 128,-1,11
 379 0 379 0 306 0 c 2,12,-1
 40 0 l 1,13,-1
 40 8 l 1,14,-1
 122 16 l 1,15,-1
 122 674 l 1,16,-1
 40 682 l 1,17,-1
 40 690 l 1,0,-1
297 12 m 2,18,19
 337 12 337 12 366 15 c 128,-1,20
 395 18 395 18 417 25 c 128,-1,21
 439 32 439 32 454.5 43 c 128,-1,22
 470 54 470 54 483 71 c 0,23,24
 515 113 515 113 533.5 187.5 c 128,-1,25
 552 262 552 262 552 354 c 0,26,27
 552 443 552 443 534.5 511 c 128,-1,28
 517 579 517 579 483 619 c 0,29,30
 469 635 469 635 452.5 646.5 c 128,-1,31
 436 658 436 658 414.5 665 c 128,-1,32
 393 672 393 672 364 675 c 128,-1,33
 335 678 335 678 297 678 c 2,34,-1
 199 678 l 1,35,-1
 199 12 l 1,36,-1
 297 12 l 2,18,19
EndSplineSet
EndChar
StartChar: E
Encoding: 69 69 39
Width: 614
Flags: W
LayerCount: 2
Back
Fore
SplineSet
347 371 m 2,0,1
 371 371 371 371 380.5 379 c 128,-1,2
 390 387 390 387 395 410 c 2,3,-1
 412 491 l 1,4,-1
 424 491 l 1,5,-1
 424 235 l 1,6,-1
 412 235 l 1,7,-1
 395 316 l 2,8,9
 390 339 390 339 380.5 347 c 128,-1,10
 371 355 371 355 347 355 c 2,11,-1
 199 355 l 1,12,-1
 199 12 l 1,13,-1
 423 12 l 2,14,15
 447 12 447 12 458 19 c 128,-1,16
 469 26 469 26 478 49 c 2,17,-1
 544 211 l 1,18,-1
 555 210 l 1,19,-1
 530 0 l 1,20,-1
 40 0 l 1,21,-1
 40 8 l 1,22,-1
 122 16 l 1,23,-1
 122 674 l 1,24,-1
 40 682 l 1,25,-1
 40 690 l 1,26,-1
 531 690 l 1,27,-1
 545 502 l 1,28,-1
 535 501 l 1,29,-1
 479 641 l 2,30,31
 470 664 470 664 459.5 671 c 128,-1,32
 449 678 449 678 425 678 c 2,33,-1
 199 678 l 1,34,-1
 199 371 l 1,35,-1
 347 371 l 2,0,1
EndSplineSet
EndChar
StartChar: F
Encoding: 70 70 40
Width: 554
Flags: W
LayerCount: 2
Back
Fore
SplineSet
344 371 m 2,0,1
 368 371 368 371 377.5 379 c 128,-1,2
 387 387 387 387 392 410 c 2,3,-1
 409 491 l 1,4,-1
 421 491 l 1,5,-1
 421 235 l 1,6,-1
 409 235 l 1,7,-1
 392 316 l 2,8,9
 387 339 387 339 377.5 347 c 128,-1,10
 368 355 368 355 344 355 c 2,11,-1
 199 355 l 1,12,-1
 199 16 l 1,13,-1
 297 8 l 1,14,-1
 297 0 l 1,15,-1
 40 0 l 1,16,-1
 40 8 l 1,17,-1
 122 16 l 1,18,-1
 122 674 l 1,19,-1
 40 682 l 1,20,-1
 40 690 l 1,21,-1
 508 690 l 1,22,-1
 524 491 l 1,23,-1
 516 490 l 1,24,-1
 456 641 l 2,25,26
 447 664 447 664 436.5 671 c 128,-1,27
 426 678 426 678 402 678 c 2,28,-1
 199 678 l 1,29,-1
 199 371 l 1,30,-1
 344 371 l 2,0,1
EndSplineSet
EndChar
StartChar: G
Encoding: 71 71 41
Width: 703
Flags: W
LayerCount: 2
Back
Fore
SplineSet
456 337 m 1,0,-1
 456 345 l 1,1,-1
 687 345 l 1,2,-1
 687 337 l 1,3,-1
 605 329 l 1,4,-1
 605 68 l 1,5,6
 578 43 578 43 544.5 26.5 c 128,-1,7
 511 10 511 10 478 0.5 c 128,-1,8
 445 -9 445 -9 415.5 -12.5 c 128,-1,9
 386 -16 386 -16 367 -16 c 0,10,11
 301 -16 301 -16 243.5 12 c 128,-1,12
 186 40 186 40 143.5 88.5 c 128,-1,13
 101 137 101 137 76.5 203 c 128,-1,14
 52 269 52 269 52 345 c 256,15,16
 52 421 52 421 76.5 486.5 c 128,-1,17
 101 552 101 552 143 601 c 128,-1,18
 185 650 185 650 242 678 c 128,-1,19
 299 706 299 706 365 706 c 0,20,21
 409 706 409 706 455.5 692 c 128,-1,22
 502 678 502 678 559 646 c 1,23,-1
 583 694 l 1,24,-1
 596 694 l 1,25,-1
 606 469 l 1,26,-1
 592 465 l 1,27,28
 578 542 578 542 548 592 c 256,29,30
 518 642 518 642 471.5 668 c 128,-1,31
 425 694 425 694 368 694 c 0,32,33
 261 694 261 694 204.5 603.5 c 128,-1,34
 148 513 148 513 148 345 c 256,35,36
 148 177 148 177 204.5 86.5 c 128,-1,37
 261 -4 261 -4 367 -4 c 0,38,39
 418 -4 418 -4 461 19 c 128,-1,40
 504 42 504 42 528 77 c 1,41,-1
 528 329 l 1,42,-1
 456 337 l 1,0,-1
EndSplineSet
EndChar
StartChar: H
Encoding: 72 72 42
Width: 731
Flags: W
LayerCount: 2
Back
Fore
SplineSet
40 682 m 1,0,-1
 40 690 l 1,1,-1
 286 690 l 1,2,-1
 286 682 l 1,3,-1
 199 674 l 1,4,-1
 199 371 l 1,5,-1
 532 371 l 1,6,-1
 532 674 l 1,7,-1
 445 682 l 1,8,-1
 445 690 l 1,9,-1
 691 690 l 1,10,-1
 691 682 l 1,11,-1
 609 674 l 1,12,-1
 609 16 l 1,13,-1
 691 8 l 1,14,-1
 691 0 l 1,15,-1
 445 0 l 1,16,-1
 445 8 l 1,17,-1
 532 16 l 1,18,-1
 532 355 l 1,19,-1
 199 355 l 1,20,-1
 199 16 l 1,21,-1
 286 8 l 1,22,-1
 286 0 l 1,23,-1
 40 0 l 1,24,-1
 40 8 l 1,25,-1
 122 16 l 1,26,-1
 122 674 l 1,27,-1
 40 682 l 1,0,-1
EndSplineSet
EndChar
StartChar: I
Encoding: 73 73 43
Width: 321
Flags: W
LayerCount: 2
Back
Fore
SplineSet
40 682 m 1,0,-1
 40 690 l 1,1,-1
 281 690 l 1,2,-1
 281 682 l 1,3,-1
 199 674 l 1,4,-1
 199 16 l 1,5,-1
 281 8 l 1,6,-1
 281 0 l 1,7,-1
 40 0 l 1,8,-1
 40 8 l 1,9,-1
 122 16 l 1,10,-1
 122 674 l 1,11,-1
 40 682 l 1,0,-1
EndSplineSet
EndChar
StartChar: J
Encoding: 74 74 44
Width: 330
Flags: W
LayerCount: 2
Back
Fore
SplineSet
134 674 m 1,0,-1
 52 682 l 1,1,-1
 52 690 l 1,2,-1
 293 690 l 1,3,-1
 293 682 l 1,4,-1
 211 674 l 1,5,-1
 211 57 l 2,6,7
 211 -8 211 -8 203.5 -45.5 c 128,-1,8
 196 -83 196 -83 178 -109 c 0,9,10
 158 -138 158 -138 125.5 -154.5 c 128,-1,11
 93 -171 93 -171 55 -171 c 0,12,13
 8 -171 8 -171 -23 -149 c 128,-1,14
 -54 -127 -54 -127 -54 -94 c 0,15,16
 -54 -74 -54 -74 -43 -62 c 128,-1,17
 -32 -50 -32 -50 -12 -50 c 256,18,19
 8 -50 8 -50 19 -62 c 128,-1,20
 30 -74 30 -74 30 -95 c 0,21,22
 30 -100 30 -100 29.5 -109.5 c 128,-1,23
 29 -119 29 -119 29 -124 c 0,24,25
 29 -159 29 -159 63 -159 c 0,26,27
 95 -159 95 -159 114.5 -121 c 128,-1,28
 134 -83 134 -83 134 -20 c 2,29,-1
 134 674 l 1,0,-1
EndSplineSet
EndChar
StartChar: K
Encoding: 75 75 45
Width: 656
Flags: W
LayerCount: 2
Back
Fore
SplineSet
40 682 m 1,0,-1
 40 690 l 1,1,-1
 286 690 l 1,2,-1
 286 682 l 1,3,-1
 199 674 l 1,4,-1
 199 312 l 1,5,-1
 471 626 l 2,6,7
 487 645 487 645 487 657 c 0,8,9
 487 667 487 667 471.5 672 c 128,-1,10
 456 677 456 677 409 682 c 1,11,-1
 409 690 l 1,12,-1
 613 690 l 1,13,-1
 613 682 l 1,14,15
 584 677 584 677 565.5 673 c 128,-1,16
 547 669 547 669 534 663 c 128,-1,17
 521 657 521 657 511.5 649 c 128,-1,18
 502 641 502 641 491 628 c 2,19,-1
 307 418 l 1,20,-1
 597 40 l 2,21,22
 614 21 614 21 628.5 14.5 c 128,-1,23
 643 8 643 8 671 8 c 2,24,-1
 675 8 l 1,25,-1
 675 0 l 1,26,-1
 526 0 l 1,27,-1
 254 357 l 1,28,-1
 199 294 l 1,29,-1
 199 16 l 1,30,-1
 286 8 l 1,31,-1
 286 0 l 1,32,-1
 40 0 l 1,33,-1
 40 8 l 1,34,-1
 122 16 l 1,35,-1
 122 674 l 1,36,-1
 40 682 l 1,0,-1
EndSplineSet
EndChar
StartChar: L
Encoding: 76 76 46
Width: 583
Flags: W
LayerCount: 2
Back
Fore
SplineSet
40 682 m 1,0,-1
 40 690 l 1,1,-1
 286 690 l 1,2,-1
 286 682 l 1,3,-1
 199 674 l 1,4,-1
 199 12 l 1,5,-1
 420 12 l 2,6,7
 444 12 444 12 455 19 c 128,-1,8
 466 26 466 26 475 49 c 2,9,-1
 543 220 l 1,10,-1
 555 218 l 1,11,-1
 530 0 l 1,12,-1
 40 0 l 1,13,-1
 40 8 l 1,14,-1
 122 16 l 1,15,-1
 122 674 l 1,16,-1
 40 682 l 1,0,-1
EndSplineSet
Substitution2: "Single Substitution lookup 11 subtable" L.short
EndChar
StartChar: M
Encoding: 77 77 47
Width: 871
Flags: W
LayerCount: 2
Back
Fore
SplineSet
836 690 m 1,0,-1
 836 682 l 1,1,-1
 749 674 l 1,2,-1
 749 16 l 1,3,-1
 836 8 l 1,4,-1
 836 0 l 1,5,-1
 590 0 l 1,6,-1
 590 8 l 1,7,-1
 672 16 l 1,8,-1
 672 625 l 1,9,-1
 668 625 l 1,10,-1
 427 -16 l 1,11,-1
 417 -16 l 1,12,-1
 148 626 l 1,13,-1
 144 626 l 1,14,-1
 144 61 l 2,15,16
 144 37 144 37 150 27.5 c 128,-1,17
 156 18 156 18 174 16 c 2,18,-1
 245 8 l 1,19,-1
 245 0 l 1,20,-1
 26 0 l 1,21,-1
 26 8 l 1,22,-1
 98 16 l 2,23,24
 116 18 116 18 122 27.5 c 128,-1,25
 128 37 128 37 128 61 c 2,26,-1
 128 661 l 1,27,28
 120 673 120 673 109.5 677.5 c 128,-1,29
 99 682 99 682 80 682 c 2,30,-1
 34 682 l 1,31,-1
 34 690 l 1,32,-1
 205 690 l 1,33,-1
 451 103 l 1,34,-1
 455 103 l 1,35,-1
 675 690 l 1,36,-1
 836 690 l 1,0,-1
EndSplineSet
EndChar
StartChar: N
Encoding: 78 78 48
Width: 734
Flags: W
LayerCount: 2
Back
Fore
SplineSet
43 682 m 1,0,-1
 43 690 l 1,1,-1
 192 690 l 1,2,-1
 586 138 l 1,3,-1
 590 138 l 1,4,-1
 590 629 l 2,5,6
 590 653 590 653 584 662.5 c 128,-1,7
 578 672 578 672 560 674 c 2,8,-1
 479 682 l 1,9,-1
 479 690 l 1,10,-1
 718 690 l 1,11,-1
 718 682 l 1,12,-1
 646 674 l 2,13,14
 622 671 622 671 614 662 c 128,-1,15
 606 653 606 653 606 629 c 2,16,-1
 606 -16 l 1,17,-1
 596 -16 l 1,18,-1
 147 621 l 1,19,-1
 143 621 l 1,20,-1
 143 61 l 2,21,22
 143 37 143 37 149 27.5 c 128,-1,23
 155 18 155 18 173 16 c 2,24,-1
 244 8 l 1,25,-1
 244 0 l 1,26,-1
 25 0 l 1,27,-1
 25 8 l 1,28,-1
 97 16 l 2,29,30
 115 18 115 18 121 27.5 c 128,-1,31
 127 37 127 37 127 61 c 2,32,-1
 127 643 l 1,33,34
 110 667 110 667 97 674.5 c 128,-1,35
 84 682 84 682 60 682 c 2,36,-1
 43 682 l 1,0,-1
EndSplineSet
EndChar
StartChar: O
Encoding: 79 79 49
Width: 734
Flags: W
LayerCount: 2
Back
Fore
SplineSet
367 706 m 256,0,1
 433 706 433 706 490.5 678 c 128,-1,2
 548 650 548 650 590.5 601.5 c 128,-1,3
 633 553 633 553 657.5 487 c 128,-1,4
 682 421 682 421 682 345 c 256,5,6
 682 269 682 269 657.5 203 c 128,-1,7
 633 137 633 137 590.5 88.5 c 128,-1,8
 548 40 548 40 490.5 12 c 128,-1,9
 433 -16 433 -16 367 -16 c 256,10,11
 301 -16 301 -16 243.5 12 c 128,-1,12
 186 40 186 40 143.5 88.5 c 128,-1,13
 101 137 101 137 76.5 203 c 128,-1,14
 52 269 52 269 52 345 c 256,15,16
 52 421 52 421 76.5 487 c 128,-1,17
 101 553 101 553 143.5 601.5 c 128,-1,18
 186 650 186 650 243.5 678 c 128,-1,19
 301 706 301 706 367 706 c 256,0,1
148 345 m 256,20,21
 148 177 148 177 204.5 87 c 128,-1,22
 261 -3 261 -3 367 -3 c 256,23,24
 473 -3 473 -3 529.5 87 c 128,-1,25
 586 177 586 177 586 345 c 256,26,27
 586 513 586 513 529.5 603.5 c 128,-1,28
 473 694 473 694 367 694 c 256,29,30
 261 694 261 694 204.5 603.5 c 128,-1,31
 148 513 148 513 148 345 c 256,20,21
EndSplineSet
Substitution2: "Single Substitution lookup 11 subtable" ordmasculine
EndChar
StartChar: P
Encoding: 80 80 50
Width: 568
Flags: W
LayerCount: 2
Back
Fore
SplineSet
122 16 m 1,0,-1
 122 674 l 1,1,-1
 40 682 l 1,2,-1
 40 690 l 1,3,-1
 293 690 l 2,4,5
 411 690 411 690 473 640 c 128,-1,6
 535 590 535 590 535 499 c 0,7,8
 535 401 535 401 473 350.5 c 128,-1,9
 411 300 411 300 293 300 c 2,10,-1
 199 300 l 1,11,-1
 199 16 l 1,12,-1
 297 8 l 1,13,-1
 297 0 l 1,14,-1
 40 0 l 1,15,-1
 40 8 l 1,16,-1
 122 16 l 1,0,-1
290 312 m 2,17,18
 371 312 371 312 408 358 c 128,-1,19
 445 404 445 404 445 504 c 0,20,21
 445 541 445 541 438.5 572.5 c 128,-1,22
 432 604 432 604 414.5 627.5 c 128,-1,23
 397 651 397 651 367 664.5 c 128,-1,24
 337 678 337 678 290 678 c 2,25,-1
 199 678 l 1,26,-1
 199 312 l 1,27,-1
 290 312 l 2,17,18
EndSplineSet
EndChar
StartChar: Q
Encoding: 81 81 51
Width: 734
Flags: W
LayerCount: 2
Back
Fore
SplineSet
367 706 m 256,0,1
 433 706 433 706 490.5 678 c 128,-1,2
 548 650 548 650 590.5 601.5 c 128,-1,3
 633 553 633 553 657.5 487 c 128,-1,4
 682 421 682 421 682 345 c 0,5,6
 682 276 682 276 662 215 c 128,-1,7
 642 154 642 154 606 106.5 c 128,-1,8
 570 59 570 59 521 28 c 128,-1,9
 472 -3 472 -3 414 -12 c 1,10,11
 439 -22 439 -22 464.5 -35 c 128,-1,12
 490 -48 490 -48 514.5 -60 c 128,-1,13
 539 -72 539 -72 564 -80 c 128,-1,14
 589 -88 589 -88 613 -88 c 0,15,16
 648 -88 648 -88 664.5 -71 c 128,-1,17
 681 -54 681 -54 692 -30 c 1,18,-1
 702 -36 l 1,19,20
 692 -59 692 -59 676 -79.5 c 128,-1,21
 660 -100 660 -100 639.5 -115.5 c 128,-1,22
 619 -131 619 -131 595.5 -140 c 128,-1,23
 572 -149 572 -149 547 -149 c 0,24,25
 508 -149 508 -149 478.5 -130 c 128,-1,26
 449 -111 449 -111 429 -85 c 256,27,28
 409 -59 409 -59 383.5 -37.5 c 128,-1,29
 358 -16 358 -16 327 -16 c 0,30,31
 317 -16 317 -16 306 -18.5 c 128,-1,32
 295 -21 295 -21 286 -26 c 128,-1,33
 277 -31 277 -31 271 -38.5 c 128,-1,34
 265 -46 265 -46 265 -55 c 0,35,36
 265 -66 265 -66 271.5 -79.5 c 128,-1,37
 278 -93 278 -93 278 -108 c 0,38,39
 278 -125 278 -125 266 -137.5 c 128,-1,40
 254 -150 254 -150 236 -150 c 0,41,42
 219 -150 219 -150 208 -138 c 128,-1,43
 197 -126 197 -126 197 -106 c 0,44,45
 197 -73 197 -73 227 -48.5 c 128,-1,46
 257 -24 257 -24 299 -8 c 1,47,48
 245 5 245 5 200 37 c 128,-1,49
 155 69 155 69 122 115.5 c 128,-1,50
 89 162 89 162 70.5 220.5 c 128,-1,51
 52 279 52 279 52 345 c 0,52,53
 52 421 52 421 76.5 487 c 128,-1,54
 101 553 101 553 143.5 601.5 c 128,-1,55
 186 650 186 650 243.5 678 c 128,-1,56
 301 706 301 706 367 706 c 256,0,1
148 345 m 256,57,58
 148 177 148 177 204.5 86.5 c 128,-1,59
 261 -4 261 -4 367 -4 c 256,60,61
 473 -4 473 -4 529.5 86.5 c 128,-1,62
 586 177 586 177 586 345 c 256,63,64
 586 513 586 513 529.5 603.5 c 128,-1,65
 473 694 473 694 367 694 c 256,66,67
 261 694 261 694 204.5 603.5 c 128,-1,68
 148 513 148 513 148 345 c 256,57,58
EndSplineSet
EndChar
StartChar: R
Encoding: 82 82 52
Width: 614
Flags: W
LayerCount: 2
Back
Fore
SplineSet
122 16 m 1,0,-1
 122 674 l 1,1,-1
 40 682 l 1,2,-1
 40 690 l 1,3,-1
 293 690 l 2,4,5
 411 690 411 690 473 643 c 128,-1,6
 535 596 535 596 535 505 c 0,7,8
 535 435 535 435 497.5 390 c 128,-1,9
 460 345 460 345 388 328 c 1,10,-1
 571 42 l 2,11,12
 584 22 584 22 596.5 15 c 128,-1,13
 609 8 609 8 633 8 c 2,14,-1
 647 8 l 1,15,-1
 647 0 l 1,16,-1
 544 0 l 2,17,18
 520 0 520 0 508 7 c 128,-1,19
 496 14 496 14 483 34 c 2,20,-1
 330 281 l 2,21,22
 323 292 323 292 318 299 c 128,-1,23
 313 306 313 306 307 309.5 c 128,-1,24
 301 313 301 313 293 314 c 128,-1,25
 285 315 285 315 273 315 c 2,26,-1
 199 315 l 1,27,-1
 199 16 l 1,28,-1
 286 8 l 1,29,-1
 286 0 l 1,30,-1
 40 0 l 1,31,-1
 40 8 l 1,32,-1
 122 16 l 1,0,-1
290 330 m 2,33,34
 371 330 371 330 409 372.5 c 128,-1,35
 447 415 447 415 447 503 c 0,36,37
 447 678 447 678 290 678 c 2,38,-1
 199 678 l 1,39,-1
 199 330 l 1,40,-1
 290 330 l 2,33,34
EndSplineSet
EndChar
StartChar: S
Encoding: 83 83 53
Width: 551
Flags: W
LayerCount: 2
Back
Fore
SplineSet
276 -16 m 256,0,1
 229 -16 229 -16 185.5 -1.5 c 128,-1,2
 142 13 142 13 110 39 c 1,3,-1
 89 -16 l 1,4,-1
 76 -16 l 1,5,-1
 63 223 l 1,6,-1
 72 225 l 1,7,8
 79 191 79 191 86.5 165 c 128,-1,9
 94 139 94 139 102.5 119 c 128,-1,10
 111 99 111 99 121 83 c 128,-1,11
 131 67 131 67 143 53 c 0,12,13
 194 -4 194 -4 278 -4 c 0,14,15
 351 -4 351 -4 391 33.5 c 128,-1,16
 431 71 431 71 431 135 c 0,17,18
 431 171 431 171 418 196.5 c 128,-1,19
 405 222 405 222 381 242 c 128,-1,20
 357 262 357 262 323 279.5 c 128,-1,21
 289 297 289 297 247 315 c 0,22,23
 214 329 214 329 182 346 c 128,-1,24
 150 363 150 363 125 386 c 128,-1,25
 100 409 100 409 84.5 440.5 c 128,-1,26
 69 472 69 472 69 515 c 0,27,28
 69 557 69 557 84.5 592 c 128,-1,29
 100 627 100 627 127 652.5 c 128,-1,30
 154 678 154 678 191.5 692 c 128,-1,31
 229 706 229 706 274 706 c 0,32,33
 315 706 315 706 350 692 c 128,-1,34
 385 678 385 678 427 646 c 1,35,-1
 451 694 l 1,36,-1
 464 694 l 1,37,-1
 474 476 l 1,38,-1
 464 473 l 1,39,40
 455 510 455 510 444.5 539.5 c 128,-1,41
 434 569 434 569 423 591 c 0,42,43
 400 639 400 639 362 666.5 c 128,-1,44
 324 694 324 694 270 694 c 0,45,46
 207 694 207 694 170.5 658.5 c 128,-1,47
 134 623 134 623 134 562 c 0,48,49
 134 528 134 528 146 503 c 128,-1,50
 158 478 158 478 181.5 458 c 128,-1,51
 205 438 205 438 238.5 420 c 128,-1,52
 272 402 272 402 315 383 c 0,53,54
 352 366 352 366 384.5 348.5 c 128,-1,55
 417 331 417 331 441 308.5 c 128,-1,56
 465 286 465 286 479 256 c 128,-1,57
 493 226 493 226 493 185 c 0,58,59
 493 141 493 141 477 104 c 128,-1,60
 461 67 461 67 432 40.5 c 128,-1,61
 403 14 403 14 363 -1 c 128,-1,62
 323 -16 323 -16 276 -16 c 256,0,1
EndSplineSet
EndChar
StartChar: T
Encoding: 84 84 54
Width: 665
Flags: W
LayerCount: 2
Back
Fore
SplineSet
157 679 m 2,0,1
 133 679 133 679 122 671.5 c 128,-1,2
 111 664 111 664 101 641 c 2,3,-1
 32 487 l 1,4,-1
 24 489 l 1,5,-1
 63 706 l 1,6,-1
 69 706 l 1,7,8
 91 696 91 696 106.5 693 c 128,-1,9
 122 690 122 690 146 690 c 2,10,-1
 531 690 l 2,11,12
 543 690 543 690 552.5 690.5 c 128,-1,13
 562 691 562 691 570.5 693 c 128,-1,14
 579 695 579 695 588 698 c 128,-1,15
 597 701 597 701 608 706 c 1,16,-1
 614 706 l 1,17,-1
 636 489 l 1,18,-1
 628 487 l 1,19,-1
 566 641 l 2,20,21
 557 664 557 664 546.5 671.5 c 128,-1,22
 536 679 536 679 512 679 c 2,23,-1
 366 679 l 1,24,-1
 366 16 l 1,25,-1
 474 8 l 1,26,-1
 474 0 l 1,27,-1
 181 0 l 1,28,-1
 181 8 l 1,29,-1
 289 16 l 1,30,-1
 289 679 l 1,31,-1
 157 679 l 2,0,1
EndSplineSet
Substitution2: "Single Substitution lookup 11 subtable" T.short
EndChar
StartChar: U
Encoding: 85 85 55
Width: 665
Flags: W
LayerCount: 2
Back
Fore
SplineSet
536 629 m 2,0,1
 536 653 536 653 530 662 c 128,-1,2
 524 671 524 671 506 674 c 2,3,-1
 435 682 l 1,4,-1
 435 690 l 1,5,-1
 654 690 l 1,6,-1
 654 682 l 1,7,-1
 582 674 l 2,8,9
 564 671 564 671 558 662 c 128,-1,10
 552 653 552 653 552 629 c 2,11,-1
 552 245 l 2,12,13
 552 182 552 182 542.5 140 c 128,-1,14
 533 98 533 98 513 68 c 0,15,16
 486 29 486 29 439 6.5 c 128,-1,17
 392 -16 392 -16 335 -16 c 0,18,19
 289 -16 289 -16 244 -1 c 128,-1,20
 199 14 199 14 169 40 c 0,21,22
 138 67 138 67 125 109 c 128,-1,23
 112 151 112 151 112 225 c 2,24,-1
 112 674 l 1,25,-1
 30 682 l 1,26,-1
 30 690 l 1,27,-1
 276 690 l 1,28,-1
 276 682 l 1,29,-1
 189 674 l 1,30,-1
 189 192 l 2,31,32
 189 119 189 119 202.5 80 c 128,-1,33
 216 41 216 41 248 22 c 0,34,35
 265 11 265 11 290 5.5 c 128,-1,36
 315 0 315 0 342 0 c 0,37,38
 393 0 393 0 434 20 c 128,-1,39
 475 40 475 40 501 77 c 0,40,41
 520 105 520 105 528 142 c 128,-1,42
 536 179 536 179 536 240 c 2,43,-1
 536 629 l 2,0,1
EndSplineSet
EndChar
StartChar: V
Encoding: 86 86 56
Width: 658
Flags: W
LayerCount: 2
Back
Fore
SplineSet
480 682 m 1,0,-1
 480 690 l 1,1,-1
 693 690 l 1,2,-1
 693 682 l 1,3,-1
 637 677 l 2,4,5
 611 675 611 675 601 667.5 c 128,-1,6
 591 660 591 660 583 637 c 2,7,-1
 338 -16 l 1,8,-1
 320 -16 l 1,9,-1
 67 674 l 1,10,-1
 -15 682 l 1,11,-1
 -15 690 l 1,12,-1
 235 690 l 1,13,-1
 235 682 l 1,14,-1
 148 674 l 1,15,-1
 360 95 l 1,16,-1
 364 95 l 1,17,-1
 567 637 l 2,18,19
 570 645 570 645 570.5 648.5 c 128,-1,20
 571 652 571 652 571 656 c 0,21,22
 571 666 571 666 564.5 670.5 c 128,-1,23
 558 675 558 675 541 677 c 2,24,-1
 480 682 l 1,0,-1
EndSplineSet
EndChar
StartChar: W
Encoding: 87 87 57
Width: 945
Flags: W
LayerCount: 2
Back
Fore
SplineSet
758 682 m 1,0,-1
 758 690 l 1,1,-1
 971 690 l 1,2,-1
 971 682 l 1,3,-1
 915 677 l 2,4,5
 888 675 888 675 878 667 c 128,-1,6
 868 659 868 659 861 637 c 2,7,-1
 662 -16 l 1,8,-1
 646 -16 l 1,9,-1
 470 481 l 1,10,-1
 319 -16 l 1,11,-1
 303 -16 l 1,12,-1
 60 674 l 1,13,-1
 -22 682 l 1,14,-1
 -22 690 l 1,15,-1
 228 690 l 1,16,-1
 228 682 l 1,17,-1
 141 674 l 1,18,-1
 338 112 l 1,19,-1
 342 112 l 1,20,-1
 462 506 l 1,21,-1
 403 674 l 1,22,-1
 321 682 l 1,23,-1
 321 690 l 1,24,-1
 571 690 l 1,25,-1
 571 682 l 1,26,-1
 484 674 l 1,27,-1
 681 112 l 1,28,-1
 685 112 l 1,29,-1
 845 637 l 2,30,31
 848 647 848 647 848 656 c 0,32,33
 848 667 848 667 842 671 c 128,-1,34
 836 675 836 675 819 677 c 2,35,-1
 758 682 l 1,0,-1
EndSplineSet
EndChar
StartChar: X
Encoding: 88 88 58
Width: 715
Flags: W
LayerCount: 2
Back
Fore
SplineSet
500 682 m 1,0,-1
 500 690 l 1,1,-1
 704 690 l 1,2,-1
 704 682 l 1,3,-1
 653 678 l 2,4,5
 629 676 629 676 616 669 c 128,-1,6
 603 662 603 662 589 642 c 2,7,-1
 388 370 l 1,8,-1
 632 16 l 1,9,-1
 714 8 l 1,10,-1
 714 0 l 1,11,-1
 459 0 l 1,12,-1
 459 8 l 1,13,-1
 546 16 l 1,14,-1
 335 322 l 1,15,-1
 132 48 l 2,16,17
 120 31 120 31 120 25 c 0,18,19
 120 16 120 16 148 13 c 2,20,-1
 205 8 l 1,21,-1
 205 0 l 1,22,-1
 1 0 l 1,23,-1
 1 8 l 1,24,-1
 52 12 l 2,25,26
 76 14 76 14 89 21 c 128,-1,27
 102 28 102 28 116 48 c 2,28,-1
 327 333 l 1,29,-1
 93 674 l 1,30,-1
 11 682 l 1,31,-1
 11 690 l 1,32,-1
 266 690 l 1,33,-1
 266 682 l 1,34,-1
 179 674 l 1,35,-1
 380 381 l 1,36,-1
 573 642 l 2,37,38
 585 658 585 658 585 665 c 0,39,40
 585 674 585 674 557 677 c 2,41,-1
 500 682 l 1,0,-1
EndSplineSet
EndChar
StartChar: Y
Encoding: 89 89 59
Width: 612
Flags: W
LayerCount: 2
Back
Fore
SplineSet
421 682 m 1,0,-1
 421 690 l 1,1,-1
 634 690 l 1,2,-1
 634 682 l 1,3,-1
 578 677 l 2,4,5
 565 676 565 676 557 673.5 c 128,-1,6
 549 671 549 671 543.5 666.5 c 128,-1,7
 538 662 538 662 533.5 655 c 128,-1,8
 529 648 529 648 524 637 c 2,9,-1
 350 273 l 1,10,-1
 350 16 l 1,11,-1
 437 8 l 1,12,-1
 437 0 l 1,13,-1
 186 0 l 1,14,-1
 186 8 l 1,15,-1
 273 16 l 1,16,-1
 273 269 l 1,17,-1
 56 674 l 1,18,-1
 -26 682 l 1,19,-1
 -26 690 l 1,20,-1
 223 690 l 1,21,-1
 223 682 l 1,22,-1
 136 674 l 1,23,-1
 339 295 l 1,24,-1
 344 295 l 1,25,-1
 508 637 l 2,26,27
 511 644 511 644 511.5 648 c 128,-1,28
 512 652 512 652 512 656 c 0,29,30
 512 666 512 666 505.5 670.5 c 128,-1,31
 499 675 499 675 482 677 c 2,32,-1
 421 682 l 1,0,-1
EndSplineSet
EndChar
StartChar: Z
Encoding: 90 90 60
Width: 587
Flags: W
LayerCount: 2
Back
Fore
SplineSet
444 678 m 1,0,-1
 203 678 l 2,1,2
 179 678 179 678 167.5 671 c 128,-1,3
 156 664 156 664 145 642 c 2,4,-1
 69 491 l 1,5,-1
 55 493 l 1,6,-1
 96 690 l 1,7,-1
 534 690 l 1,8,-1
 534 682 l 1,9,-1
 125 16 l 1,10,-1
 125 12 l 1,11,-1
 399 12 l 2,12,13
 423 12 423 12 434 19 c 128,-1,14
 445 26 445 26 455 49 c 2,15,-1
 527 217 l 1,16,-1
 541 215 l 1,17,-1
 504 0 l 1,18,-1
 35 0 l 1,19,-1
 35 8 l 1,20,-1
 444 674 l 1,21,-1
 444 678 l 1,0,-1
EndSplineSet
EndChar
StartChar: bracketleft
Encoding: 91 91 61
Width: 306
Flags: W
LayerCount: 2
Back
Fore
SplineSet
92 -167 m 1,0,-1
 92 734 l 1,1,-1
 281 734 l 1,2,-1
 281 718 l 1,3,-1
 158 718 l 1,4,-1
 158 -151 l 1,5,-1
 281 -151 l 1,6,-1
 281 -167 l 1,7,-1
 92 -167 l 1,0,-1
EndSplineSet
EndChar
StartChar: backslash
Encoding: 92 92 62
Width: 325
Flags: W
LayerCount: 2
Back
Fore
SplineSet
69 690 m 1,0,-1
 279 0 l 1,1,-1
 256 0 l 1,2,-1
 46 690 l 1,3,-1
 69 690 l 1,0,-1
EndSplineSet
EndChar
StartChar: bracketright
Encoding: 93 93 63
Width: 306
Flags: W
LayerCount: 2
Back
Fore
SplineSet
25 -167 m 1,0,-1
 25 -151 l 1,1,-1
 148 -151 l 1,2,-1
 148 718 l 1,3,-1
 25 718 l 1,4,-1
 25 734 l 1,5,-1
 214 734 l 1,6,-1
 214 -167 l 1,7,-1
 25 -167 l 1,0,-1
EndSplineSet
EndChar
StartChar: asciicircum
Encoding: 94 94 64
Width: 364
Flags: W
LayerCount: 2
Back
Fore
SplineSet
298 189 m 1,0,-1
 295 188 l 1,1,-1
 182 334 l 1,2,-1
 69 188 l 1,3,-1
 66 189 l 1,4,-1
 151 375 l 2,5,6
 160 396 160 396 182 396 c 0,7,8
 195 396 195 396 201.5 390 c 128,-1,9
 208 384 208 384 213 375 c 2,10,-1
 298 189 l 1,0,-1
EndSplineSet
EndChar
StartChar: underscore
Encoding: 95 95 65
Width: 396
Flags: W
LayerCount: 2
Back
Fore
SplineSet
59 -15 m 1,0,-1
 339 -15 l 1,1,-1
 332 -37 l 1,2,-1
 52 -37 l 1,3,-1
 59 -15 l 1,0,-1
EndSplineSet
EndChar
StartChar: grave
Encoding: 96 96 66
Width: 194
Flags: W
LayerCount: 2
Back
Fore
SplineSet
149 524 m 1,0,-1
 146 523 l 1,1,-1
 81 605 l 2,2,3
 61 630 61 630 53 640 c 128,-1,4
 45 650 45 650 45 660 c 0,5,6
 45 673 45 673 52 682 c 128,-1,7
 59 691 59 691 73 691 c 0,8,9
 97 691 97 691 104 670 c 2,10,-1
 149 524 l 1,0,-1
EndSplineSet
EndChar
StartChar: a
Encoding: 97 97 67
Width: 391
Flags: W
LayerCount: 2
Back
Fore
SplineSet
130 -7 m 0,0,1
 92 -7 92 -7 67.5 19.5 c 128,-1,2
 43 46 43 46 43 88 c 0,3,4
 43 113 43 113 53.5 132.5 c 128,-1,5
 64 152 64 152 88 168 c 128,-1,6
 112 184 112 184 150 196.5 c 128,-1,7
 188 209 188 209 243 220 c 1,8,-1
 243 311 l 2,9,10
 243 369 243 369 230 391.5 c 128,-1,11
 217 414 217 414 185 414 c 0,12,13
 154 414 154 414 135 397.5 c 128,-1,14
 116 381 116 381 116 353 c 0,15,16
 116 348 116 348 116.5 340.5 c 128,-1,17
 117 333 117 333 117 326 c 0,18,19
 117 300 117 300 107.5 286 c 128,-1,20
 98 272 98 272 81 272 c 0,21,22
 66 272 66 272 56.5 282 c 128,-1,23
 47 292 47 292 47 308 c 0,24,25
 47 332 47 332 70.5 360 c 128,-1,26
 94 388 94 388 131 408 c 0,27,28
 153 420 153 420 177 426.5 c 128,-1,29
 201 433 201 433 224 433 c 0,30,31
 281 433 281 433 300 391 c 0,32,33
 303 384 303 384 304.5 377 c 128,-1,34
 306 370 306 370 306.5 358.5 c 128,-1,35
 307 347 307 347 307.5 330 c 128,-1,36
 308 313 308 313 308 286 c 2,37,-1
 308 95 l 2,38,39
 308 59 308 59 315 45.5 c 128,-1,40
 322 32 322 32 340 32 c 0,41,42
 367 32 367 32 380 51 c 1,43,-1
 384 49 l 1,44,45
 372 24 372 24 352 10.5 c 128,-1,46
 332 -3 332 -3 309 -3 c 0,47,48
 283 -3 283 -3 266 12.5 c 128,-1,49
 249 28 249 28 247 54 c 1,50,-1
 244 55 l 1,51,52
 221 26 221 26 191 9.5 c 128,-1,53
 161 -7 161 -7 130 -7 c 0,0,1
173 31 m 0,54,55
 193 31 193 31 212 40.5 c 128,-1,56
 231 50 231 50 243 68 c 1,57,-1
 243 209 l 1,58,59
 205 200 205 200 179.5 190.5 c 128,-1,60
 154 181 154 181 138.5 169 c 128,-1,61
 123 157 123 157 116.5 142 c 128,-1,62
 110 127 110 127 110 107 c 0,63,64
 110 72 110 72 127 51.5 c 128,-1,65
 144 31 144 31 173 31 c 0,54,55
EndSplineSet
Substitution2: "Single Substitution lookup 11 subtable" ordfeminine
EndChar
StartChar: b
Encoding: 98 98 68
Width: 467
Flags: W
LayerCount: 2
Back
Fore
SplineSet
226 -10 m 0,0,1
 163 -10 163 -10 114 27 c 1,2,-1
 110 27 l 1,3,-1
 80 0 l 1,4,-1
 72 0 l 1,5,-1
 72 653 l 1,6,-1
 13 675 l 1,7,-1
 13 682 l 1,8,-1
 129 721 l 1,9,-1
 137 721 l 1,10,-1
 137 377 l 1,11,12
 189 434 189 434 260 434 c 0,13,14
 297 434 297 434 328 419 c 128,-1,15
 359 404 359 404 381 377 c 128,-1,16
 403 350 403 350 415 312 c 128,-1,17
 427 274 427 274 427 228 c 0,18,19
 427 177 427 177 412 133 c 128,-1,20
 397 89 397 89 370 57.5 c 128,-1,21
 343 26 343 26 306 8 c 128,-1,22
 269 -10 269 -10 226 -10 c 0,0,1
225 0 m 0,23,24
 283 0 283 0 317.5 56.5 c 128,-1,25
 352 113 352 113 352 207 c 0,26,27
 352 299 352 299 318.5 351.5 c 128,-1,28
 285 404 285 404 226 404 c 0,29,30
 199 404 199 404 175.5 393 c 128,-1,31
 152 382 152 382 137 362 c 1,32,-1
 137 101 l 2,33,34
 137 55 137 55 161 27.5 c 128,-1,35
 185 0 185 0 225 0 c 0,23,24
EndSplineSet
EndChar
StartChar: c
Encoding: 99 99 69
Width: 406
Flags: W
LayerCount: 2
Back
Fore
SplineSet
238 434 m 0,0,1
 266 434 266 434 290 427.5 c 128,-1,2
 314 421 314 421 332 409 c 128,-1,3
 350 397 350 397 360.5 381 c 128,-1,4
 371 365 371 365 371 347 c 0,5,6
 371 330 371 330 361 319.5 c 128,-1,7
 351 309 351 309 334 309 c 0,8,9
 310 309 310 309 303 327 c 128,-1,10
 296 345 296 345 291.5 366.5 c 128,-1,11
 287 388 287 388 276 406 c 128,-1,12
 265 424 265 424 234 424 c 0,13,14
 207 424 207 424 183.5 409 c 128,-1,15
 160 394 160 394 143 367 c 128,-1,16
 126 340 126 340 116.5 303 c 128,-1,17
 107 266 107 266 107 222 c 0,18,19
 107 134 107 134 144 86.5 c 128,-1,20
 181 39 181 39 249 39 c 0,21,22
 322 39 322 39 370 102 c 2,23,-1
 379 114 l 1,24,-1
 383 112 l 1,25,-1
 379 101 l 2,26,27
 359 48 359 48 318.5 19 c 128,-1,28
 278 -10 278 -10 223 -10 c 0,29,30
 183 -10 183 -10 149.5 6 c 128,-1,31
 116 22 116 22 91.5 51 c 128,-1,32
 67 80 67 80 53.5 119.5 c 128,-1,33
 40 159 40 159 40 207 c 0,34,35
 40 256 40 256 54.5 298 c 128,-1,36
 69 340 69 340 95.5 370 c 128,-1,37
 122 400 122 400 158 417 c 128,-1,38
 194 434 194 434 238 434 c 0,0,1
EndSplineSet
EndChar
StartChar: d
Encoding: 100 100 70
Width: 472
Flags: W
LayerCount: 2
Back
Fore
SplineSet
206 -10 m 0,0,1
 170 -10 170 -10 140 6 c 128,-1,2
 110 22 110 22 87.5 50.5 c 128,-1,3
 65 79 65 79 52.5 118.5 c 128,-1,4
 40 158 40 158 40 204 c 0,5,6
 40 255 40 255 55.5 297.5 c 128,-1,7
 71 340 71 340 99 370 c 128,-1,8
 127 400 127 400 166 417 c 128,-1,9
 205 434 205 434 252 434 c 0,10,11
 291 434 291 434 330 422 c 1,12,-1
 330 653 l 1,13,-1
 271 675 l 1,14,-1
 271 682 l 1,15,-1
 387 721 l 1,16,-1
 395 721 l 1,17,-1
 395 62 l 1,18,-1
 450 50 l 1,19,-1
 450 45 l 1,20,-1
 341 -5 l 1,21,-1
 335 -5 l 1,22,-1
 335 63 l 1,23,-1
 332 64 l 1,24,25
 284 -10 284 -10 206 -10 c 0,0,1
241 30 m 0,26,27
 270 30 270 30 293.5 42 c 128,-1,28
 317 54 317 54 330 77 c 1,29,-1
 330 333 l 2,30,31
 330 424 330 424 251 424 c 0,32,33
 219 424 219 424 193 409 c 128,-1,34
 167 394 167 394 149 367 c 128,-1,35
 131 340 131 340 121 302 c 128,-1,36
 111 264 111 264 111 218 c 0,37,38
 111 130 111 130 145 80 c 128,-1,39
 179 30 179 30 241 30 c 0,26,27
EndSplineSet
EndChar
StartChar: e
Encoding: 101 101 71
Width: 423
Flags: W
LayerCount: 2
Back
Fore
SplineSet
381 267 m 1,0,-1
 111 267 l 1,1,2
 109 257 109 257 109 247 c 128,-1,3
 109 237 109 237 109 226 c 0,4,5
 109 132 109 132 146 86 c 128,-1,6
 183 40 183 40 249 40 c 0,7,8
 282 40 282 40 313.5 55 c 128,-1,9
 345 70 345 70 370 102 c 2,10,-1
 379 114 l 1,11,-1
 383 112 l 1,12,-1
 379 101 l 2,13,14
 359 47 359 47 319.5 18.5 c 128,-1,15
 280 -10 280 -10 225 -10 c 0,16,17
 184 -10 184 -10 150 6 c 128,-1,18
 116 22 116 22 91.5 51.5 c 128,-1,19
 67 81 67 81 53.5 121.5 c 128,-1,20
 40 162 40 162 40 211 c 256,21,22
 40 260 40 260 54.5 301.5 c 128,-1,23
 69 343 69 343 95.5 372 c 128,-1,24
 122 401 122 401 159 417.5 c 128,-1,25
 196 434 196 434 241 434 c 0,26,27
 311 434 311 434 348 393 c 128,-1,28
 385 352 385 352 387 272 c 1,29,-1
 381 267 l 1,0,-1
230 423 m 0,30,31
 182 423 182 423 151.5 383.5 c 128,-1,32
 121 344 121 344 112 278 c 1,33,-1
 306 285 l 1,34,35
 308 291 308 291 308.5 302.5 c 128,-1,36
 309 314 309 314 309 325 c 0,37,38
 309 382 309 382 287 402.5 c 128,-1,39
 265 423 265 423 230 423 c 0,30,31
EndSplineSet
EndChar
StartChar: f
Encoding: 102 102 72
Width: 263
Flags: W
LayerCount: 2
Back
Fore
SplineSet
23 424 m 1,0,-1
 85 424 l 1,1,-1
 85 482 l 2,2,3
 85 518 85 518 85.5 542.5 c 128,-1,4
 86 567 86 567 87.5 583.5 c 128,-1,5
 89 600 89 600 91 611 c 128,-1,6
 93 622 93 622 97 632 c 0,7,8
 114 677 114 677 156 705 c 128,-1,9
 198 733 198 733 247 733 c 0,10,11
 286 733 286 733 315 715.5 c 128,-1,12
 344 698 344 698 344 674 c 0,13,14
 344 659 344 659 333 648.5 c 128,-1,15
 322 638 322 638 307 638 c 0,16,17
 275 638 275 638 268 679 c 0,18,19
 262 704 262 704 254.5 712 c 128,-1,20
 247 720 247 720 230 720 c 0,21,22
 185 720 185 720 164 668 c 0,23,24
 160 657 160 657 157 645.5 c 128,-1,25
 154 634 154 634 152.5 619 c 128,-1,26
 151 604 151 604 150.5 584 c 128,-1,27
 150 564 150 564 150 537 c 2,28,-1
 150 424 l 1,29,-1
 243 424 l 1,30,-1
 238 408 l 1,31,-1
 150 408 l 1,32,-1
 150 18 l 1,33,-1
 237 8 l 1,34,-1
 237 0 l 1,35,-1
 24 0 l 1,36,-1
 24 8 l 1,37,-1
 85 16 l 1,38,-1
 85 408 l 1,39,-1
 18 408 l 1,40,-1
 23 424 l 1,0,-1
EndSplineSet
EndChar
StartChar: g
Encoding: 103 103 73
Width: 403
Flags: W
LayerCount: 2
Back
Fore
SplineSet
185 -246 m 0,0,1
 102 -246 102 -246 56.5 -217 c 128,-1,2
 11 -188 11 -188 11 -134 c 0,3,4
 11 -96 11 -96 40 -65.5 c 128,-1,5
 69 -35 69 -35 120 -18 c 1,6,7
 82 -4 82 -4 68 14 c 128,-1,8
 54 32 54 32 54 55 c 0,9,10
 54 83 54 83 87 106 c 128,-1,11
 120 129 120 129 184 143 c 1,12,13
 153 146 153 146 127.5 158 c 128,-1,14
 102 170 102 170 83.5 189 c 128,-1,15
 65 208 65 208 55 233.5 c 128,-1,16
 45 259 45 259 45 289 c 0,17,18
 45 321 45 321 57 347.5 c 128,-1,19
 69 374 69 374 90 393.5 c 128,-1,20
 111 413 111 413 140 423.5 c 128,-1,21
 169 434 169 434 204 434 c 0,22,23
 260 434 260 434 300 406 c 1,24,25
 324 493 324 493 378 493 c 0,26,27
 397 493 397 493 408 482.5 c 128,-1,28
 419 472 419 472 419 455 c 0,29,30
 419 441 419 441 409 431 c 128,-1,31
 399 421 399 421 385 421 c 0,32,33
 377 421 377 421 371.5 424 c 128,-1,34
 366 427 366 427 360.5 431 c 128,-1,35
 355 435 355 435 349.5 438 c 128,-1,36
 344 441 344 441 338 441 c 0,37,38
 318 441 318 441 309 400 c 1,39,40
 335 380 335 380 349 351.5 c 128,-1,41
 363 323 363 323 363 288 c 0,42,43
 363 258 363 258 352.5 232 c 128,-1,44
 342 206 342 206 322.5 186.5 c 128,-1,45
 303 167 303 167 276 155.5 c 128,-1,46
 249 144 249 144 216 142 c 0,47,48
 165 134 165 134 138 118 c 128,-1,49
 111 102 111 102 111 82 c 0,50,51
 111 72 111 72 115 64 c 128,-1,52
 119 56 119 56 132 49.5 c 128,-1,53
 145 43 145 43 168 36.5 c 128,-1,54
 191 30 191 30 229 23 c 0,55,56
 315 7 315 7 350.5 -22 c 128,-1,57
 386 -51 386 -51 386 -104 c 0,58,59
 386 -134 386 -134 371 -160 c 128,-1,60
 356 -186 356 -186 329 -205 c 128,-1,61
 302 -224 302 -224 265 -235 c 128,-1,62
 228 -246 228 -246 185 -246 c 0,0,1
199 -40 m 0,63,64
 159 -31 159 -31 129 -22 c 1,65,66
 59 -47 59 -47 59 -125 c 0,67,68
 59 -179 59 -179 93.5 -207.5 c 128,-1,69
 128 -236 128 -236 191 -236 c 256,70,71
 254 -236 254 -236 291 -208.5 c 128,-1,72
 328 -181 328 -181 328 -134 c 0,73,74
 328 -115 328 -115 322 -101 c 128,-1,75
 316 -87 316 -87 301.5 -76 c 128,-1,76
 287 -65 287 -65 262 -56.5 c 128,-1,77
 237 -48 237 -48 199 -40 c 0,63,64
204 152 m 256,78,79
 242 152 242 152 265.5 190 c 128,-1,80
 289 228 289 228 289 288 c 256,81,82
 289 348 289 348 265.5 386 c 128,-1,83
 242 424 242 424 204 424 c 256,84,85
 166 424 166 424 142.5 386 c 128,-1,86
 119 348 119 348 119 288 c 256,87,88
 119 228 119 228 142.5 190 c 128,-1,89
 166 152 166 152 204 152 c 256,78,79
EndSplineSet
EndChar
StartChar: h
Encoding: 104 104 74
Width: 453
Flags: W
LayerCount: 2
Back
Fore
SplineSet
205 8 m 1,0,-1
 205 0 l 1,1,-1
 18 0 l 1,2,-1
 18 8 l 1,3,-1
 79 16 l 1,4,-1
 79 653 l 1,5,-1
 20 675 l 1,6,-1
 20 682 l 1,7,-1
 136 721 l 1,8,-1
 144 721 l 1,9,-1
 144 369 l 1,10,11
 207 434 207 434 275 434 c 0,12,13
 305 434 305 434 329.5 421 c 128,-1,14
 354 408 354 408 366 385 c 0,15,16
 369 378 369 378 371.5 370 c 128,-1,17
 374 362 374 362 375 349.5 c 128,-1,18
 376 337 376 337 376.5 318 c 128,-1,19
 377 299 377 299 377 271 c 2,20,-1
 377 16 l 1,21,-1
 438 8 l 1,22,-1
 438 0 l 1,23,-1
 251 0 l 1,24,-1
 251 8 l 1,25,-1
 312 16 l 1,26,-1
 312 271 l 2,27,28
 312 312 312 312 310 330.5 c 128,-1,29
 308 349 308 349 302 361 c 0,30,31
 294 378 294 378 276 387.5 c 128,-1,32
 258 397 258 397 234 397 c 0,33,34
 182 397 182 397 144 354 c 1,35,-1
 144 16 l 1,36,-1
 205 8 l 1,0,-1
EndSplineSet
EndChar
StartChar: i
Encoding: 105 105 75
Width: 229
Flags: W
LayerCount: 2
Back
Fore
SplineSet
65 578 m 256,0,1
 65 598 65 598 78 612 c 128,-1,2
 91 626 91 626 113 626 c 256,3,4
 135 626 135 626 148 612 c 128,-1,5
 161 598 161 598 161 578 c 256,6,7
 161 558 161 558 148 544 c 128,-1,8
 135 530 135 530 113 530 c 256,9,10
 91 530 91 530 78 544 c 128,-1,11
 65 558 65 558 65 578 c 256,0,1
212 8 m 1,12,-1
 212 0 l 1,13,-1
 25 0 l 1,14,-1
 25 8 l 1,15,-1
 86 16 l 1,16,-1
 86 366 l 1,17,-1
 27 388 l 1,18,-1
 27 395 l 1,19,-1
 143 434 l 1,20,-1
 151 434 l 1,21,-1
 151 16 l 1,22,-1
 212 8 l 1,12,-1
EndSplineSet
EndChar
StartChar: j
Encoding: 106 106 76
Width: 218
Flags: W
LayerCount: 2
Back
Fore
SplineSet
60 578 m 256,0,1
 60 599 60 599 73.5 612.5 c 128,-1,2
 87 626 87 626 108 626 c 256,3,4
 129 626 129 626 142.5 612.5 c 128,-1,5
 156 599 156 599 156 578 c 256,6,7
 156 557 156 557 142.5 543.5 c 128,-1,8
 129 530 129 530 108 530 c 256,9,10
 87 530 87 530 73.5 543.5 c 128,-1,11
 60 557 60 557 60 578 c 256,0,1
81 366 m 1,12,-1
 22 388 l 1,13,-1
 22 395 l 1,14,-1
 138 434 l 1,15,-1
 146 434 l 1,16,-1
 146 40 l 2,17,18
 146 -9 146 -9 145 -41 c 128,-1,19
 144 -73 144 -73 141.5 -95 c 128,-1,20
 139 -117 139 -117 134.5 -131 c 128,-1,21
 130 -145 130 -145 123 -158 c 0,22,23
 100 -200 100 -200 64.5 -223.5 c 128,-1,24
 29 -247 29 -247 -13 -247 c 0,25,26
 -48 -247 -48 -247 -69 -231 c 128,-1,27
 -90 -215 -90 -215 -90 -189 c 0,28,29
 -90 -171 -90 -171 -79.5 -160 c 128,-1,30
 -69 -149 -69 -149 -52 -149 c 0,31,32
 -23 -149 -23 -149 -13 -188 c 0,33,34
 -8 -211 -8 -211 0 -219.5 c 128,-1,35
 8 -228 8 -228 24 -228 c 0,36,37
 53 -228 53 -228 67 -197.5 c 128,-1,38
 81 -167 81 -167 81 -102 c 2,39,-1
 81 366 l 1,12,-1
EndSplineSet
EndChar
StartChar: k
Encoding: 107 107 77
Width: 457
Flags: W
LayerCount: 2
Back
Fore
SplineSet
204 8 m 1,0,-1
 204 0 l 1,1,-1
 18 0 l 1,2,-1
 18 8 l 1,3,-1
 79 16 l 1,4,-1
 79 653 l 1,5,-1
 20 675 l 1,6,-1
 20 682 l 1,7,-1
 136 721 l 1,8,-1
 144 721 l 1,9,-1
 144 189 l 1,10,-1
 286 360 l 2,11,12
 304 382 304 382 304 392 c 0,13,14
 304 401 304 401 291 406 c 128,-1,15
 278 411 278 411 242 416 c 1,16,-1
 242 424 l 1,17,-1
 411 424 l 1,18,-1
 411 416 l 1,19,20
 391 413 391 413 375.5 408.5 c 128,-1,21
 360 404 360 404 348 397.5 c 128,-1,22
 336 391 336 391 326 382.5 c 128,-1,23
 316 374 316 374 306 362 c 2,24,-1
 216 256 l 1,25,-1
 414 16 l 1,26,-1
 469 8 l 1,27,-1
 469 0 l 1,28,-1
 341 0 l 1,29,-1
 172 204 l 1,30,-1
 144 171 l 1,31,-1
 144 16 l 1,32,-1
 204 8 l 1,0,-1
EndSplineSet
EndChar
StartChar: l
Encoding: 108 108 78
Width: 223
Flags: W
LayerCount: 2
Back
Fore
SplineSet
205 8 m 1,0,-1
 205 0 l 1,1,-1
 18 0 l 1,2,-1
 18 8 l 1,3,-1
 79 16 l 1,4,-1
 79 653 l 1,5,-1
 20 675 l 1,6,-1
 20 682 l 1,7,-1
 136 721 l 1,8,-1
 144 721 l 1,9,-1
 144 16 l 1,10,-1
 205 8 l 1,0,-1
EndSplineSet
EndChar
StartChar: m
Encoding: 109 109 79
Width: 652
Flags: W
LayerCount: 2
Back
Fore
SplineSet
212 8 m 1,0,-1
 212 0 l 1,1,-1
 26 0 l 1,2,-1
 26 8 l 1,3,-1
 86 16 l 1,4,-1
 86 366 l 1,5,-1
 27 388 l 1,6,-1
 27 395 l 1,7,-1
 140 434 l 1,8,-1
 148 434 l 1,9,-1
 148 367 l 1,10,11
 207 434 207 434 271 434 c 0,12,13
 328 434 328 434 353 385 c 0,14,15
 358 376 358 376 359 365 c 1,16,17
 420 434 420 434 484 434 c 0,18,19
 541 434 541 434 566 385 c 0,20,21
 569 378 569 378 571.5 369.5 c 128,-1,22
 574 361 574 361 575 348 c 128,-1,23
 576 335 576 335 576.5 316.5 c 128,-1,24
 577 298 577 298 577 271 c 2,25,-1
 577 16 l 1,26,-1
 639 8 l 1,27,-1
 639 0 l 1,28,-1
 451 0 l 1,29,-1
 451 8 l 1,30,-1
 512 16 l 1,31,-1
 512 271 l 2,32,33
 512 310 512 310 510 329 c 128,-1,34
 508 348 508 348 503 361 c 0,35,36
 488 397 488 397 443 397 c 0,37,38
 396 397 396 397 361 353 c 1,39,40
 363 340 363 340 363.5 320.5 c 128,-1,41
 364 301 364 301 364 271 c 2,42,-1
 364 16 l 1,43,-1
 426 8 l 1,44,-1
 426 0 l 1,45,-1
 237 0 l 1,46,-1
 237 8 l 1,47,-1
 299 16 l 1,48,-1
 299 271 l 2,49,50
 299 310 299 310 297 329 c 128,-1,51
 295 348 295 348 290 361 c 0,52,53
 275 397 275 397 230 397 c 0,54,55
 184 397 184 397 151 356 c 1,56,-1
 151 16 l 1,57,-1
 212 8 l 1,0,-1
EndSplineSet
EndChar
StartChar: n
Encoding: 110 110 80
Width: 462
Flags: W
LayerCount: 2
Back
Fore
SplineSet
212 8 m 1,0,-1
 212 0 l 1,1,-1
 25 0 l 1,2,-1
 25 8 l 1,3,-1
 86 16 l 1,4,-1
 86 361 l 1,5,-1
 27 383 l 1,6,-1
 27 390 l 1,7,-1
 140 429 l 1,8,-1
 148 429 l 1,9,-1
 148 366 l 1,10,11
 213 434 213 434 282 434 c 0,12,13
 313 434 313 434 338.5 421 c 128,-1,14
 364 408 364 408 375 385 c 0,15,16
 378 378 378 378 380.5 370 c 128,-1,17
 383 362 383 362 384 349.5 c 128,-1,18
 385 337 385 337 385.5 318 c 128,-1,19
 386 299 386 299 386 271 c 2,20,-1
 386 16 l 1,21,-1
 446 8 l 1,22,-1
 446 0 l 1,23,-1
 260 0 l 1,24,-1
 260 8 l 1,25,-1
 321 16 l 1,26,-1
 321 271 l 2,27,28
 321 309 321 309 319 328.5 c 128,-1,29
 317 348 317 348 311 361 c 0,30,31
 303 378 303 378 284.5 387.5 c 128,-1,32
 266 397 266 397 242 397 c 0,33,34
 191 397 191 397 151 354 c 1,35,-1
 151 16 l 1,36,-1
 212 8 l 1,0,-1
EndSplineSet
EndChar
StartChar: o
Encoding: 111 111 81
Width: 476
Flags: W
LayerCount: 2
Back
Fore
SplineSet
238 434 m 256,0,1
 282 434 282 434 318.5 418 c 128,-1,2
 355 402 355 402 381 372.5 c 128,-1,3
 407 343 407 343 421.5 302 c 128,-1,4
 436 261 436 261 436 212 c 0,5,6
 436 162 436 162 421.5 121.5 c 128,-1,7
 407 81 407 81 381 51.5 c 128,-1,8
 355 22 355 22 318.5 6 c 128,-1,9
 282 -10 282 -10 238 -10 c 256,10,11
 194 -10 194 -10 157.5 6 c 128,-1,12
 121 22 121 22 95 51.5 c 128,-1,13
 69 81 69 81 54.5 121.5 c 128,-1,14
 40 162 40 162 40 212 c 0,15,16
 40 261 40 261 54.5 302 c 128,-1,17
 69 343 69 343 95 372.5 c 128,-1,18
 121 402 121 402 157.5 418 c 128,-1,19
 194 434 194 434 238 434 c 256,0,1
114 212 m 256,20,21
 114 112 114 112 146.5 56 c 128,-1,22
 179 0 179 0 238 0 c 0,23,24
 296 0 296 0 329 56 c 128,-1,25
 362 112 362 112 362 212 c 256,26,27
 362 312 362 312 329 368 c 128,-1,28
 296 424 296 424 238 424 c 0,29,30
 179 424 179 424 146.5 368 c 128,-1,31
 114 312 114 312 114 212 c 256,20,21
EndSplineSet
Substitution2: "Single Substitution lookup 11 subtable" ordmasculine
EndChar
StartChar: p
Encoding: 112 112 82
Width: 472
Flags: W
LayerCount: 2
Back
Fore
SplineSet
144 -216 m 1,0,-1
 234 -227 l 1,1,-1
 234 -234 l 1,2,-1
 18 -234 l 1,3,-1
 18 -226 l 1,4,-1
 79 -218 l 1,5,-1
 79 366 l 1,6,-1
 20 388 l 1,7,-1
 20 395 l 1,8,-1
 133 434 l 1,9,-1
 141 434 l 1,10,-1
 141 363 l 1,11,-1
 145 363 l 1,12,13
 167 396 167 396 201.5 415 c 128,-1,14
 236 434 236 434 275 434 c 0,15,16
 309 434 309 434 337.5 418.5 c 128,-1,17
 366 403 366 403 387 375 c 128,-1,18
 408 347 408 347 419.5 308.5 c 128,-1,19
 431 270 431 270 431 224 c 0,20,21
 431 173 431 173 416 130 c 128,-1,22
 401 87 401 87 373.5 56 c 128,-1,23
 346 25 346 25 308.5 7.5 c 128,-1,24
 271 -10 271 -10 226 -10 c 0,25,26
 184 -10 184 -10 144 8 c 1,27,-1
 144 -216 l 1,0,-1
233 0 m 0,28,29
 260 0 260 0 283 15.5 c 128,-1,30
 306 31 306 31 322.5 59 c 128,-1,31
 339 87 339 87 348.5 125.5 c 128,-1,32
 358 164 358 164 358 210 c 0,33,34
 358 299 358 299 325 351.5 c 128,-1,35
 292 404 292 404 237 404 c 0,36,37
 206 404 206 404 181 388 c 128,-1,38
 156 372 156 372 144 344 c 1,39,-1
 144 71 l 2,40,41
 144 57 144 57 151 44 c 128,-1,42
 158 31 158 31 170.5 21 c 128,-1,43
 183 11 183 11 199 5.5 c 128,-1,44
 215 0 215 0 233 0 c 0,28,29
EndSplineSet
EndChar
StartChar: q
Encoding: 113 113 83
Width: 467
Flags: W
LayerCount: 2
Back
Fore
SplineSet
330 -216 m 1,0,-1
 330 49 l 1,1,2
 280 -10 280 -10 207 -10 c 0,3,4
 170 -10 170 -10 139.5 5.5 c 128,-1,5
 109 21 109 21 87 48.5 c 128,-1,6
 65 76 65 76 52.5 114 c 128,-1,7
 40 152 40 152 40 198 c 0,8,9
 40 249 40 249 55.5 292 c 128,-1,10
 71 335 71 335 98 366.5 c 128,-1,11
 125 398 125 398 162 416 c 128,-1,12
 199 434 199 434 243 434 c 0,13,14
 303 434 303 434 353 397 c 1,15,-1
 357 397 l 1,16,-1
 384 424 l 1,17,-1
 395 424 l 1,18,-1
 395 -218 l 1,19,-1
 456 -226 l 1,20,-1
 456 -234 l 1,21,-1
 240 -234 l 1,22,-1
 240 -227 l 1,23,-1
 330 -216 l 1,0,-1
246 424 m 0,24,25
 216 424 216 424 191.5 409 c 128,-1,26
 167 394 167 394 150 367 c 128,-1,27
 133 340 133 340 123.5 301.5 c 128,-1,28
 114 263 114 263 114 216 c 0,29,30
 114 125 114 125 147.5 72.5 c 128,-1,31
 181 20 181 20 240 20 c 0,32,33
 266 20 266 20 290 31 c 128,-1,34
 314 42 314 42 330 62 c 1,35,-1
 330 323 l 2,36,37
 330 371 330 371 308 397.5 c 128,-1,38
 286 424 286 424 246 424 c 0,24,25
EndSplineSet
EndChar
StartChar: r
Encoding: 114 114 84
Width: 315
Flags: W
LayerCount: 2
Back
Fore
SplineSet
231 8 m 1,0,-1
 231 0 l 1,1,-1
 25 0 l 1,2,-1
 25 8 l 1,3,-1
 86 16 l 1,4,-1
 86 366 l 1,5,-1
 27 388 l 1,6,-1
 27 395 l 1,7,-1
 140 434 l 1,8,-1
 148 434 l 1,9,-1
 148 346 l 1,10,11
 203 434 203 434 253 434 c 0,12,13
 273 434 273 434 287 420.5 c 128,-1,14
 301 407 301 407 301 388 c 0,15,16
 301 371 301 371 290 360.5 c 128,-1,17
 279 350 279 350 263 350 c 0,18,19
 252 350 252 350 245.5 355.5 c 128,-1,20
 239 361 239 361 233.5 367 c 128,-1,21
 228 373 228 373 222 378.5 c 128,-1,22
 216 384 216 384 207 384 c 0,23,24
 191 384 191 384 174.5 365.5 c 128,-1,25
 158 347 158 347 151 321 c 1,26,-1
 151 16 l 1,27,-1
 231 8 l 1,0,-1
EndSplineSet
EndChar
StartChar: s
Encoding: 115 115 85
Width: 344
Flags: W
LayerCount: 2
Back
Fore
SplineSet
195 434 m 0,0,1
 220 434 220 434 244.5 430 c 128,-1,2
 269 426 269 426 285 420 c 1,3,-1
 285 309 l 1,4,-1
 274 309 l 1,5,6
 260 369 260 369 238.5 396 c 128,-1,7
 217 423 217 423 181 423 c 0,8,9
 148 423 148 423 128 403 c 128,-1,10
 108 383 108 383 108 348 c 0,11,12
 108 318 108 318 122.5 300 c 128,-1,13
 137 282 137 282 158.5 269.5 c 128,-1,14
 180 257 180 257 205 246.5 c 128,-1,15
 230 236 230 236 251.5 220.5 c 128,-1,16
 273 205 273 205 287.5 182 c 128,-1,17
 302 159 302 159 302 122 c 0,18,19
 302 61 302 61 263 25.5 c 128,-1,20
 224 -10 224 -10 158 -10 c 0,21,22
 133 -10 133 -10 103.5 -5 c 128,-1,23
 74 0 74 0 53 8 c 1,24,-1
 48 138 l 1,25,-1
 60 138 l 1,26,27
 81 1 81 1 162 1 c 0,28,29
 199 1 199 1 221 24.5 c 128,-1,30
 243 48 243 48 243 86 c 0,31,32
 243 117 243 117 228.5 136.5 c 128,-1,33
 214 156 214 156 192.5 169.5 c 128,-1,34
 171 183 171 183 145.5 194 c 128,-1,35
 120 205 120 205 98.5 220 c 128,-1,36
 77 235 77 235 62.5 257.5 c 128,-1,37
 48 280 48 280 48 316 c 0,38,39
 48 373 48 373 86 403.5 c 128,-1,40
 124 434 124 434 195 434 c 0,0,1
EndSplineSet
EndChar
StartChar: t
Encoding: 116 116 86
Width: 268
Flags: W
LayerCount: 2
Back
Fore
SplineSet
138 519 m 1,0,-1
 138 424 l 1,1,-1
 252 424 l 1,2,-1
 246 408 l 1,3,-1
 138 408 l 1,4,-1
 138 102 l 2,5,6
 138 67 138 67 149 50 c 0,7,8
 161 26 161 26 194 26 c 0,9,10
 211 26 211 26 225.5 34 c 128,-1,11
 240 42 240 42 258 60 c 1,12,-1
 262 57 l 1,13,14
 247 26 247 26 220 8 c 128,-1,15
 193 -10 193 -10 161 -10 c 0,16,17
 145 -10 145 -10 130 -5 c 128,-1,18
 115 0 115 0 104 8 c 0,19,20
 87 20 87 20 80 38.5 c 128,-1,21
 73 57 73 57 73 89 c 2,22,-1
 73 409 l 1,23,-1
 26 409 l 1,24,-1
 24 414 l 1,25,-1
 134 520 l 1,26,-1
 138 519 l 1,0,-1
EndSplineSet
EndChar
StartChar: u
Encoding: 117 117 87
Width: 443
Flags: W
LayerCount: 2
Back
Fore
SplineSet
241 416 m 1,0,-1
 241 424 l 1,1,-1
 366 424 l 1,2,-1
 366 62 l 1,3,-1
 421 50 l 1,4,-1
 421 45 l 1,5,-1
 312 -5 l 1,6,-1
 306 -5 l 1,7,-1
 306 63 l 1,8,-1
 303 64 l 1,9,10
 244 -10 244 -10 176 -10 c 0,11,12
 145 -10 145 -10 121 3 c 128,-1,13
 97 16 97 16 86 39 c 0,14,15
 83 46 83 46 80.5 54 c 128,-1,16
 78 62 78 62 77 74.5 c 128,-1,17
 76 87 76 87 75.5 106 c 128,-1,18
 75 125 75 125 75 153 c 2,19,-1
 75 408 l 1,20,-1
 15 416 l 1,21,-1
 15 424 l 1,22,-1
 140 424 l 1,23,-1
 140 153 l 2,24,25
 140 114 140 114 142 95 c 128,-1,26
 144 76 144 76 150 63 c 0,27,28
 158 46 158 46 174 37 c 128,-1,29
 190 28 190 28 211 28 c 0,30,31
 263 28 263 28 301 77 c 1,32,-1
 301 408 l 1,33,-1
 241 416 l 1,0,-1
EndSplineSet
EndChar
StartChar: v
Encoding: 118 118 88
Width: 446
Flags: W
LayerCount: 2
Back
Fore
SplineSet
219 -3 m 1,0,-1
 72 374 l 2,1,2
 63 397 63 397 49.5 405.5 c 128,-1,3
 36 414 36 414 2 416 c 1,4,-1
 2 424 l 1,5,-1
 195 424 l 1,6,-1
 195 416 l 1,7,8
 159 414 159 414 148.5 410.5 c 128,-1,9
 138 407 138 407 138 399 c 0,10,11
 138 393 138 393 145 373 c 2,12,-1
 249 78 l 1,13,-1
 253 78 l 1,14,-1
 343 348 l 2,15,16
 349 367 349 367 349 379 c 0,17,18
 349 395 349 395 334 402.5 c 128,-1,19
 319 410 319 410 279 416 c 1,20,-1
 279 424 l 1,21,-1
 458 424 l 1,22,-1
 458 416 l 1,23,24
 412 411 412 411 392 400 c 128,-1,25
 372 389 372 389 364 363 c 2,26,-1
 239 -3 l 1,27,-1
 219 -3 l 1,0,-1
EndSplineSet
EndChar
StartChar: w
Encoding: 119 119 89
Width: 619
Flags: W
LayerCount: 2
Back
Fore
SplineSet
415 -3 m 1,0,-1
 310 301 l 1,1,-1
 211 -3 l 1,2,-1
 200 -3 l 1,3,-1
 65 382 l 2,4,5
 62 391 62 391 59 396.5 c 128,-1,6
 56 402 56 402 50 405.5 c 128,-1,7
 44 409 44 409 33.5 411.5 c 128,-1,8
 23 414 23 414 5 416 c 1,9,-1
 5 424 l 1,10,-1
 184 424 l 1,11,-1
 184 416 l 1,12,13
 152 414 152 414 143.5 409 c 128,-1,14
 135 404 135 404 135 396 c 256,15,16
 135 388 135 388 141 372 c 2,17,-1
 228 106 l 1,18,-1
 232 106 l 1,19,-1
 303 324 l 1,20,-1
 285 377 l 2,21,22
 279 394 279 394 269 403.5 c 128,-1,23
 259 413 259 413 230 416 c 1,24,-1
 230 424 l 1,25,-1
 399 424 l 1,26,-1
 399 416 l 1,27,28
 367 414 367 414 358.5 409 c 128,-1,29
 350 404 350 404 350 396 c 256,30,31
 350 388 350 388 356 372 c 2,32,-1
 444 106 l 1,33,-1
 448 106 l 1,34,-1
 525 348 l 2,35,36
 531 367 531 367 531 379 c 0,37,38
 531 395 531 395 518 402.5 c 128,-1,39
 505 410 505 410 470 416 c 1,40,-1
 470 424 l 1,41,-1
 631 424 l 1,42,-1
 631 416 l 1,43,44
 609 412 609 412 594 407.5 c 128,-1,45
 579 403 579 403 569 395 c 128,-1,46
 559 387 559 387 552.5 375.5 c 128,-1,47
 546 364 546 364 540 347 c 2,48,-1
 426 -3 l 1,49,-1
 415 -3 l 1,0,-1
EndSplineSet
EndChar
StartChar: x
Encoding: 120 120 90
Width: 460
Flags: W
LayerCount: 2
Back
Fore
SplineSet
389 42 m 2,0,1
 395 34 395 34 400.5 28 c 128,-1,2
 406 22 406 22 413.5 18.5 c 128,-1,3
 421 15 421 15 431.5 12.5 c 128,-1,4
 442 10 442 10 458 8 c 1,5,-1
 458 0 l 1,6,-1
 273 0 l 1,7,-1
 273 8 l 1,8,9
 300 11 300 11 310 13.5 c 128,-1,10
 320 16 320 16 320 24 c 0,11,12
 320 29 320 29 316.5 36 c 128,-1,13
 313 43 313 43 308 51 c 2,14,-1
 216 190 l 1,15,-1
 122 65 l 2,16,17
 108 46 108 46 108 36 c 256,18,19
 108 26 108 26 120 20 c 128,-1,20
 132 14 132 14 166 8 c 1,21,-1
 166 0 l 1,22,-1
 1 0 l 1,23,-1
 1 8 l 1,24,25
 21 11 21 11 36 15.5 c 128,-1,26
 51 20 51 20 62.5 26 c 128,-1,27
 74 32 74 32 83.5 41 c 128,-1,28
 93 50 93 50 102 62 c 2,29,-1
 208 202 l 1,30,-1
 89 382 l 2,31,32
 78 398 78 398 64 405 c 128,-1,33
 50 412 50 412 19 416 c 1,34,-1
 19 424 l 1,35,-1
 204 424 l 1,36,-1
 204 416 l 1,37,38
 177 413 177 413 167 410.5 c 128,-1,39
 157 408 157 408 157 400 c 0,40,41
 157 395 157 395 160.5 388 c 128,-1,42
 164 381 164 381 169 373 c 2,43,-1
 245 258 l 1,44,-1
 322 359 l 2,45,46
 336 378 336 378 336 388 c 256,47,48
 336 398 336 398 324 404 c 128,-1,49
 312 410 312 410 278 416 c 1,50,-1
 278 424 l 1,51,-1
 443 424 l 1,52,-1
 443 416 l 1,53,54
 423 413 423 413 408 408.5 c 128,-1,55
 393 404 393 404 381.5 398 c 128,-1,56
 370 392 370 392 360.5 383 c 128,-1,57
 351 374 351 374 342 362 c 2,58,-1
 253 246 l 1,59,-1
 389 42 l 2,0,1
EndSplineSet
EndChar
StartChar: y
Encoding: 121 121 91
Width: 452
Flags: W
LayerCount: 2
Back
Fore
SplineSet
251 73 m 1,0,-1
 342 348 l 2,1,2
 348 367 348 367 348 379 c 0,3,4
 348 395 348 395 333 402.5 c 128,-1,5
 318 410 318 410 278 416 c 1,6,-1
 278 424 l 1,7,-1
 457 424 l 1,8,-1
 457 416 l 1,9,10
 433 412 433 412 416.5 407 c 128,-1,11
 400 402 400 402 389 394.5 c 128,-1,12
 378 387 378 387 371 375.5 c 128,-1,13
 364 364 364 364 358 347 c 2,14,-1
 191 -144 l 2,15,16
 182 -171 182 -171 173 -188.5 c 128,-1,17
 164 -206 164 -206 153 -217 c 0,18,19
 127 -246 127 -246 93 -246 c 0,20,21
 64 -246 64 -246 45.5 -229.5 c 128,-1,22
 27 -213 27 -213 27 -188 c 0,23,24
 27 -168 27 -168 38.5 -156 c 128,-1,25
 50 -144 50 -144 70 -144 c 0,26,27
 89 -144 89 -144 97 -154 c 128,-1,28
 105 -164 105 -164 108.5 -176.5 c 128,-1,29
 112 -189 112 -189 116 -199 c 128,-1,30
 120 -209 120 -209 132 -209 c 0,31,32
 146 -209 146 -209 156.5 -192 c 128,-1,33
 167 -175 167 -175 180 -137 c 2,34,-1
 219 -18 l 1,35,-1
 65 382 l 2,36,37
 61 391 61 391 56.5 397 c 128,-1,38
 52 403 52 403 45 407 c 128,-1,39
 38 411 38 411 26.5 413 c 128,-1,40
 15 415 15 415 -2 416 c 1,41,-1
 -2 424 l 1,42,-1
 191 424 l 1,43,-1
 191 416 l 1,44,45
 155 414 155 414 144.5 410.5 c 128,-1,46
 134 407 134 407 134 399 c 0,47,48
 134 393 134 393 141 373 c 2,49,-1
 247 73 l 1,50,-1
 251 73 l 1,0,-1
EndSplineSet
EndChar
StartChar: z
Encoding: 122 122 92
Width: 388
Flags: W
LayerCount: 2
Back
Fore
SplineSet
349 424 m 1,0,-1
 349 402 l 1,1,-1
 99 15 l 1,2,-1
 285 15 l 1,3,-1
 292 33 l 2,4,5
 313 90 313 90 330 155 c 1,6,-1
 344 154 l 1,7,-1
 338 0 l 1,8,-1
 31 0 l 1,9,-1
 31 22 l 1,10,-1
 279 410 l 1,11,-1
 103 410 l 1,12,-1
 97 394 l 2,13,14
 87 368 87 368 77.5 334.5 c 128,-1,15
 68 301 68 301 63 277 c 1,16,-1
 48 278 l 1,17,-1
 57 424 l 1,18,-1
 349 424 l 1,0,-1
EndSplineSet
EndChar
StartChar: braceleft
Encoding: 123 123 93
Width: 305
Flags: W
LayerCount: 2
Back
Fore
SplineSet
93 298 m 1,0,1
 144 285 144 285 167 255.5 c 128,-1,2
 190 226 190 226 190 175 c 0,3,4
 190 147 190 147 184.5 119 c 128,-1,5
 179 91 179 91 172.5 62 c 128,-1,6
 166 33 166 33 160.5 3 c 128,-1,7
 155 -27 155 -27 155 -58 c 0,8,9
 155 -160 155 -160 226 -160 c 0,10,11
 236 -160 236 -160 247 -158.5 c 128,-1,12
 258 -157 258 -157 275 -152 c 1,13,-1
 278 -163 l 1,14,15
 240 -174 240 -174 208 -174 c 0,16,17
 149 -174 149 -174 116.5 -142.5 c 128,-1,18
 84 -111 84 -111 84 -54 c 0,19,20
 84 -29 84 -29 89.5 0.5 c 128,-1,21
 95 30 95 30 102 62 c 128,-1,22
 109 94 109 94 114.5 128 c 128,-1,23
 120 162 120 162 120 196 c 0,24,25
 120 252 120 252 99 273.5 c 128,-1,26
 78 295 78 295 24 295 c 1,27,-1
 24 305 l 1,28,29
 78 305 78 305 99 324.5 c 128,-1,30
 120 344 120 344 120 395 c 0,31,32
 120 426 120 426 114.5 456.5 c 128,-1,33
 109 487 109 487 102 516.5 c 128,-1,34
 95 546 95 546 89.5 573 c 128,-1,35
 84 600 84 600 84 625 c 0,36,37
 84 681 84 681 116.5 712.5 c 128,-1,38
 149 744 149 744 208 744 c 0,39,40
 240 744 240 744 278 733 c 1,41,-1
 275 722 l 1,42,43
 258 727 258 727 247 728.5 c 128,-1,44
 236 730 236 730 226 730 c 0,45,46
 155 730 155 730 155 629 c 0,47,48
 155 599 155 599 160.5 571.5 c 128,-1,49
 166 544 166 544 172.5 518 c 128,-1,50
 179 492 179 492 184.5 466.5 c 128,-1,51
 190 441 190 441 190 415 c 0,52,53
 190 367 190 367 167 340.5 c 128,-1,54
 144 314 144 314 93 302 c 1,55,-1
 93 298 l 1,0,1
EndSplineSet
EndChar
StartChar: bar
Encoding: 124 124 94
Width: 208
Flags: W
LayerCount: 2
Back
Fore
SplineSet
115 690 m 1,0,-1
 115 -135 l 1,1,-1
 93 -135 l 1,2,-1
 93 690 l 1,3,-1
 115 690 l 1,0,-1
EndSplineSet
EndChar
StartChar: braceright
Encoding: 125 125 95
Width: 305
Flags: W
LayerCount: 2
Back
Fore
SplineSet
212 302 m 1,0,1
 161 314 161 314 138 340.5 c 128,-1,2
 115 367 115 367 115 415 c 0,3,4
 115 441 115 441 120.5 466.5 c 128,-1,5
 126 492 126 492 132.5 518 c 128,-1,6
 139 544 139 544 144.5 571.5 c 128,-1,7
 150 599 150 599 150 629 c 0,8,9
 150 730 150 730 79 730 c 0,10,11
 69 730 69 730 57.5 728 c 128,-1,12
 46 726 46 726 30 722 c 1,13,-1
 27 733 l 1,14,15
 65 744 65 744 97 744 c 0,16,17
 156 744 156 744 188.5 712.5 c 128,-1,18
 221 681 221 681 221 625 c 0,19,20
 221 600 221 600 215.5 573 c 128,-1,21
 210 546 210 546 203 516.5 c 128,-1,22
 196 487 196 487 190.5 456.5 c 128,-1,23
 185 426 185 426 185 395 c 0,24,25
 185 344 185 344 206 324.5 c 128,-1,26
 227 305 227 305 281 305 c 1,27,-1
 281 295 l 1,28,29
 227 295 227 295 206 273.5 c 128,-1,30
 185 252 185 252 185 196 c 0,31,32
 185 162 185 162 190.5 128 c 128,-1,33
 196 94 196 94 203 62 c 128,-1,34
 210 30 210 30 215.5 0.5 c 128,-1,35
 221 -29 221 -29 221 -54 c 0,36,37
 221 -111 221 -111 188.5 -142.5 c 128,-1,38
 156 -174 156 -174 97 -174 c 0,39,40
 65 -174 65 -174 27 -163 c 1,41,-1
 30 -152 l 1,42,43
 46 -156 46 -156 57.5 -158 c 128,-1,44
 69 -160 69 -160 79 -160 c 0,45,46
 150 -160 150 -160 150 -58 c 0,47,48
 150 -27 150 -27 144.5 3 c 128,-1,49
 139 33 139 33 132.5 62 c 128,-1,50
 126 91 126 91 120.5 119 c 128,-1,51
 115 147 115 147 115 175 c 0,52,53
 115 226 115 226 138 255.5 c 128,-1,54
 161 285 161 285 212 298 c 1,55,-1
 212 302 l 1,0,1
EndSplineSet
EndChar
StartChar: asciitilde
Encoding: 126 126 96
Width: 444
Flags: W
LayerCount: 2
Back
Fore
SplineSet
76 227 m 1,0,1
 76 266 76 266 95 289.5 c 128,-1,2
 114 313 114 313 146 313 c 0,3,4
 165 313 165 313 188 308 c 128,-1,5
 211 303 211 303 235 296.5 c 128,-1,6
 259 290 259 290 282 285 c 128,-1,7
 305 280 305 280 325 280 c 0,8,9
 359 280 359 280 367 316 c 1,10,-1
 372 316 l 1,11,12
 372 274 372 274 353 250 c 128,-1,13
 334 226 334 226 302 226 c 0,14,15
 281 226 281 226 258 231.5 c 128,-1,16
 235 237 235 237 212 244 c 128,-1,17
 189 251 189 251 166 256.5 c 128,-1,18
 143 262 143 262 122 262 c 0,19,20
 85 262 85 262 80 227 c 1,21,-1
 76 227 l 1,0,1
EndSplineSet
EndChar
StartChar: exclamdown
Encoding: 161 161 98
Width: 212
Flags: W
LayerCount: 2
Back
Fore
SplineSet
111 296 m 1,0,1
 116 214 116 214 118.5 141 c 128,-1,2
 121 68 121 68 128 5 c 0,3,4
 136 -70 136 -70 140.5 -123.5 c 128,-1,5
 145 -177 145 -177 145 -197 c 0,6,7
 145 -220 145 -220 134.5 -233 c 128,-1,8
 124 -246 124 -246 106 -246 c 0,9,10
 67 -246 67 -246 67 -200 c 0,11,12
 67 -180 67 -180 72.5 -127 c 128,-1,13
 78 -74 78 -74 84 1 c 0,14,15
 89 64 89 64 93 138.5 c 128,-1,16
 97 213 97 213 101 296 c 1,17,-1
 111 296 l 1,0,1
154 428 m 256,18,19
 154 408 154 408 141 394 c 128,-1,20
 128 380 128 380 106 380 c 256,21,22
 84 380 84 380 71 394 c 128,-1,23
 58 408 58 408 58 428 c 256,24,25
 58 448 58 448 71 462 c 128,-1,26
 84 476 84 476 106 476 c 256,27,28
 128 476 128 476 141 462 c 128,-1,29
 154 448 154 448 154 428 c 256,18,19
EndSplineSet
EndChar
StartChar: cent
Encoding: 162 162 99
Width: 437
Flags: W
LayerCount: 2
Back
Fore
SplineSet
251 570 m 1,0,-1
 251 434 l 1,1,2
 278 434 278 434 302 427 c 128,-1,3
 326 420 326 420 344 408.5 c 128,-1,4
 362 397 362 397 372.5 381 c 128,-1,5
 383 365 383 365 383 347 c 0,6,7
 383 330 383 330 373 319.5 c 128,-1,8
 363 309 363 309 346 309 c 0,9,10
 330 309 330 309 322.5 317 c 128,-1,11
 315 325 315 325 310.5 337.5 c 128,-1,12
 306 350 306 350 303.5 364.5 c 128,-1,13
 301 379 301 379 296 392 c 128,-1,14
 291 405 291 405 280.5 414 c 128,-1,15
 270 423 270 423 251 424 c 1,16,-1
 251 39 l 1,17,-1
 261 39 l 2,18,19
 334 39 334 39 382 102 c 2,20,-1
 391 114 l 1,21,-1
 395 112 l 1,22,-1
 391 101 l 2,23,24
 373 52 373 52 336.5 23.5 c 128,-1,25
 300 -5 300 -5 251 -9 c 1,26,-1
 251 -135 l 1,27,-1
 229 -135 l 1,28,-1
 229 -10 l 1,29,30
 190 -9 190 -9 157.5 8 c 128,-1,31
 125 25 125 25 101.5 53.5 c 128,-1,32
 78 82 78 82 65 121 c 128,-1,33
 52 160 52 160 52 207 c 0,34,35
 52 253 52 253 65 293 c 128,-1,36
 78 333 78 333 101 362.5 c 128,-1,37
 124 392 124 392 157 410.5 c 128,-1,38
 190 429 190 429 229 433 c 1,39,-1
 229 570 l 1,40,-1
 251 570 l 1,0,-1
119 222 m 0,41,42
 119 145 119 145 147.5 99 c 128,-1,43
 176 53 176 53 229 42 c 1,44,-1
 229 422 l 1,45,46
 205 417 205 417 184.5 400.5 c 128,-1,47
 164 384 164 384 149.5 358 c 128,-1,48
 135 332 135 332 127 297 c 128,-1,49
 119 262 119 262 119 222 c 0,41,42
EndSplineSet
EndChar
StartChar: sterling
Encoding: 163 163 100
Width: 627
Flags: W
LayerCount: 2
Back
Fore
SplineSet
141 332 m 1,0,-1
 146 354 l 1,1,-1
 235 354 l 1,2,-1
 252 440 l 2,3,4
 303 706 303 706 441 706 c 0,5,6
 465 706 465 706 488 698 c 128,-1,7
 511 690 511 690 529 677.5 c 128,-1,8
 547 665 547 665 557.5 648.5 c 128,-1,9
 568 632 568 632 568 615 c 256,10,11
 568 598 568 598 558 587.5 c 128,-1,12
 548 577 548 577 532 577 c 0,13,14
 510 577 510 577 501.5 595 c 128,-1,15
 493 613 493 613 487 635 c 128,-1,16
 481 657 481 657 470.5 675 c 128,-1,17
 460 693 460 693 435 693 c 0,18,19
 420 693 420 693 409 683.5 c 128,-1,20
 398 674 398 674 386.5 642.5 c 128,-1,21
 375 611 375 611 362 551.5 c 128,-1,22
 349 492 349 492 329 392 c 2,23,-1
 321 354 l 1,24,-1
 507 354 l 1,25,-1
 502 332 l 1,26,-1
 317 332 l 1,27,28
 306 281 306 281 299 249.5 c 128,-1,29
 292 218 292 218 284 194.5 c 128,-1,30
 276 171 276 171 266.5 149 c 128,-1,31
 257 127 257 127 242 95 c 1,32,33
 285 75 285 75 327.5 64 c 128,-1,34
 370 53 370 53 408 53 c 0,35,36
 467 53 467 53 503 77.5 c 128,-1,37
 539 102 539 102 548 148 c 1,38,-1
 553 148 l 1,39,40
 553 77 553 77 515.5 34.5 c 128,-1,41
 478 -8 478 -8 415 -8 c 0,42,43
 369 -8 369 -8 321.5 15 c 128,-1,44
 274 38 274 38 233 80 c 1,45,46
 199 30 199 30 171.5 10.5 c 128,-1,47
 144 -9 144 -9 109 -9 c 256,48,49
 74 -9 74 -9 53 8.5 c 128,-1,50
 32 26 32 26 32 55 c 0,51,52
 32 90 32 90 59.5 112 c 128,-1,53
 87 134 87 134 130 134 c 0,54,55
 142 134 142 134 156 132.5 c 128,-1,56
 170 131 170 131 188 126 c 1,57,58
 193 149 193 149 197 166 c 128,-1,59
 201 183 201 183 205.5 204 c 128,-1,60
 210 225 210 225 216 254.5 c 128,-1,61
 222 284 222 284 231 332 c 1,62,-1
 141 332 l 1,0,-1
186 113 m 1,63,64
 157 122 157 122 132 122 c 0,65,66
 94 122 94 122 70 103 c 128,-1,67
 46 84 46 84 46 55 c 0,68,69
 46 31 46 31 61.5 17 c 128,-1,70
 77 3 77 3 103 3 c 0,71,72
 133 3 133 3 151.5 27.5 c 128,-1,73
 170 52 170 52 186 113 c 1,63,64
EndSplineSet
EndChar
StartChar: currency
Encoding: 164 164 101
Width: 588
Flags: W
LayerCount: 2
Back
Fore
SplineSet
147 215 m 1,0,1
 123 241 123 241 109.5 275 c 128,-1,2
 96 309 96 309 96 347 c 256,3,4
 96 385 96 385 109.5 419 c 128,-1,5
 123 453 123 453 147 479 c 1,6,-1
 75 551 l 1,7,-1
 90 566 l 1,8,-1
 162 494 l 1,9,10
 188 517 188 517 222 531 c 128,-1,11
 256 545 256 545 294 545 c 256,12,13
 332 545 332 545 366 531 c 128,-1,14
 400 517 400 517 426 494 c 1,15,-1
 498 566 l 1,16,-1
 513 551 l 1,17,-1
 441 479 l 1,18,19
 464 453 464 453 478 419 c 128,-1,20
 492 385 492 385 492 347 c 256,21,22
 492 309 492 309 478 275 c 128,-1,23
 464 241 464 241 441 215 c 1,24,-1
 512 144 l 1,25,-1
 497 129 l 1,26,-1
 426 200 l 1,27,28
 400 176 400 176 366 162.5 c 128,-1,29
 332 149 332 149 294 149 c 256,30,31
 256 149 256 149 222 162.5 c 128,-1,32
 188 176 188 176 162 200 c 1,33,-1
 91 129 l 1,34,-1
 76 144 l 1,35,-1
 147 215 l 1,0,1
115 347 m 256,36,37
 115 310 115 310 129 277.5 c 128,-1,38
 143 245 143 245 167.5 220.5 c 128,-1,39
 192 196 192 196 224.5 182 c 128,-1,40
 257 168 257 168 294 168 c 256,41,42
 331 168 331 168 363.5 182 c 128,-1,43
 396 196 396 196 420.5 220.5 c 128,-1,44
 445 245 445 245 459 277.5 c 128,-1,45
 473 310 473 310 473 347 c 256,46,47
 473 384 473 384 459 416.5 c 128,-1,48
 445 449 445 449 420.5 473 c 128,-1,49
 396 497 396 497 363.5 511 c 128,-1,50
 331 525 331 525 294 525 c 256,51,52
 257 525 257 525 224.5 511 c 128,-1,53
 192 497 192 497 167.5 473 c 128,-1,54
 143 449 143 449 129 416.5 c 128,-1,55
 115 384 115 384 115 347 c 256,36,37
EndSplineSet
EndChar
StartChar: yen
Encoding: 165 165 102
Width: 721
Flags: W
LayerCount: 2
Back
Fore
SplineSet
183 156 m 1,0,-1
 188 178 l 1,1,-1
 329 178 l 1,2,-1
 329 269 l 1,3,-1
 327 273 l 1,4,-1
 183 273 l 1,5,-1
 188 295 l 1,6,-1
 315 295 l 1,7,-1
 112 674 l 1,8,-1
 30 682 l 1,9,-1
 30 690 l 1,10,-1
 279 690 l 1,11,-1
 279 682 l 1,12,-1
 192 674 l 1,13,-1
 395 295 l 1,14,-1
 400 295 l 1,15,-1
 564 637 l 2,16,17
 567 644 567 644 567.5 648 c 128,-1,18
 568 652 568 652 568 656 c 0,19,20
 568 666 568 666 561.5 670.5 c 128,-1,21
 555 675 555 675 538 677 c 2,22,-1
 477 682 l 1,23,-1
 477 690 l 1,24,-1
 690 690 l 1,25,-1
 690 682 l 1,26,-1
 634 677 l 2,27,28
 621 676 621 676 613 673.5 c 128,-1,29
 605 671 605 671 599.5 666.5 c 128,-1,30
 594 662 594 662 589.5 655 c 128,-1,31
 585 648 585 648 580 637 c 2,32,-1
 416 295 l 1,33,-1
 549 295 l 1,34,-1
 544 273 l 1,35,-1
 406 273 l 1,36,-1
 406 178 l 1,37,-1
 549 178 l 1,38,-1
 544 156 l 1,39,-1
 406 156 l 1,40,-1
 406 16 l 1,41,-1
 493 8 l 1,42,-1
 493 0 l 1,43,-1
 242 0 l 1,44,-1
 242 8 l 1,45,-1
 329 16 l 1,46,-1
 329 156 l 1,47,-1
 183 156 l 1,0,-1
EndSplineSet
EndChar
StartChar: brokenbar
Encoding: 166 166 103
Width: 210
Flags: W
LayerCount: 2
Back
Fore
SplineSet
116 690 m 1,0,-1
 116 329 l 1,1,-1
 94 329 l 1,2,-1
 94 690 l 1,3,-1
 116 690 l 1,0,-1
116 226 m 1,4,-1
 116 -135 l 1,5,-1
 94 -135 l 1,6,-1
 94 226 l 1,7,-1
 116 226 l 1,4,-1
EndSplineSet
EndChar
StartChar: section
Encoding: 167 167 104
Width: 491
Flags: W
LayerCount: 2
Back
Fore
SplineSet
230 -153 m 0,0,1
 197 -153 197 -153 166 -145 c 128,-1,2
 135 -137 135 -137 111 -123.5 c 128,-1,3
 87 -110 87 -110 72.5 -93 c 128,-1,4
 58 -76 58 -76 58 -58 c 0,5,6
 58 -43 58 -43 68.5 -33 c 128,-1,7
 79 -23 79 -23 93 -23 c 256,8,9
 107 -23 107 -23 116 -31.5 c 128,-1,10
 125 -40 125 -40 132.5 -53.5 c 128,-1,11
 140 -67 140 -67 148 -82 c 128,-1,12
 156 -97 156 -97 167.5 -110.5 c 128,-1,13
 179 -124 179 -124 196.5 -132.5 c 128,-1,14
 214 -141 214 -141 240 -141 c 0,15,16
 290 -141 290 -141 321.5 -108.5 c 128,-1,17
 353 -76 353 -76 353 -23 c 0,18,19
 353 20 353 20 331 47.5 c 128,-1,20
 309 75 309 75 276 94.5 c 128,-1,21
 243 114 243 114 204.5 130 c 128,-1,22
 166 146 166 146 133 166 c 128,-1,23
 100 186 100 186 78 215 c 128,-1,24
 56 244 56 244 56 290 c 0,25,26
 56 343 56 343 87.5 381.5 c 128,-1,27
 119 420 119 420 171 437 c 1,28,29
 152 448 152 448 135.5 461.5 c 128,-1,30
 119 475 119 475 106.5 491.5 c 128,-1,31
 94 508 94 508 87 529 c 128,-1,32
 80 550 80 550 80 576 c 0,33,34
 80 610 80 610 93 639 c 128,-1,35
 106 668 106 668 129 689 c 128,-1,36
 152 710 152 710 183.5 722 c 128,-1,37
 215 734 215 734 252 734 c 0,38,39
 284 734 284 734 314 726 c 128,-1,40
 344 718 344 718 367.5 704.5 c 128,-1,41
 391 691 391 691 405.5 674 c 128,-1,42
 420 657 420 657 420 639 c 0,43,44
 420 624 420 624 409.5 614 c 128,-1,45
 399 604 399 604 385 604 c 0,46,47
 364 604 364 604 353 622.5 c 128,-1,48
 342 641 342 641 329.5 663 c 128,-1,49
 317 685 317 685 297.5 703.5 c 128,-1,50
 278 722 278 722 241 722 c 0,51,52
 197 722 197 722 171.5 694 c 128,-1,53
 146 666 146 666 146 621 c 0,54,55
 146 581 146 581 168 555 c 128,-1,56
 190 529 190 529 222.5 509 c 128,-1,57
 255 489 255 489 293 471.5 c 128,-1,58
 331 454 331 454 363.5 431.5 c 128,-1,59
 396 409 396 409 418 378.5 c 128,-1,60
 440 348 440 348 440 302 c 0,61,62
 440 252 440 252 414 212 c 128,-1,63
 388 172 388 172 345 148 c 1,64,65
 376 126 376 126 396 97 c 128,-1,66
 416 68 416 68 416 24 c 0,67,68
 416 -14 416 -14 401.5 -46 c 128,-1,69
 387 -78 387 -78 362 -102 c 128,-1,70
 337 -126 337 -126 303 -139.5 c 128,-1,71
 269 -153 269 -153 230 -153 c 0,0,1
377 254 m 0,72,73
 377 292 377 292 359.5 318 c 128,-1,74
 342 344 342 344 314 362.5 c 128,-1,75
 286 381 286 381 252.5 396 c 128,-1,76
 219 411 219 411 187 428 c 1,77,78
 157 417 157 417 139 392.5 c 128,-1,79
 121 368 121 368 121 334 c 0,80,81
 121 297 121 297 142 272.5 c 128,-1,82
 163 248 163 248 194.5 229 c 128,-1,83
 226 210 226 210 263 193.5 c 128,-1,84
 300 177 300 177 333 156 c 1,85,86
 377 192 377 192 377 254 c 0,72,73
EndSplineSet
EndChar
StartChar: dieresis
Encoding: 168 168 105
Width: 343
Flags: W
LayerCount: 2
Back
Fore
SplineSet
45 573 m 256,0,1
 45 591 45 591 56.5 603.5 c 128,-1,2
 68 616 68 616 88 616 c 256,3,4
 108 616 108 616 119.5 603.5 c 128,-1,5
 131 591 131 591 131 573 c 256,6,7
 131 555 131 555 119.5 542.5 c 128,-1,8
 108 530 108 530 88 530 c 256,9,10
 68 530 68 530 56.5 542.5 c 128,-1,11
 45 555 45 555 45 573 c 256,0,1
212 573 m 256,12,13
 212 591 212 591 223.5 603.5 c 128,-1,14
 235 616 235 616 255 616 c 256,15,16
 275 616 275 616 286.5 603.5 c 128,-1,17
 298 591 298 591 298 573 c 256,18,19
 298 555 298 555 286.5 542.5 c 128,-1,20
 275 530 275 530 255 530 c 256,21,22
 235 530 235 530 223.5 542.5 c 128,-1,23
 212 555 212 555 212 573 c 256,12,13
EndSplineSet
EndChar
StartChar: copyright
Encoding: 169 169 106
Width: 808
Flags: W
LayerCount: 2
Back
Fore
SplineSet
507 157 m 0,0,1
 527 180 527 180 538.5 209.5 c 128,-1,2
 550 239 550 239 557 268 c 1,3,-1
 568 267 l 1,4,-1
 568 111 l 1,5,-1
 557 111 l 1,6,-1
 534 148 l 1,7,8
 504 126 504 126 468.5 113 c 128,-1,9
 433 100 433 100 399 100 c 0,10,11
 353 100 353 100 313.5 119 c 128,-1,12
 274 138 274 138 244.5 171 c 128,-1,13
 215 204 215 204 198 248.5 c 128,-1,14
 181 293 181 293 181 345 c 0,15,16
 181 396 181 396 198 441 c 128,-1,17
 215 486 215 486 244 519 c 128,-1,18
 273 552 273 552 312.5 571 c 128,-1,19
 352 590 352 590 397 590 c 0,20,21
 428 590 428 590 460 580.5 c 128,-1,22
 492 571 492 571 532 549 c 1,23,-1
 548 582 l 1,24,-1
 559 582 l 1,25,-1
 566 429 l 1,26,-1
 554 426 l 1,27,28
 545 479 545 479 524 513 c 0,29,30
 504 545 504 545 471.5 561.5 c 128,-1,31
 439 578 439 578 399 578 c 0,32,33
 329 578 329 578 291.5 517.5 c 128,-1,34
 254 457 254 457 254 345 c 0,35,36
 254 234 254 234 292 173.5 c 128,-1,37
 330 113 330 113 399 113 c 0,38,39
 430 113 430 113 458.5 125 c 128,-1,40
 487 137 487 137 507 157 c 0,0,1
53 344 m 256,41,42
 53 416 53 416 80.5 481 c 128,-1,43
 108 546 108 546 156 594.5 c 128,-1,44
 204 643 204 643 268 671.5 c 128,-1,45
 332 700 332 700 404 700 c 256,46,47
 476 700 476 700 540 671.5 c 128,-1,48
 604 643 604 643 652 594.5 c 128,-1,49
 700 546 700 546 727.5 481 c 128,-1,50
 755 416 755 416 755 344 c 256,51,52
 755 272 755 272 727.5 207.5 c 128,-1,53
 700 143 700 143 652 94.5 c 128,-1,54
 604 46 604 46 540 18 c 128,-1,55
 476 -10 476 -10 404 -10 c 256,56,57
 332 -10 332 -10 268 18 c 128,-1,58
 204 46 204 46 156 94.5 c 128,-1,59
 108 143 108 143 80.5 207.5 c 128,-1,60
 53 272 53 272 53 344 c 256,41,42
69 344 m 0,61,62
 69 274 69 274 95 212.5 c 128,-1,63
 121 151 121 151 166.5 105 c 128,-1,64
 212 59 212 59 273 32.5 c 128,-1,65
 334 6 334 6 404 6 c 0,66,67
 473 6 473 6 534 32.5 c 128,-1,68
 595 59 595 59 640.5 105 c 128,-1,69
 686 151 686 151 712.5 212.5 c 128,-1,70
 739 274 739 274 739 344 c 0,71,72
 739 413 739 413 712.5 475 c 128,-1,73
 686 537 686 537 640.5 583.5 c 128,-1,74
 595 630 595 630 534 657 c 128,-1,75
 473 684 473 684 404 684 c 0,76,77
 334 684 334 684 273 657 c 128,-1,78
 212 630 212 630 166.5 583.5 c 128,-1,79
 121 537 121 537 95 475 c 128,-1,80
 69 413 69 413 69 344 c 0,61,62
EndSplineSet
EndChar
StartChar: ordfeminine
Encoding: 170 170 107
Width: 334
Flags: W
LayerCount: 2
Back
Fore
SplineSet
116 530 m 0,0,1
 90 530 90 530 69 547.5 c 128,-1,2
 48 565 48 565 48 597 c 0,3,4
 48 631 48 631 80.5 651.5 c 128,-1,5
 113 672 113 672 191 689 c 1,6,-1
 191 749 l 2,7,8
 191 787 191 787 183 801.5 c 128,-1,9
 175 816 175 816 155 816 c 0,10,11
 136 816 136 816 122 806 c 128,-1,12
 108 796 108 796 108 779 c 0,13,14
 108 774 108 774 109 770 c 128,-1,15
 110 766 110 766 110 759 c 0,16,17
 110 743 110 743 103 733 c 128,-1,18
 96 723 96 723 84 723 c 0,19,20
 73 723 73 723 67 730 c 128,-1,21
 61 737 61 737 61 747 c 0,22,23
 61 764 61 764 77.5 783.5 c 128,-1,24
 94 803 94 803 118 816 c 0,25,26
 129 822 129 822 148.5 828 c 128,-1,27
 168 834 168 834 186 834 c 0,28,29
 208 834 208 834 224.5 824.5 c 128,-1,30
 241 815 241 815 246 804 c 0,31,32
 248 799 248 799 249 794.5 c 128,-1,33
 250 790 250 790 250.5 782.5 c 128,-1,34
 251 775 251 775 251 763 c 128,-1,35
 251 751 251 751 251 732 c 2,36,-1
 251 601 l 2,37,38
 251 581 251 581 255.5 571 c 128,-1,39
 260 561 260 561 272 561 c 0,40,41
 279 561 279 561 282.5 564 c 128,-1,42
 286 567 286 567 289 572 c 1,43,-1
 294 567 l 1,44,45
 286 551 286 551 272 542 c 128,-1,46
 258 533 258 533 241 533 c 0,47,48
 222 533 222 533 209.5 544 c 128,-1,49
 197 555 197 555 195 572 c 1,50,-1
 192 573 l 1,51,52
 178 554 178 554 158 542 c 128,-1,53
 138 530 138 530 116 530 c 0,0,1
148 560 m 0,54,55
 160 560 160 560 172 566.5 c 128,-1,56
 184 573 184 573 191 589 c 1,57,-1
 191 679 l 1,58,59
 168 672 168 672 152.5 665.5 c 128,-1,60
 137 659 137 659 127.5 651 c 128,-1,61
 118 643 118 643 114 633 c 128,-1,62
 110 623 110 623 110 610 c 0,63,64
 110 588 110 588 119.5 574 c 128,-1,65
 129 560 129 560 148 560 c 0,54,55
EndSplineSet
EndChar
StartChar: guillemotleft
Encoding: 171 171 108
Width: 373
Flags: W
LayerCount: 2
Back
Fore
SplineSet
198 27 m 1,0,-1
 49 207 l 1,1,-1
 49 212 l 1,2,-1
 196 390 l 1,3,-1
 199 388 l 1,4,-1
 112 210 l 1,5,-1
 202 30 l 1,6,-1
 198 27 l 1,0,-1
316 27 m 1,7,-1
 167 207 l 1,8,-1
 167 212 l 1,9,-1
 314 390 l 1,10,-1
 317 388 l 1,11,-1
 230 210 l 1,12,-1
 320 30 l 1,13,-1
 316 27 l 1,7,-1
EndSplineSet
EndChar
StartChar: logicalnot
Encoding: 172 172 109
Width: 459
Flags: W
LayerCount: 2
Back
Fore
SplineSet
387 370 m 1,0,-1
 387 217 l 1,1,-1
 365 217 l 1,2,-1
 365 348 l 1,3,-1
 77 348 l 1,4,-1
 77 370 l 1,5,-1
 387 370 l 1,0,-1
EndSplineSet
EndChar
StartChar: registered
Encoding: 174 174 111
Width: 808
Flags: W
LayerCount: 2
Back
Fore
SplineSet
53 344 m 256,0,1
 53 416 53 416 80.5 481 c 128,-1,2
 108 546 108 546 156 594.5 c 128,-1,3
 204 643 204 643 268 671.5 c 128,-1,4
 332 700 332 700 404 700 c 256,5,6
 476 700 476 700 540 671.5 c 128,-1,7
 604 643 604 643 652 594.5 c 128,-1,8
 700 546 700 546 727.5 481 c 128,-1,9
 755 416 755 416 755 344 c 256,10,11
 755 272 755 272 727.5 207.5 c 128,-1,12
 700 143 700 143 652 94.5 c 128,-1,13
 604 46 604 46 540 18 c 128,-1,14
 476 -10 476 -10 404 -10 c 256,15,16
 332 -10 332 -10 268 18 c 128,-1,17
 204 46 204 46 156 94.5 c 128,-1,18
 108 143 108 143 80.5 207.5 c 128,-1,19
 53 272 53 272 53 344 c 256,0,1
69 344 m 0,20,21
 69 274 69 274 95 212.5 c 128,-1,22
 121 151 121 151 166.5 105 c 128,-1,23
 212 59 212 59 273 32.5 c 128,-1,24
 334 6 334 6 404 6 c 0,25,26
 473 6 473 6 534 32.5 c 128,-1,27
 595 59 595 59 640.5 105 c 128,-1,28
 686 151 686 151 712.5 212.5 c 128,-1,29
 739 274 739 274 739 344 c 0,30,31
 739 413 739 413 712.5 475 c 128,-1,32
 686 537 686 537 640.5 583.5 c 128,-1,33
 595 630 595 630 534 657 c 128,-1,34
 473 684 473 684 404 684 c 0,35,36
 334 684 334 684 273 657 c 128,-1,37
 212 630 212 630 166.5 583.5 c 128,-1,38
 121 537 121 537 95 475 c 128,-1,39
 69 413 69 413 69 344 c 0,20,21
272 120 m 1,40,-1
 272 571 l 1,41,-1
 222 576 l 1,42,-1
 222 584 l 1,43,-1
 397 584 l 2,44,45
 479 584 479 584 522 551.5 c 128,-1,46
 565 519 565 519 565 456 c 0,47,48
 565 403 565 403 534.5 371.5 c 128,-1,49
 504 340 504 340 446 330 c 1,50,-1
 569 138 l 2,51,52
 578 124 578 124 586.5 119.5 c 128,-1,53
 595 115 595 115 612 115 c 2,54,-1
 622 115 l 1,55,-1
 622 107 l 1,56,-1
 542 107 l 2,57,58
 525 107 525 107 516.5 112 c 128,-1,59
 508 117 508 117 500 131 c 2,60,-1
 394 301 l 2,61,62
 384 317 384 317 377.5 321 c 128,-1,63
 371 325 371 325 354 325 c 2,64,-1
 332 325 l 1,65,-1
 332 120 l 1,66,-1
 392 115 l 1,67,-1
 392 107 l 1,68,-1
 222 107 l 1,69,-1
 222 115 l 1,70,-1
 272 120 l 1,40,-1
395 337 m 2,71,72
 451 337 451 337 477.5 365.5 c 128,-1,73
 504 394 504 394 504 455 c 0,74,75
 504 574 504 574 395 574 c 2,76,-1
 332 574 l 1,77,-1
 332 337 l 1,78,-1
 395 337 l 2,71,72
EndSplineSet
EndChar
StartChar: macron
Encoding: 175 175 112
Width: 290
Flags: W
LayerCount: 2
Back
Fore
SplineSet
45 575 m 1,0,-1
 245 575 l 1,1,-1
 245 553 l 1,2,-1
 45 553 l 1,3,-1
 45 575 l 1,0,-1
EndSplineSet
EndChar
StartChar: degree
Encoding: 176 176 113
Width: 341
Flags: W
LayerCount: 2
Back
Fore
SplineSet
45 708 m 0,0,1
 45 736 45 736 54.5 759.5 c 128,-1,2
 64 783 64 783 80.5 800 c 128,-1,3
 97 817 97 817 120.5 827 c 128,-1,4
 144 837 144 837 171 837 c 0,5,6
 226 837 226 837 260.5 801.5 c 128,-1,7
 295 766 295 766 295 709 c 0,8,9
 295 653 295 653 261 617 c 128,-1,10
 227 581 227 581 170 581 c 0,11,12
 142 581 142 581 119 590.5 c 128,-1,13
 96 600 96 600 79.5 617.5 c 128,-1,14
 63 635 63 635 54 658 c 128,-1,15
 45 681 45 681 45 708 c 0,0,1
63 709 m 256,16,17
 63 662 63 662 93 630.5 c 128,-1,18
 123 599 123 599 170 599 c 0,19,20
 216 599 216 599 246 630.5 c 128,-1,21
 276 662 276 662 276 709 c 256,22,23
 276 756 276 756 246 787 c 128,-1,24
 216 818 216 818 170 818 c 0,25,26
 123 818 123 818 93 787 c 128,-1,27
 63 756 63 756 63 709 c 256,16,17
EndSplineSet
EndChar
StartChar: twosuperior
Encoding: 178 178 115
Width: 267
Flags: W
LayerCount: 2
Back
Fore
SplineSet
25 536 m 1,0,-1
 24 540 l 1,1,-1
 71 586 l 2,2,3
 163 677 163 677 163 757 c 0,4,5
 163 792 163 792 148 810.5 c 128,-1,6
 133 829 133 829 105 829 c 0,7,8
 62 829 62 829 41 785 c 1,9,-1
 33 789 l 1,10,11
 45 818 45 818 70 836 c 128,-1,12
 95 854 95 854 124 854 c 0,13,14
 169 854 169 854 197 829.5 c 128,-1,15
 225 805 225 805 225 767 c 0,16,17
 225 754 225 754 221 742 c 128,-1,18
 217 730 217 730 206.5 714.5 c 128,-1,19
 196 699 196 699 176 677.5 c 128,-1,20
 156 656 156 656 125 625 c 2,21,-1
 86 586 l 1,22,-1
 190 586 l 2,23,24
 204 586 204 586 210 590 c 128,-1,25
 216 594 216 594 219 606 c 2,26,-1
 226 634 l 1,27,-1
 233 633 l 1,28,-1
 221 536 l 1,29,-1
 25 536 l 1,0,-1
EndSplineSet
EndChar
StartChar: threesuperior
Encoding: 179 179 116
Width: 256
Flags: W
LayerCount: 2
Back
Fore
SplineSet
80 699 m 1,0,1
 148 726 148 726 148 783 c 0,2,3
 148 805 148 805 137.5 817.5 c 128,-1,4
 127 830 127 830 107 830 c 0,5,6
 69 830 69 830 48 781 c 1,7,-1
 40 785 l 1,8,9
 67 855 67 855 142 855 c 0,10,11
 168 855 168 855 185.5 839 c 128,-1,12
 203 823 203 823 203 797 c 0,13,14
 203 773 203 773 186 751.5 c 128,-1,15
 169 730 169 730 140 719 c 1,16,-1
 140 715 l 1,17,18
 176 714 176 714 200 689.5 c 128,-1,19
 224 665 224 665 224 630 c 0,20,21
 224 609 224 609 215 591 c 128,-1,22
 206 573 206 573 191 559.5 c 128,-1,23
 176 546 176 546 155.5 538 c 128,-1,24
 135 530 135 530 111 530 c 0,25,26
 76 530 76 530 52 546.5 c 128,-1,27
 28 563 28 563 28 586 c 0,28,29
 28 608 28 608 48 608 c 0,30,31
 57 608 57 608 62 601.5 c 128,-1,32
 67 595 67 595 77 572 c 0,33,34
 84 552 84 552 89.5 546 c 128,-1,35
 95 540 95 540 108 540 c 0,36,37
 168 540 168 540 168 613 c 0,38,39
 168 650 168 650 152 672.5 c 128,-1,40
 136 695 136 695 110 695 c 0,41,42
 104 695 104 695 96.5 694 c 128,-1,43
 89 693 89 693 84 691 c 1,44,-1
 80 699 l 1,0,1
EndSplineSet
EndChar
StartChar: acute
Encoding: 180 180 117
Width: 194
Flags: W
LayerCount: 2
Back
Fore
SplineSet
90 670 m 2,0,1
 97 691 97 691 121 691 c 0,2,3
 135 691 135 691 142 682 c 128,-1,4
 149 673 149 673 149 660 c 0,5,6
 149 650 149 650 141 640 c 128,-1,7
 133 630 133 630 113 605 c 2,8,-1
 48 523 l 1,9,-1
 45 524 l 1,10,-1
 90 670 l 2,0,1
EndSplineSet
EndChar
StartChar: mu
Encoding: 181 181 118
Width: 491
Flags: W
LayerCount: 2
Back
Fore
SplineSet
113 49 m 1,0,1
 113 -7 113 -7 118 -45 c 128,-1,2
 123 -83 123 -83 129 -108.5 c 128,-1,3
 135 -134 135 -134 140 -150.5 c 128,-1,4
 145 -167 145 -167 145 -180 c 0,5,6
 145 -197 145 -197 137 -206.5 c 128,-1,7
 129 -216 129 -216 115 -216 c 0,8,9
 100 -216 100 -216 93.5 -203.5 c 128,-1,10
 87 -191 87 -191 87 -162 c 0,11,12
 87 -144 87 -144 89.5 -109 c 128,-1,13
 92 -74 92 -74 94.5 -30.5 c 128,-1,14
 97 13 97 13 99.5 61 c 128,-1,15
 102 109 102 109 102 153 c 2,16,-1
 102 408 l 1,17,-1
 42 416 l 1,18,-1
 42 424 l 1,19,-1
 167 424 l 1,20,-1
 167 153 l 2,21,22
 167 112 167 112 169 93.5 c 128,-1,23
 171 75 171 75 177 63 c 0,24,25
 194 28 194 28 238 28 c 0,26,27
 290 28 290 28 328 77 c 1,28,-1
 328 408 l 1,29,-1
 268 416 l 1,30,-1
 268 424 l 1,31,-1
 393 424 l 1,32,-1
 393 62 l 1,33,-1
 448 50 l 1,34,-1
 448 45 l 1,35,-1
 339 -5 l 1,36,-1
 333 -5 l 1,37,-1
 333 63 l 1,38,-1
 330 64 l 1,39,40
 271 -10 271 -10 204 -10 c 0,41,42
 141 -10 141 -10 118 51 c 1,43,-1
 113 49 l 1,0,1
EndSplineSet
EndChar
StartChar: paragraph
Encoding: 182 182 119
Width: 473
Flags: W
LayerCount: 2
Back
Fore
SplineSet
273 -108 m 1,0,-1
 273 299 l 1,1,-1
 222 299 l 2,2,3
 179 299 179 299 144 314.5 c 128,-1,4
 109 330 109 330 84.5 356.5 c 128,-1,5
 60 383 60 383 47 418.5 c 128,-1,6
 34 454 34 454 34 493 c 0,7,8
 34 584 34 584 90 637 c 128,-1,9
 146 690 146 690 245 690 c 2,10,-1
 433 690 l 1,11,-1
 433 681 l 1,12,-1
 357 674 l 1,13,-1
 357 -108 l 1,14,-1
 335 -108 l 1,15,-1
 335 676 l 1,16,-1
 295 676 l 1,17,-1
 295 -108 l 1,18,-1
 273 -108 l 1,0,-1
EndSplineSet
EndChar
StartChar: periodcentered
Encoding: 183 183 120
Width: 233
Flags: W
LayerCount: 2
Back
Fore
SplineSet
65 238 m 256,0,1
 65 260 65 260 79.5 274.5 c 128,-1,2
 94 289 94 289 117 289 c 256,3,4
 140 289 140 289 154 274.5 c 128,-1,5
 168 260 168 260 168 238 c 256,6,7
 168 216 168 216 154 201 c 128,-1,8
 140 186 140 186 117 186 c 256,9,10
 94 186 94 186 79.5 201 c 128,-1,11
 65 216 65 216 65 238 c 256,0,1
EndSplineSet
EndChar
StartChar: cedilla
Encoding: 184 184 121
Width: 271
Flags: W
LayerCount: 2
Back
Fore
SplineSet
47 -202 m 1,0,1
 69 -212 69 -212 97 -212 c 0,2,3
 129 -212 129 -212 148 -199.5 c 128,-1,4
 167 -187 167 -187 167 -166 c 0,5,6
 167 -146 167 -146 151.5 -135 c 128,-1,7
 136 -124 136 -124 110 -124 c 0,8,9
 87 -124 87 -124 72 -130 c 1,10,-1
 69 -127 l 1,11,-1
 124 1 l 1,12,-1
 136 1 l 1,13,-1
 104 -74 l 1,14,15
 111 -72 111 -72 116 -72 c 128,-1,16
 121 -72 121 -72 131 -72 c 0,17,18
 173 -72 173 -72 199.5 -92 c 128,-1,19
 226 -112 226 -112 226 -144 c 0,20,21
 226 -179 226 -179 195.5 -202.5 c 128,-1,22
 165 -226 165 -226 118 -226 c 0,23,24
 69 -226 69 -226 45 -205 c 1,25,-1
 47 -202 l 1,0,1
EndSplineSet
EndChar
StartChar: onesuperior
Encoding: 185 185 122
Width: 191
Flags: W
LayerCount: 2
Back
Fore
SplineSet
75 806 m 1,0,-1
 29 806 l 1,1,-1
 29 811 l 1,2,3
 65 815 65 815 85 825.5 c 128,-1,4
 105 836 105 836 122 858 c 1,5,-1
 127 857 l 1,6,-1
 127 548 l 1,7,-1
 168 544 l 1,8,-1
 168 536 l 1,9,-1
 29 536 l 1,10,-1
 29 544 l 1,11,-1
 75 548 l 1,12,-1
 75 806 l 1,0,-1
EndSplineSet
EndChar
StartChar: ordmasculine
Encoding: 186 186 123
Width: 362
Flags: W
LayerCount: 2
Back
Fore
SplineSet
181 834 m 256,0,1
 211 834 211 834 236 823 c 128,-1,2
 261 812 261 812 279 792 c 128,-1,3
 297 772 297 772 307 744 c 128,-1,4
 317 716 317 716 317 682 c 256,5,6
 317 648 317 648 307 620 c 128,-1,7
 297 592 297 592 279 571.5 c 128,-1,8
 261 551 261 551 236 540 c 128,-1,9
 211 529 211 529 181 529 c 256,10,11
 151 529 151 529 126 540 c 128,-1,12
 101 551 101 551 83 571.5 c 128,-1,13
 65 592 65 592 55 620 c 128,-1,14
 45 648 45 648 45 682 c 256,15,16
 45 716 45 716 55 744 c 128,-1,17
 65 772 65 772 83 792 c 128,-1,18
 101 812 101 812 126 823 c 128,-1,19
 151 834 151 834 181 834 c 256,0,1
106 682 m 256,20,21
 106 614 106 614 125.5 576.5 c 128,-1,22
 145 539 145 539 181 539 c 0,23,24
 216 539 216 539 236 576.5 c 128,-1,25
 256 614 256 614 256 682 c 256,26,27
 256 750 256 750 236 787 c 128,-1,28
 216 824 216 824 181 824 c 0,29,30
 145 824 145 824 125.5 787 c 128,-1,31
 106 750 106 750 106 682 c 256,20,21
EndSplineSet
EndChar
StartChar: guillemotright
Encoding: 187 187 124
Width: 373
Flags: W
LayerCount: 2
Back
Fore
SplineSet
171 30 m 1,0,-1
 261 210 l 1,1,-1
 174 388 l 1,2,-1
 177 390 l 1,3,-1
 324 212 l 1,4,-1
 324 207 l 1,5,-1
 175 27 l 1,6,-1
 171 30 l 1,0,-1
53 30 m 1,7,-1
 143 210 l 1,8,-1
 56 388 l 1,9,-1
 59 390 l 1,10,-1
 206 212 l 1,11,-1
 206 207 l 1,12,-1
 57 27 l 1,13,-1
 53 30 l 1,7,-1
EndSplineSet
EndChar
StartChar: questiondown
Encoding: 191 191 128
Width: 352
Flags: W
LayerCount: 2
Back
Fore
SplineSet
251 296 m 1,0,-1
 259 64 l 1,1,-1
 232 64 l 2,2,3
 140 64 140 64 98 44.5 c 128,-1,4
 56 25 56 25 56 -19 c 0,5,6
 56 -48 56 -48 73 -68.5 c 128,-1,7
 90 -89 90 -89 115.5 -103.5 c 128,-1,8
 141 -118 141 -118 170.5 -129.5 c 128,-1,9
 200 -141 200 -141 225.5 -152.5 c 128,-1,10
 251 -164 251 -164 268 -178.5 c 128,-1,11
 285 -193 285 -193 285 -214 c 0,12,13
 285 -246 285 -246 241 -246 c 0,14,15
 205 -246 205 -246 169 -225.5 c 128,-1,16
 133 -205 133 -205 105 -171 c 128,-1,17
 77 -137 77 -137 59.5 -95 c 128,-1,18
 42 -53 42 -53 42 -9 c 0,19,20
 42 60 42 60 85.5 100 c 128,-1,21
 129 140 129 140 207 143 c 2,22,-1
 233 144 l 1,23,-1
 241 296 l 1,24,-1
 251 296 l 1,0,-1
298 428 m 256,25,26
 298 407 298 407 284.5 393.5 c 128,-1,27
 271 380 271 380 250 380 c 256,28,29
 229 380 229 380 215.5 393.5 c 128,-1,30
 202 407 202 407 202 428 c 256,31,32
 202 449 202 449 215.5 462.5 c 128,-1,33
 229 476 229 476 250 476 c 256,34,35
 271 476 271 476 284.5 462.5 c 128,-1,36
 298 449 298 449 298 428 c 256,25,26
EndSplineSet
EndChar
StartChar: AE
Encoding: 198 198 135
Width: 851
Flags: W
LayerCount: 2
Back
Fore
SplineSet
496 678 m 1,0,-1
 496 371 l 1,1,-1
 585 371 l 2,2,3
 609 371 609 371 618.5 379 c 128,-1,4
 628 387 628 387 633 410 c 2,5,-1
 650 491 l 1,6,-1
 662 491 l 1,7,-1
 662 235 l 1,8,-1
 650 235 l 1,9,-1
 633 316 l 2,10,11
 628 339 628 339 618.5 347 c 128,-1,12
 609 355 609 355 585 355 c 2,13,-1
 496 355 l 1,14,-1
 496 12 l 1,15,-1
 660 12 l 2,16,17
 684 12 684 12 695 19 c 128,-1,18
 706 26 706 26 715 49 c 2,19,-1
 781 211 l 1,20,-1
 792 210 l 1,21,-1
 767 0 l 1,22,-1
 337 0 l 1,23,-1
 337 8 l 1,24,-1
 419 16 l 1,25,-1
 419 274 l 1,26,-1
 227 274 l 1,27,-1
 98 53 l 2,28,29
 93 45 93 45 91 39.5 c 128,-1,30
 89 34 89 34 89 29 c 0,31,32
 89 21 89 21 95 18 c 128,-1,33
 101 15 101 15 114 13 c 2,34,-1
 174 8 l 1,35,-1
 172 0 l 1,36,-1
 -40 0 l 1,37,-1
 -38 8 l 1,38,-1
 19 13 l 2,39,40
 32 14 32 14 41 16 c 128,-1,41
 50 18 50 18 56.5 22.5 c 128,-1,42
 63 27 63 27 69 34.5 c 128,-1,43
 75 42 75 42 82 53 c 2,44,-1
 419 627 l 1,45,-1
 419 674 l 1,46,-1
 337 682 l 1,47,-1
 337 690 l 1,48,-1
 768 690 l 1,49,-1
 782 502 l 1,50,-1
 772 501 l 1,51,-1
 716 641 l 2,52,53
 707 664 707 664 696.5 671 c 128,-1,54
 686 678 686 678 662 678 c 2,55,-1
 496 678 l 1,0,-1
415 595 m 1,56,-1
 237 290 l 1,57,-1
 419 290 l 1,58,-1
 419 595 l 1,59,-1
 415 595 l 1,56,-1
EndSplineSet
EndChar
StartChar: Ccedilla
Encoding: 199 199 136
Width: 676
Flags: W
LayerCount: 2
Back
Fore
SplineSet
286 -206 m 1,0,1
 308 -216 308 -216 336 -216 c 0,2,3
 368 -216 368 -216 387 -203.5 c 128,-1,4
 406 -191 406 -191 406 -170 c 0,5,6
 406 -150 406 -150 390.5 -139 c 128,-1,7
 375 -128 375 -128 349 -128 c 0,8,9
 326 -128 326 -128 311 -134 c 1,10,-1
 308 -131 l 1,11,-1
 357 -15 l 1,12,13
 292 -13 292 -13 236.5 15.5 c 128,-1,14
 181 44 181 44 140 92 c 128,-1,15
 99 140 99 140 75.5 205 c 128,-1,16
 52 270 52 270 52 345 c 0,17,18
 52 421 52 421 76.5 486.5 c 128,-1,19
 101 552 101 552 143 601 c 128,-1,20
 185 650 185 650 242 678 c 128,-1,21
 299 706 299 706 365 706 c 0,22,23
 410 706 410 706 457 692 c 128,-1,24
 504 678 504 678 563 646 c 1,25,-1
 587 694 l 1,26,-1
 600 694 l 1,27,-1
 610 469 l 1,28,-1
 596 465 l 1,29,30
 582 542 582 542 552 592 c 256,31,32
 522 642 522 642 474 668 c 128,-1,33
 426 694 426 694 368 694 c 0,34,35
 261 694 261 694 204.5 603.5 c 128,-1,36
 148 513 148 513 148 345 c 0,37,38
 148 178 148 178 204.5 88 c 128,-1,39
 261 -2 261 -2 367 -2 c 0,40,41
 413 -2 413 -2 455 17.5 c 128,-1,42
 497 37 497 37 526 68 c 0,43,44
 556 102 556 102 573 146 c 128,-1,45
 590 190 590 190 600 232 c 1,46,-1
 613 230 l 1,47,-1
 613 0 l 1,48,-1
 600 0 l 1,49,-1
 566 55 l 1,50,51
 521 23 521 23 470 4 c 128,-1,52
 419 -15 419 -15 369 -16 c 1,53,-1
 343 -78 l 1,54,55
 350 -76 350 -76 355 -76 c 128,-1,56
 360 -76 360 -76 370 -76 c 0,57,58
 412 -76 412 -76 438.5 -96 c 128,-1,59
 465 -116 465 -116 465 -148 c 0,60,61
 465 -183 465 -183 434.5 -206.5 c 128,-1,62
 404 -230 404 -230 357 -230 c 0,63,64
 308 -230 308 -230 284 -209 c 1,65,-1
 286 -206 l 1,0,1
EndSplineSet
EndChar
StartChar: Eth
Encoding: 208 208 145
Width: 715
Flags: W
LayerCount: 2
Back
Fore
SplineSet
51 363 m 1,0,-1
 133 363 l 1,1,-1
 133 674 l 1,2,-1
 51 682 l 1,3,-1
 51 690 l 1,4,-1
 317 690 l 2,5,6
 453 690 453 690 530 637 c 0,7,8
 592 594 592 594 625.5 519 c 128,-1,9
 659 444 659 444 659 349 c 0,10,11
 659 253 659 253 625 176 c 128,-1,12
 591 99 591 99 530 54 c 0,13,14
 491 25 491 25 440.5 12.5 c 128,-1,15
 390 0 390 0 317 0 c 2,16,-1
 51 0 l 1,17,-1
 51 8 l 1,18,-1
 133 16 l 1,19,-1
 133 341 l 1,20,-1
 51 341 l 1,21,-1
 51 363 l 1,0,-1
308 12 m 2,22,23
 348 12 348 12 377 15 c 128,-1,24
 406 18 406 18 428 25 c 128,-1,25
 450 32 450 32 465.5 43 c 128,-1,26
 481 54 481 54 494 71 c 0,27,28
 526 113 526 113 544.5 187.5 c 128,-1,29
 563 262 563 262 563 354 c 0,30,31
 563 443 563 443 545.5 511 c 128,-1,32
 528 579 528 579 494 619 c 0,33,34
 480 635 480 635 463.5 646.5 c 128,-1,35
 447 658 447 658 425.5 665 c 128,-1,36
 404 672 404 672 375 675 c 128,-1,37
 346 678 346 678 308 678 c 2,38,-1
 210 678 l 1,39,-1
 210 363 l 1,40,-1
 335 363 l 1,41,-1
 335 341 l 1,42,-1
 210 341 l 1,43,-1
 210 12 l 1,44,-1
 308 12 l 2,22,23
EndSplineSet
EndChar
StartChar: multiply
Encoding: 215 215 152
Width: 466
Flags: W
LayerCount: 2
Back
Fore
SplineSet
101 492 m 1,0,-1
 233 360 l 1,1,-1
 365 492 l 1,2,-1
 380 478 l 1,3,-1
 247 345 l 1,4,-1
 381 212 l 1,5,-1
 366 198 l 1,6,-1
 233 331 l 1,7,-1
 100 198 l 1,8,-1
 85 212 l 1,9,-1
 218 345 l 1,10,-1
 86 478 l 1,11,-1
 101 492 l 1,0,-1
EndSplineSet
EndChar
StartChar: Oslash
Encoding: 216 216 153
Width: 734
Flags: W
LayerCount: 2
Back
Fore
SplineSet
367 706 m 0,0,1
 449 706 449 706 517 664 c 1,2,-1
 561 750 l 1,3,-1
 584 750 l 1,4,-1
 534 653 l 1,5,6
 602 605 602 605 642 525 c 128,-1,7
 682 445 682 445 682 345 c 0,8,9
 682 269 682 269 657.5 203 c 128,-1,10
 633 137 633 137 590.5 88.5 c 128,-1,11
 548 40 548 40 490.5 12 c 128,-1,12
 433 -16 433 -16 367 -16 c 0,13,14
 325 -16 325 -16 287 -5 c 128,-1,15
 249 6 249 6 215 26 c 1,16,-1
 164 -75 l 1,17,-1
 141 -75 l 1,18,-1
 198 38 l 1,19,20
 131 86 131 86 91.5 165.5 c 128,-1,21
 52 245 52 245 52 345 c 0,22,23
 52 421 52 421 76.5 487 c 128,-1,24
 101 553 101 553 143.5 601.5 c 128,-1,25
 186 650 186 650 243.5 678 c 128,-1,26
 301 706 301 706 367 706 c 0,0,1
367 -3 m 0,27,28
 473 -3 473 -3 529.5 87 c 128,-1,29
 586 177 586 177 586 345 c 0,30,31
 586 530 586 530 517 620 c 1,32,-1
 230 55 l 1,33,34
 283 -3 283 -3 367 -3 c 0,27,28
148 345 m 0,35,36
 148 161 148 161 216 72 c 1,37,-1
 503 636 l 1,38,39
 450 694 450 694 367 694 c 0,40,41
 261 694 261 694 204.5 603.5 c 128,-1,42
 148 513 148 513 148 345 c 0,35,36
EndSplineSet
EndChar
StartChar: Thorn
Encoding: 222 222 159
Width: 571
Flags: W
LayerCount: 2
Back
Fore
SplineSet
122 16 m 1,0,-1
 122 674 l 1,1,-1
 40 682 l 1,2,-1
 40 690 l 1,3,-1
 297 690 l 1,4,-1
 297 682 l 1,5,-1
 199 674 l 1,6,-1
 199 549 l 1,7,-1
 293 549 l 2,8,9
 411 549 411 549 473 499 c 128,-1,10
 535 449 535 449 535 358 c 0,11,12
 535 260 535 260 473 209.5 c 128,-1,13
 411 159 411 159 293 159 c 2,14,-1
 199 159 l 1,15,-1
 199 16 l 1,16,-1
 297 8 l 1,17,-1
 297 0 l 1,18,-1
 40 0 l 1,19,-1
 40 8 l 1,20,-1
 122 16 l 1,0,-1
290 171 m 2,21,22
 371 171 371 171 408 217 c 128,-1,23
 445 263 445 263 445 363 c 0,24,25
 445 400 445 400 438.5 431.5 c 128,-1,26
 432 463 432 463 414.5 486.5 c 128,-1,27
 397 510 397 510 367 523.5 c 128,-1,28
 337 537 337 537 290 537 c 2,29,-1
 199 537 l 1,30,-1
 199 171 l 1,31,-1
 290 171 l 2,21,22
EndSplineSet
EndChar
StartChar: germandbls
Encoding: 223 223 160
Width: 504
Flags: W
LayerCount: 2
Back
Fore
SplineSet
246 733 m 0,0,1
 307 733 307 733 344 703.5 c 128,-1,2
 381 674 381 674 381 625 c 0,3,4
 381 598 381 598 370.5 579 c 128,-1,5
 360 560 360 560 344 544.5 c 128,-1,6
 328 529 328 529 310 516 c 128,-1,7
 292 503 292 503 276 488.5 c 128,-1,8
 260 474 260 474 249.5 457 c 128,-1,9
 239 440 239 440 239 416 c 0,10,11
 239 385 239 385 256.5 365 c 128,-1,12
 274 345 274 345 300 329 c 128,-1,13
 326 313 326 313 357 298 c 128,-1,14
 388 283 388 283 414 262 c 128,-1,15
 440 241 440 241 457.5 210.5 c 128,-1,16
 475 180 475 180 475 134 c 0,17,18
 475 68 475 68 435.5 29 c 128,-1,19
 396 -10 396 -10 327 -10 c 0,20,21
 301 -10 301 -10 266.5 -4.5 c 128,-1,22
 232 1 232 1 206 9 c 1,23,-1
 201 138 l 1,24,-1
 213 138 l 1,25,26
 233 1 233 1 327 1 c 0,27,28
 369 1 369 1 393 26 c 128,-1,29
 417 51 417 51 417 96 c 0,30,31
 417 133 417 133 402.5 159 c 128,-1,32
 388 185 388 185 366 204.5 c 128,-1,33
 344 224 344 224 319 241 c 128,-1,34
 294 258 294 258 272 278.5 c 128,-1,35
 250 299 250 299 235.5 326 c 128,-1,36
 221 353 221 353 221 392 c 0,37,38
 221 433 221 433 236 457.5 c 128,-1,39
 251 482 251 482 269 503 c 128,-1,40
 287 524 287 524 302 550 c 128,-1,41
 317 576 317 576 317 620 c 0,42,43
 317 668 317 668 295 694.5 c 128,-1,44
 273 721 273 721 234 721 c 0,45,46
 142 721 142 721 142 560 c 2,47,-1
 142 0 l 1,48,-1
 16 0 l 1,49,-1
 16 8 l 1,50,-1
 77 16 l 1,51,-1
 77 455 l 2,52,53
 77 506 77 506 78 538.5 c 128,-1,54
 79 571 79 571 81.5 593 c 128,-1,55
 84 615 84 615 88.5 629 c 128,-1,56
 93 643 93 643 101 656 c 0,57,58
 123 693 123 693 160.5 713 c 128,-1,59
 198 733 198 733 246 733 c 0,0,1
EndSplineSet
EndChar
StartChar: ae
Encoding: 230 230 167
Width: 613
Flags: W
LayerCount: 2
Back
Fore
SplineSet
130 -7 m 0,0,1
 92 -7 92 -7 67.5 19.5 c 128,-1,2
 43 46 43 46 43 88 c 0,3,4
 43 113 43 113 53.5 132.5 c 128,-1,5
 64 152 64 152 88 168 c 128,-1,6
 112 184 112 184 150 196.5 c 128,-1,7
 188 209 188 209 243 220 c 1,8,-1
 243 311 l 2,9,10
 243 369 243 369 230 391.5 c 128,-1,11
 217 414 217 414 185 414 c 0,12,13
 154 414 154 414 135 397.5 c 128,-1,14
 116 381 116 381 116 353 c 0,15,16
 116 348 116 348 116.5 340.5 c 128,-1,17
 117 333 117 333 117 326 c 0,18,19
 117 300 117 300 107.5 286 c 128,-1,20
 98 272 98 272 81 272 c 0,21,22
 66 272 66 272 56.5 282 c 128,-1,23
 47 292 47 292 47 308 c 0,24,25
 47 332 47 332 70.5 360 c 128,-1,26
 94 388 94 388 131 408 c 0,27,28
 178 433 178 433 224 433 c 0,29,30
 281 433 281 433 303 384 c 1,31,32
 322 407 322 407 356 420.5 c 128,-1,33
 390 434 390 434 430 434 c 0,34,35
 572 434 572 434 577 272 c 1,36,-1
 571 267 l 1,37,-1
 310 267 l 1,38,39
 309 257 309 257 309 247.5 c 128,-1,40
 309 238 309 238 309 228 c 0,41,42
 309 137 309 137 342 88.5 c 128,-1,43
 375 40 375 40 437 40 c 0,44,45
 473 40 473 40 505 56.5 c 128,-1,46
 537 73 537 73 560 102 c 2,47,-1
 569 114 l 1,48,-1
 573 112 l 1,49,-1
 569 101 l 2,50,51
 549 48 549 48 509.5 19 c 128,-1,52
 470 -10 470 -10 417 -10 c 0,53,54
 365 -10 365 -10 324.5 14.5 c 128,-1,55
 284 39 284 39 264 79 c 1,56,57
 237 37 237 37 201.5 15 c 128,-1,58
 166 -7 166 -7 130 -7 c 0,0,1
425 423 m 0,59,60
 378 423 378 423 349 385 c 128,-1,61
 320 347 320 347 312 278 c 1,62,-1
 496 285 l 1,63,64
 498 290 498 290 498.5 301 c 128,-1,65
 499 312 499 312 499 324 c 0,66,67
 499 423 499 423 425 423 c 0,59,60
173 31 m 0,68,69
 226 31 226 31 258 91 c 1,70,71
 256 96 256 96 254 102.5 c 128,-1,72
 252 109 252 109 250.5 121.5 c 128,-1,73
 249 134 249 134 247 155 c 128,-1,74
 245 176 245 176 244 209 c 1,75,76
 205 199 205 199 179.5 189.5 c 128,-1,77
 154 180 154 180 138.5 168 c 128,-1,78
 123 156 123 156 116.5 141.5 c 128,-1,79
 110 127 110 127 110 107 c 0,80,81
 110 72 110 72 127 51.5 c 128,-1,82
 144 31 144 31 173 31 c 0,68,69
EndSplineSet
EndChar
StartChar: ccedilla
Encoding: 231 231 168
Width: 406
Flags: W
LayerCount: 2
Back
Fore
SplineSet
144 -202 m 1,0,1
 166 -212 166 -212 194 -212 c 0,2,3
 226 -212 226 -212 245 -199.5 c 128,-1,4
 264 -187 264 -187 264 -166 c 0,5,6
 264 -146 264 -146 248.5 -135 c 128,-1,7
 233 -124 233 -124 207 -124 c 0,8,9
 184 -124 184 -124 169 -130 c 1,10,-1
 166 -127 l 1,11,-1
 216 -10 l 1,12,13
 177 -9 177 -9 145 8 c 128,-1,14
 113 25 113 25 89.5 53.5 c 128,-1,15
 66 82 66 82 53 121 c 128,-1,16
 40 160 40 160 40 207 c 0,17,18
 40 256 40 256 54.5 298 c 128,-1,19
 69 340 69 340 95.5 370 c 128,-1,20
 122 400 122 400 158 417 c 128,-1,21
 194 434 194 434 238 434 c 0,22,23
 266 434 266 434 290 427.5 c 128,-1,24
 314 421 314 421 332 409 c 128,-1,25
 350 397 350 397 360.5 381 c 128,-1,26
 371 365 371 365 371 347 c 0,27,28
 371 330 371 330 361 319.5 c 128,-1,29
 351 309 351 309 334 309 c 0,30,31
 310 309 310 309 303 327 c 128,-1,32
 296 345 296 345 291.5 366.5 c 128,-1,33
 287 388 287 388 276 406 c 128,-1,34
 265 424 265 424 234 424 c 0,35,36
 207 424 207 424 183.5 409 c 128,-1,37
 160 394 160 394 143 367 c 128,-1,38
 126 340 126 340 116.5 303 c 128,-1,39
 107 266 107 266 107 222 c 0,40,41
 107 134 107 134 144 86.5 c 128,-1,42
 181 39 181 39 249 39 c 0,43,44
 322 39 322 39 370 102 c 2,45,-1
 379 114 l 1,46,-1
 383 112 l 1,47,-1
 379 101 l 2,48,49
 359 49 359 49 320.5 20.5 c 128,-1,50
 282 -8 282 -8 228 -10 c 1,51,-1
 201 -74 l 1,52,53
 208 -72 208 -72 213 -72 c 128,-1,54
 218 -72 218 -72 228 -72 c 0,55,56
 270 -72 270 -72 296.5 -92 c 128,-1,57
 323 -112 323 -112 323 -144 c 0,58,59
 323 -179 323 -179 292.5 -202.5 c 128,-1,60
 262 -226 262 -226 215 -226 c 0,61,62
 166 -226 166 -226 142 -205 c 1,63,-1
 144 -202 l 1,0,1
EndSplineSet
EndChar
StartChar: eth
Encoding: 240 240 177
Width: 511
Flags: W
LayerCount: 2
Back
Fore
SplineSet
417 666 m 1,0,-1
 301 599 l 1,1,2
 375 529 375 529 417 438.5 c 128,-1,3
 459 348 459 348 459 245 c 0,4,5
 459 122 459 122 403.5 53 c 128,-1,6
 348 -16 348 -16 248 -16 c 0,7,8
 201 -16 201 -16 163 -0.5 c 128,-1,9
 125 15 125 15 98 43.5 c 128,-1,10
 71 72 71 72 56 112.5 c 128,-1,11
 41 153 41 153 41 202 c 0,12,13
 41 250 41 250 55 289 c 128,-1,14
 69 328 69 328 94.5 355.5 c 128,-1,15
 120 383 120 383 156.5 398 c 128,-1,16
 193 413 193 413 238 413 c 0,17,18
 274 413 274 413 301 403 c 128,-1,19
 328 393 328 393 354 370 c 1,20,21
 345 437 345 437 326.5 488 c 128,-1,22
 308 539 308 539 273 583 c 1,23,-1
 141 507 l 1,24,-1
 141 525 l 1,25,-1
 262 595 l 1,26,27
 236 624 236 624 201.5 651 c 128,-1,28
 167 678 167 678 122 706 c 1,29,-1
 126 714 l 1,30,31
 217 675 217 675 289 611 c 1,32,-1
 417 685 l 1,33,-1
 417 666 l 1,0,-1
252 -4 m 256,34,35
 308 -4 308 -4 337.5 51.5 c 128,-1,36
 367 107 367 107 367 213 c 0,37,38
 367 247 367 247 364 284 c 128,-1,39
 361 321 361 321 356 352 c 1,40,41
 339 369 339 369 313.5 379 c 128,-1,42
 288 389 288 389 261 389 c 0,43,44
 199 389 199 389 166.5 338.5 c 128,-1,45
 134 288 134 288 134 194 c 256,46,47
 134 100 134 100 165 48 c 128,-1,48
 196 -4 196 -4 252 -4 c 256,34,35
EndSplineSet
EndChar
StartChar: divide
Encoding: 247 247 184
Width: 498
Flags: W
LayerCount: 2
Back
Fore
SplineSet
79 355 m 1,0,-1
 419 355 l 1,1,-1
 419 333 l 1,2,-1
 79 333 l 1,3,-1
 79 355 l 1,0,-1
199 502 m 256,4,5
 199 522 199 522 212 536 c 128,-1,6
 225 550 225 550 247 550 c 256,7,8
 269 550 269 550 282 536 c 128,-1,9
 295 522 295 522 295 502 c 256,10,11
 295 482 295 482 282 468 c 128,-1,12
 269 454 269 454 247 454 c 256,13,14
 225 454 225 454 212 468 c 128,-1,15
 199 482 199 482 199 502 c 256,4,5
199 186 m 256,16,17
 199 206 199 206 212 220 c 128,-1,18
 225 234 225 234 247 234 c 256,19,20
 269 234 269 234 282 220 c 128,-1,21
 295 206 295 206 295 186 c 256,22,23
 295 166 295 166 282 152 c 128,-1,24
 269 138 269 138 247 138 c 256,25,26
 225 138 225 138 212 152 c 128,-1,27
 199 166 199 166 199 186 c 256,16,17
EndSplineSet
EndChar
StartChar: thorn
Encoding: 254 254 191
Width: 466
Flags: W
LayerCount: 2
Back
Fore
SplineSet
425 224 m 0,0,1
 425 173 425 173 410 130 c 128,-1,2
 395 87 395 87 367.5 56 c 128,-1,3
 340 25 340 25 302.5 7.5 c 128,-1,4
 265 -10 265 -10 220 -10 c 0,5,6
 178 -10 178 -10 138 8 c 1,7,-1
 138 -216 l 1,8,-1
 228 -227 l 1,9,-1
 228 -234 l 1,10,-1
 12 -234 l 1,11,-1
 12 -226 l 1,12,-1
 73 -218 l 1,13,-1
 73 653 l 1,14,-1
 14 675 l 1,15,-1
 14 682 l 1,16,-1
 130 721 l 1,17,-1
 138 721 l 1,18,-1
 138 377 l 1,19,20
 190 434 190 434 261 434 c 0,21,22
 298 434 298 434 328.5 418.5 c 128,-1,23
 359 403 359 403 380.5 375 c 128,-1,24
 402 347 402 347 413.5 308.5 c 128,-1,25
 425 270 425 270 425 224 c 0,0,1
227 0 m 0,26,27
 254 0 254 0 277 15 c 128,-1,28
 300 30 300 30 317 57.5 c 128,-1,29
 334 85 334 85 343.5 123 c 128,-1,30
 353 161 353 161 353 207 c 0,31,32
 353 299 353 299 319.5 351.5 c 128,-1,33
 286 404 286 404 227 404 c 0,34,35
 200 404 200 404 176.5 393 c 128,-1,36
 153 382 153 382 138 362 c 1,37,-1
 138 71 l 2,38,39
 138 57 138 57 145 44 c 128,-1,40
 152 31 152 31 164.5 21 c 128,-1,41
 177 11 177 11 193 5.5 c 128,-1,42
 209 0 209 0 227 0 c 0,26,27
EndSplineSet
EndChar
StartChar: Aogonek
Encoding: 260 260 197
Width: 653
Flags: W
LayerCount: 2
Back
Fore
SplineSet
175 8 m 1,0,-1
 175 0 l 1,1,-1
 -38 0 l 1,2,-1
 -38 8 l 1,3,-1
 18 13 l 2,4,5
 43 15 43 15 53.5 22.5 c 128,-1,6
 64 30 64 30 72 53 c 2,7,-1
 317 706 l 1,8,-1
 335 706 l 1,9,-1
 587 18 l 1,10,-1
 670 8 l 1,11,-1
 670 0 l 1,12,-1
 555 0 l 1,13,14
 532 -26 532 -26 515.5 -63.5 c 128,-1,15
 499 -101 499 -101 499 -132 c 0,16,17
 499 -164 499 -164 515.5 -181 c 128,-1,18
 532 -198 532 -198 561 -198 c 0,19,20
 578 -198 578 -198 593.5 -192.5 c 128,-1,21
 609 -187 609 -187 623 -173 c 1,22,-1
 626 -178 l 1,23,24
 585 -226 585 -226 528 -226 c 0,25,26
 486 -226 486 -226 462 -205 c 128,-1,27
 438 -184 438 -184 438 -149 c 256,28,29
 438 -114 438 -114 464.5 -75 c 128,-1,30
 491 -36 491 -36 539 0 c 1,31,-1
 425 0 l 1,32,-1
 425 8 l 1,33,-1
 507 18 l 1,34,-1
 413 274 l 1,35,-1
 171 274 l 1,36,-1
 88 53 l 2,37,38
 84 42 84 42 84 35 c 0,39,40
 84 24 84 24 90.5 19.5 c 128,-1,41
 97 15 97 15 114 13 c 2,42,-1
 175 8 l 1,0,-1
291 595 m 1,43,-1
 177 290 l 1,44,-1
 407 290 l 1,45,-1
 295 595 l 1,46,-1
 291 595 l 1,43,-1
EndSplineSet
EndChar
StartChar: aogonek
Encoding: 261 261 198
Width: 391
Flags: W
LayerCount: 2
Back
Fore
SplineSet
389 -178 m 1,0,1
 348 -226 348 -226 291 -226 c 0,2,3
 249 -226 249 -226 225 -205 c 128,-1,4
 201 -184 201 -184 201 -149 c 256,5,6
 201 -114 201 -114 230 -76 c 128,-1,7
 259 -38 259 -38 312 -3 c 1,8,9
 283 -3 283 -3 266 12.5 c 128,-1,10
 249 28 249 28 247 54 c 1,11,-1
 244 55 l 1,12,13
 221 26 221 26 191 9.5 c 128,-1,14
 161 -7 161 -7 130 -7 c 0,15,16
 92 -7 92 -7 67.5 19.5 c 128,-1,17
 43 46 43 46 43 88 c 0,18,19
 43 113 43 113 53.5 132.5 c 128,-1,20
 64 152 64 152 88 168 c 128,-1,21
 112 184 112 184 150 196.5 c 128,-1,22
 188 209 188 209 243 220 c 1,23,-1
 243 311 l 2,24,25
 243 369 243 369 230 391.5 c 128,-1,26
 217 414 217 414 185 414 c 0,27,28
 154 414 154 414 135 397.5 c 128,-1,29
 116 381 116 381 116 353 c 0,30,31
 116 348 116 348 116.5 340.5 c 128,-1,32
 117 333 117 333 117 326 c 0,33,34
 117 300 117 300 107.5 286 c 128,-1,35
 98 272 98 272 81 272 c 0,36,37
 66 272 66 272 56.5 282 c 128,-1,38
 47 292 47 292 47 308 c 0,39,40
 47 332 47 332 70.5 360 c 128,-1,41
 94 388 94 388 131 408 c 0,42,43
 153 420 153 420 177 426.5 c 128,-1,44
 201 433 201 433 224 433 c 0,45,46
 281 433 281 433 300 391 c 0,47,48
 303 384 303 384 304.5 377 c 128,-1,49
 306 370 306 370 306.5 358.5 c 128,-1,50
 307 347 307 347 307.5 330 c 128,-1,51
 308 313 308 313 308 286 c 2,52,-1
 308 95 l 2,53,54
 308 59 308 59 315 45.5 c 128,-1,55
 322 32 322 32 340 32 c 0,56,57
 367 32 367 32 380 51 c 1,58,-1
 384 49 l 1,59,60
 374 29 374 29 359 16.5 c 128,-1,61
 344 4 344 4 327 -1 c 1,62,63
 315 -12 315 -12 303 -28 c 128,-1,64
 291 -44 291 -44 282 -62 c 128,-1,65
 273 -80 273 -80 267.5 -98 c 128,-1,66
 262 -116 262 -116 262 -132 c 0,67,68
 262 -164 262 -164 278.5 -181 c 128,-1,69
 295 -198 295 -198 324 -198 c 0,70,71
 341 -198 341 -198 356.5 -192.5 c 128,-1,72
 372 -187 372 -187 386 -173 c 1,73,-1
 389 -178 l 1,0,1
173 31 m 0,74,75
 193 31 193 31 212 40.5 c 128,-1,76
 231 50 231 50 243 68 c 1,77,-1
 243 209 l 1,78,79
 205 200 205 200 179.5 190.5 c 128,-1,80
 154 181 154 181 138.5 169 c 128,-1,81
 123 157 123 157 116.5 142 c 128,-1,82
 110 127 110 127 110 107 c 0,83,84
 110 72 110 72 127 51.5 c 128,-1,85
 144 31 144 31 173 31 c 0,74,75
EndSplineSet
EndChar
StartChar: dcroat
Encoding: 273 273 210
Width: 472
Flags: W
LayerCount: 2
Back
Fore
SplineSet
206 -10 m 0,0,1
 170 -10 170 -10 140 6 c 128,-1,2
 110 22 110 22 87.5 50.5 c 128,-1,3
 65 79 65 79 52.5 118.5 c 128,-1,4
 40 158 40 158 40 204 c 0,5,6
 40 255 40 255 55.5 297.5 c 128,-1,7
 71 340 71 340 99 370 c 128,-1,8
 127 400 127 400 166 417 c 128,-1,9
 205 434 205 434 252 434 c 0,10,11
 291 434 291 434 330 422 c 1,12,-1
 330 531 l 1,13,-1
 234 531 l 1,14,-1
 234 553 l 1,15,-1
 330 553 l 1,16,-1
 330 653 l 1,17,-1
 271 675 l 1,18,-1
 271 682 l 1,19,-1
 387 721 l 1,20,-1
 395 721 l 1,21,-1
 395 553 l 1,22,-1
 448 553 l 1,23,-1
 448 531 l 1,24,-1
 395 531 l 1,25,-1
 395 62 l 1,26,-1
 450 50 l 1,27,-1
 450 45 l 1,28,-1
 341 -5 l 1,29,-1
 335 -5 l 1,30,-1
 335 63 l 1,31,-1
 332 64 l 1,32,33
 284 -10 284 -10 206 -10 c 0,0,1
241 30 m 0,34,35
 270 30 270 30 293.5 42 c 128,-1,36
 317 54 317 54 330 77 c 1,37,-1
 330 333 l 2,38,39
 330 424 330 424 251 424 c 0,40,41
 219 424 219 424 193 409 c 128,-1,42
 167 394 167 394 149 367 c 128,-1,43
 131 340 131 340 121 302 c 128,-1,44
 111 264 111 264 111 218 c 0,45,46
 111 130 111 130 145 80 c 128,-1,47
 179 30 179 30 241 30 c 0,34,35
EndSplineSet
EndChar
StartChar: Eogonek
Encoding: 280 280 217
Width: 614
Flags: W
LayerCount: 2
Back
Fore
SplineSet
536 -168 m 1,0,1
 495 -216 495 -216 438 -216 c 0,2,3
 396 -216 396 -216 372 -195 c 128,-1,4
 348 -174 348 -174 348 -139 c 0,5,6
 348 -106 348 -106 374.5 -70 c 128,-1,7
 401 -34 401 -34 449 0 c 1,8,-1
 40 0 l 1,9,-1
 40 8 l 1,10,-1
 122 16 l 1,11,-1
 122 674 l 1,12,-1
 40 682 l 1,13,-1
 40 690 l 1,14,-1
 531 690 l 1,15,-1
 545 502 l 1,16,-1
 535 501 l 1,17,-1
 479 641 l 2,18,19
 470 664 470 664 459.5 671 c 128,-1,20
 449 678 449 678 425 678 c 2,21,-1
 199 678 l 1,22,-1
 199 371 l 1,23,-1
 347 371 l 2,24,25
 371 371 371 371 380.5 379 c 128,-1,26
 390 387 390 387 395 410 c 2,27,-1
 412 491 l 1,28,-1
 424 491 l 1,29,-1
 424 235 l 1,30,-1
 412 235 l 1,31,-1
 395 316 l 2,32,33
 390 339 390 339 380.5 347 c 128,-1,34
 371 355 371 355 347 355 c 2,35,-1
 199 355 l 1,36,-1
 199 12 l 1,37,-1
 423 12 l 2,38,39
 447 12 447 12 458 19 c 128,-1,40
 469 26 469 26 478 49 c 2,41,-1
 544 211 l 1,42,-1
 555 210 l 1,43,-1
 530 0 l 1,44,-1
 464 0 l 1,45,46
 442 -24 442 -24 425.5 -58.5 c 128,-1,47
 409 -93 409 -93 409 -122 c 0,48,49
 409 -154 409 -154 425.5 -171 c 128,-1,50
 442 -188 442 -188 471 -188 c 0,51,52
 488 -188 488 -188 503.5 -182.5 c 128,-1,53
 519 -177 519 -177 533 -163 c 1,54,-1
 536 -168 l 1,0,1
EndSplineSet
EndChar
StartChar: eogonek
Encoding: 281 281 218
Width: 423
Flags: W
LayerCount: 2
Back
Fore
SplineSet
350 -178 m 1,0,1
 309 -226 309 -226 252 -226 c 0,2,3
 210 -226 210 -226 186 -205 c 128,-1,4
 162 -184 162 -184 162 -149 c 256,5,6
 162 -114 162 -114 190.5 -76.5 c 128,-1,7
 219 -39 219 -39 271 -4 c 1,8,9
 248 -10 248 -10 225 -10 c 0,10,11
 184 -10 184 -10 150 6 c 128,-1,12
 116 22 116 22 91.5 51.5 c 128,-1,13
 67 81 67 81 53.5 121.5 c 128,-1,14
 40 162 40 162 40 211 c 256,15,16
 40 260 40 260 54.5 301.5 c 128,-1,17
 69 343 69 343 95.5 372 c 128,-1,18
 122 401 122 401 159 417.5 c 128,-1,19
 196 434 196 434 241 434 c 0,20,21
 311 434 311 434 348 393 c 128,-1,22
 385 352 385 352 387 272 c 1,23,-1
 381 267 l 1,24,-1
 111 267 l 1,25,26
 109 257 109 257 109 247 c 128,-1,27
 109 237 109 237 109 226 c 0,28,29
 109 132 109 132 146 86 c 128,-1,30
 183 40 183 40 249 40 c 0,31,32
 282 40 282 40 313.5 55 c 128,-1,33
 345 70 345 70 370 102 c 2,34,-1
 379 114 l 1,35,-1
 383 112 l 1,36,-1
 379 101 l 2,37,38
 366 65 366 65 345 42.5 c 128,-1,39
 324 20 324 20 295 0 c 0,40,41
 281 -11 281 -11 268 -26 c 128,-1,42
 255 -41 255 -41 245 -58 c 128,-1,43
 235 -75 235 -75 229 -94 c 128,-1,44
 223 -113 223 -113 223 -132 c 0,45,46
 223 -164 223 -164 239.5 -181 c 128,-1,47
 256 -198 256 -198 285 -198 c 0,48,49
 302 -198 302 -198 317.5 -192.5 c 128,-1,50
 333 -187 333 -187 347 -173 c 1,51,-1
 350 -178 l 1,0,1
230 423 m 0,52,53
 182 423 182 423 151.5 383.5 c 128,-1,54
 121 344 121 344 112 278 c 1,55,-1
 306 285 l 1,56,57
 308 291 308 291 308.5 302.5 c 128,-1,58
 309 314 309 314 309 325 c 0,59,60
 309 382 309 382 287 402.5 c 128,-1,61
 265 423 265 423 230 423 c 0,52,53
EndSplineSet
EndChar
StartChar: gcommaaccent
Encoding: 291 291 228
Width: 403
Flags: W
LayerCount: 2
Back
Fore
SplineSet
243 698 m 1,0,1
 228 687 228 687 219 669.5 c 128,-1,2
 210 652 210 652 210 636 c 0,3,4
 210 622 210 622 216 614 c 128,-1,5
 222 606 222 606 229 599.5 c 128,-1,6
 236 593 236 593 242 585.5 c 128,-1,7
 248 578 248 578 248 565 c 0,8,9
 248 550 248 550 239 540.5 c 128,-1,10
 230 531 230 531 216 531 c 0,11,12
 197 531 197 531 185.5 547.5 c 128,-1,13
 174 564 174 564 174 591 c 0,14,15
 174 623 174 623 190.5 651.5 c 128,-1,16
 207 680 207 680 239 703 c 1,17,-1
 243 698 l 1,0,1
185 -246 m 0,18,19
 102 -246 102 -246 56.5 -217 c 128,-1,20
 11 -188 11 -188 11 -134 c 0,21,22
 11 -96 11 -96 40 -65.5 c 128,-1,23
 69 -35 69 -35 120 -18 c 1,24,25
 82 -4 82 -4 68 14 c 128,-1,26
 54 32 54 32 54 55 c 0,27,28
 54 83 54 83 87 106 c 128,-1,29
 120 129 120 129 184 143 c 1,30,31
 153 146 153 146 127.5 158 c 128,-1,32
 102 170 102 170 83.5 189 c 128,-1,33
 65 208 65 208 55 233.5 c 128,-1,34
 45 259 45 259 45 289 c 0,35,36
 45 321 45 321 57 347.5 c 128,-1,37
 69 374 69 374 90 393.5 c 128,-1,38
 111 413 111 413 140 423.5 c 128,-1,39
 169 434 169 434 204 434 c 0,40,41
 260 434 260 434 300 406 c 1,42,43
 324 493 324 493 378 493 c 0,44,45
 397 493 397 493 408 482.5 c 128,-1,46
 419 472 419 472 419 455 c 0,47,48
 419 441 419 441 409 431 c 128,-1,49
 399 421 399 421 385 421 c 0,50,51
 377 421 377 421 371.5 424 c 128,-1,52
 366 427 366 427 360.5 431 c 128,-1,53
 355 435 355 435 349.5 438 c 128,-1,54
 344 441 344 441 338 441 c 0,55,56
 318 441 318 441 309 400 c 1,57,58
 335 380 335 380 349 351.5 c 128,-1,59
 363 323 363 323 363 288 c 0,60,61
 363 258 363 258 352.5 232 c 128,-1,62
 342 206 342 206 322.5 186.5 c 128,-1,63
 303 167 303 167 276 155.5 c 128,-1,64
 249 144 249 144 216 142 c 0,65,66
 165 134 165 134 138 118 c 128,-1,67
 111 102 111 102 111 82 c 0,68,69
 111 72 111 72 115 64 c 128,-1,70
 119 56 119 56 132 49.5 c 128,-1,71
 145 43 145 43 168 36.5 c 128,-1,72
 191 30 191 30 229 23 c 0,73,74
 315 7 315 7 350.5 -22 c 128,-1,75
 386 -51 386 -51 386 -104 c 0,76,77
 386 -134 386 -134 371 -160 c 128,-1,78
 356 -186 356 -186 329 -205 c 128,-1,79
 302 -224 302 -224 265 -235 c 128,-1,80
 228 -246 228 -246 185 -246 c 0,18,19
199 -40 m 0,81,82
 159 -31 159 -31 129 -22 c 1,83,84
 59 -47 59 -47 59 -125 c 0,85,86
 59 -179 59 -179 93.5 -207.5 c 128,-1,87
 128 -236 128 -236 191 -236 c 256,88,89
 254 -236 254 -236 291 -208.5 c 128,-1,90
 328 -181 328 -181 328 -134 c 0,91,92
 328 -115 328 -115 322 -101 c 128,-1,93
 316 -87 316 -87 301.5 -76 c 128,-1,94
 287 -65 287 -65 262 -56.5 c 128,-1,95
 237 -48 237 -48 199 -40 c 0,81,82
204 152 m 256,96,97
 242 152 242 152 265.5 190 c 128,-1,98
 289 228 289 228 289 288 c 256,99,100
 289 348 289 348 265.5 386 c 128,-1,101
 242 424 242 424 204 424 c 256,102,103
 166 424 166 424 142.5 386 c 128,-1,104
 119 348 119 348 119 288 c 256,105,106
 119 228 119 228 142.5 190 c 128,-1,107
 166 152 166 152 204 152 c 256,96,97
EndSplineSet
EndChar
StartChar: Hbar
Encoding: 294 294 231
Width: 745
Flags: W
LayerCount: 2
Back
Fore
SplineSet
47 531 m 1,0,-1
 128 531 l 1,1,-1
 128 674 l 1,2,-1
 46 682 l 1,3,-1
 46 690 l 1,4,-1
 292 690 l 1,5,-1
 292 682 l 1,6,-1
 205 674 l 1,7,-1
 205 531 l 1,8,-1
 538 531 l 1,9,-1
 538 674 l 1,10,-1
 451 682 l 1,11,-1
 451 690 l 1,12,-1
 697 690 l 1,13,-1
 697 682 l 1,14,-1
 615 674 l 1,15,-1
 615 531 l 1,16,-1
 697 531 l 1,17,-1
 697 514 l 1,18,-1
 615 514 l 1,19,-1
 615 16 l 1,20,-1
 697 8 l 1,21,-1
 697 0 l 1,22,-1
 451 0 l 1,23,-1
 451 8 l 1,24,-1
 538 16 l 1,25,-1
 538 355 l 1,26,-1
 205 355 l 1,27,-1
 205 16 l 1,28,-1
 292 8 l 1,29,-1
 292 0 l 1,30,-1
 46 0 l 1,31,-1
 46 8 l 1,32,-1
 128 16 l 1,33,-1
 128 514 l 1,34,-1
 47 514 l 1,35,-1
 47 531 l 1,0,-1
538 371 m 1,36,-1
 538 514 l 1,37,-1
 205 514 l 1,38,-1
 205 371 l 1,39,-1
 538 371 l 1,36,-1
EndSplineSet
EndChar
StartChar: hbar
Encoding: 295 295 232
Width: 453
Flags: W
LayerCount: 2
Back
Fore
SplineSet
205 8 m 1,0,-1
 205 0 l 1,1,-1
 18 0 l 1,2,-1
 18 8 l 1,3,-1
 79 16 l 1,4,-1
 79 531 l 1,5,-1
 21 531 l 1,6,-1
 21 553 l 1,7,-1
 79 553 l 1,8,-1
 79 653 l 1,9,-1
 20 675 l 1,10,-1
 20 682 l 1,11,-1
 136 721 l 1,12,-1
 144 721 l 1,13,-1
 144 553 l 1,14,-1
 235 553 l 1,15,-1
 235 531 l 1,16,-1
 144 531 l 1,17,-1
 144 369 l 1,18,19
 207 434 207 434 275 434 c 0,20,21
 305 434 305 434 329.5 421 c 128,-1,22
 354 408 354 408 366 385 c 0,23,24
 369 378 369 378 371.5 370 c 128,-1,25
 374 362 374 362 375 349.5 c 128,-1,26
 376 337 376 337 376.5 318 c 128,-1,27
 377 299 377 299 377 271 c 2,28,-1
 377 16 l 1,29,-1
 438 8 l 1,30,-1
 438 0 l 1,31,-1
 251 0 l 1,32,-1
 251 8 l 1,33,-1
 312 16 l 1,34,-1
 312 271 l 2,35,36
 312 312 312 312 310 330.5 c 128,-1,37
 308 349 308 349 302 361 c 0,38,39
 294 378 294 378 276 387.5 c 128,-1,40
 258 397 258 397 234 397 c 0,41,42
 182 397 182 397 144 354 c 1,43,-1
 144 16 l 1,44,-1
 205 8 l 1,0,-1
EndSplineSet
EndChar
StartChar: Iogonek
Encoding: 302 302 239
Width: 319
Flags: W
LayerCount: 2
Back
Fore
SplineSet
243 -168 m 1,0,1
 202 -216 202 -216 145 -216 c 0,2,3
 103 -216 103 -216 79 -195 c 128,-1,4
 55 -174 55 -174 55 -139 c 0,5,6
 55 -106 55 -106 81.5 -70 c 128,-1,7
 108 -34 108 -34 156 0 c 1,8,-1
 39 0 l 1,9,-1
 39 8 l 1,10,-1
 121 16 l 1,11,-1
 121 674 l 1,12,-1
 39 682 l 1,13,-1
 39 690 l 1,14,-1
 280 690 l 1,15,-1
 280 682 l 1,16,-1
 198 674 l 1,17,-1
 198 16 l 1,18,-1
 280 8 l 1,19,-1
 280 0 l 1,20,-1
 171 0 l 1,21,22
 149 -24 149 -24 132.5 -58.5 c 128,-1,23
 116 -93 116 -93 116 -122 c 0,24,25
 116 -154 116 -154 132.5 -171 c 128,-1,26
 149 -188 149 -188 178 -188 c 0,27,28
 195 -188 195 -188 210.5 -182.5 c 128,-1,29
 226 -177 226 -177 240 -163 c 1,30,-1
 243 -168 l 1,0,1
EndSplineSet
EndChar
StartChar: iogonek
Encoding: 303 303 240
Width: 226
Flags: W
LayerCount: 2
Back
Fore
SplineSet
212 8 m 1,0,-1
 212 0 l 1,1,-1
 127 0 l 1,2,3
 105 -26 105 -26 89 -63.5 c 128,-1,4
 73 -101 73 -101 73 -132 c 0,5,6
 73 -164 73 -164 89.5 -181 c 128,-1,7
 106 -198 106 -198 135 -198 c 0,8,9
 152 -198 152 -198 167.5 -192.5 c 128,-1,10
 183 -187 183 -187 197 -173 c 1,11,-1
 200 -178 l 1,12,13
 159 -226 159 -226 102 -226 c 0,14,15
 60 -226 60 -226 36 -205 c 128,-1,16
 12 -184 12 -184 12 -149 c 256,17,18
 12 -114 12 -114 37.5 -75 c 128,-1,19
 63 -36 63 -36 111 0 c 1,20,-1
 25 0 l 1,21,-1
 25 8 l 1,22,-1
 86 16 l 1,23,-1
 86 366 l 1,24,-1
 27 388 l 1,25,-1
 27 395 l 1,26,-1
 143 434 l 1,27,-1
 151 434 l 1,28,-1
 151 16 l 1,29,-1
 212 8 l 1,0,-1
65 578 m 256,30,31
 65 598 65 598 78 612 c 128,-1,32
 91 626 91 626 113 626 c 256,33,34
 135 626 135 626 148 612 c 128,-1,35
 161 598 161 598 161 578 c 256,36,37
 161 558 161 558 148 544 c 128,-1,38
 135 530 135 530 113 530 c 256,39,40
 91 530 91 530 78 544 c 128,-1,41
 65 558 65 558 65 578 c 256,30,31
EndSplineSet
EndChar
StartChar: dotlessi
Encoding: 305 305 242
Width: 229
Flags: W
LayerCount: 2
Back
Fore
SplineSet
212 8 m 1,0,-1
 212 0 l 1,1,-1
 25 0 l 1,2,-1
 25 8 l 1,3,-1
 86 16 l 1,4,-1
 86 366 l 1,5,-1
 27 388 l 1,6,-1
 27 395 l 1,7,-1
 143 434 l 1,8,-1
 151 434 l 1,9,-1
 151 16 l 1,10,-1
 212 8 l 1,0,-1
EndSplineSet
EndChar
StartChar: kgreenlandic
Encoding: 312 312 249
Width: 464
Flags: W
LayerCount: 2
Back
Fore
SplineSet
211 8 m 1,0,-1
 211 0 l 1,1,-1
 25 0 l 1,2,-1
 25 8 l 1,3,-1
 86 16 l 1,4,-1
 86 361 l 1,5,-1
 27 383 l 1,6,-1
 27 390 l 1,7,-1
 143 429 l 1,8,-1
 151 429 l 1,9,-1
 151 189 l 1,10,-1
 293 360 l 2,11,12
 311 382 311 382 311 392 c 0,13,14
 311 401 311 401 298 406 c 128,-1,15
 285 411 285 411 249 416 c 1,16,-1
 249 424 l 1,17,-1
 418 424 l 1,18,-1
 418 416 l 1,19,20
 398 413 398 413 382.5 408.5 c 128,-1,21
 367 404 367 404 355 397.5 c 128,-1,22
 343 391 343 391 333 382.5 c 128,-1,23
 323 374 323 374 313 362 c 2,24,-1
 223 256 l 1,25,-1
 421 16 l 1,26,-1
 476 8 l 1,27,-1
 476 0 l 1,28,-1
 348 0 l 1,29,-1
 179 204 l 1,30,-1
 151 171 l 1,31,-1
 151 16 l 1,32,-1
 211 8 l 1,0,-1
EndSplineSet
EndChar
StartChar: Lslash
Encoding: 321 321 258
Width: 583
Flags: W
LayerCount: 2
Back
Fore
SplineSet
40 682 m 1,0,-1
 40 690 l 1,1,-1
 286 690 l 1,2,-1
 286 682 l 1,3,-1
 199 674 l 1,4,-1
 199 363 l 1,5,-1
 316 431 l 1,6,-1
 316 412 l 1,7,-1
 199 344 l 1,8,-1
 199 12 l 1,9,-1
 420 12 l 2,10,11
 444 12 444 12 455 19 c 128,-1,12
 466 26 466 26 475 49 c 2,13,-1
 543 220 l 1,14,-1
 555 218 l 1,15,-1
 530 0 l 1,16,-1
 40 0 l 1,17,-1
 40 8 l 1,18,-1
 122 16 l 1,19,-1
 122 300 l 1,20,-1
 40 253 l 1,21,-1
 40 271 l 1,22,-1
 122 318 l 1,23,-1
 122 674 l 1,24,-1
 40 682 l 1,0,-1
EndSplineSet
EndChar
StartChar: lslash
Encoding: 322 322 259
Width: 279
Flags: W
LayerCount: 2
Back
Fore
SplineSet
241 8 m 1,0,-1
 241 0 l 1,1,-1
 54 0 l 1,2,-1
 54 8 l 1,3,-1
 115 16 l 1,4,-1
 115 313 l 1,5,-1
 11 253 l 1,6,-1
 11 271 l 1,7,-1
 115 331 l 1,8,-1
 115 653 l 1,9,-1
 56 675 l 1,10,-1
 56 682 l 1,11,-1
 172 721 l 1,12,-1
 180 721 l 1,13,-1
 180 369 l 1,14,-1
 287 431 l 1,15,-1
 287 412 l 1,16,-1
 180 350 l 1,17,-1
 180 16 l 1,18,-1
 241 8 l 1,0,-1
EndSplineSet
EndChar
StartChar: Eng
Encoding: 330 330 267
Width: 734
Flags: W
LayerCount: 2
Back
Fore
SplineSet
43 682 m 1,0,-1
 43 690 l 1,1,-1
 192 690 l 1,2,-1
 586 138 l 1,3,-1
 590 138 l 1,4,-1
 590 629 l 2,5,6
 590 654 590 654 583.5 663 c 128,-1,7
 577 672 577 672 560 674 c 2,8,-1
 479 682 l 1,9,-1
 479 690 l 1,10,-1
 718 690 l 1,11,-1
 718 682 l 1,12,-1
 646 674 l 2,13,14
 622 671 622 671 614 662 c 128,-1,15
 606 653 606 653 606 629 c 2,16,-1
 606 -14 l 2,17,18
 606 -137 606 -137 580 -191.5 c 128,-1,19
 554 -246 554 -246 496 -246 c 0,20,21
 453 -246 453 -246 423 -222.5 c 128,-1,22
 393 -199 393 -199 393 -165 c 0,23,24
 393 -145 393 -145 404 -133 c 128,-1,25
 415 -121 415 -121 435 -121 c 256,26,27
 455 -121 455 -121 466 -133 c 128,-1,28
 477 -145 477 -145 477 -166 c 0,29,30
 477 -171 477 -171 476.5 -180.5 c 128,-1,31
 476 -190 476 -190 476 -195 c 0,32,33
 476 -230 476 -230 509 -230 c 0,34,35
 548 -230 548 -230 569 -180.5 c 128,-1,36
 590 -131 590 -131 590 -40 c 2,37,-1
 590 -3 l 1,38,-1
 147 621 l 1,39,-1
 143 621 l 1,40,-1
 143 61 l 2,41,42
 143 36 143 36 149.5 27 c 128,-1,43
 156 18 156 18 173 16 c 2,44,-1
 244 8 l 1,45,-1
 244 0 l 1,46,-1
 25 0 l 1,47,-1
 25 8 l 1,48,-1
 97 16 l 2,49,50
 114 18 114 18 120.5 27 c 128,-1,51
 127 36 127 36 127 61 c 2,52,-1
 127 643 l 1,53,-1
 123 649 l 2,54,55
 109 669 109 669 96.5 675.5 c 128,-1,56
 84 682 84 682 60 682 c 2,57,-1
 43 682 l 1,0,-1
EndSplineSet
EndChar
StartChar: eng
Encoding: 331 331 268
Width: 447
Flags: W
LayerCount: 2
Back
Fore
SplineSet
211 8 m 1,0,-1
 211 0 l 1,1,-1
 24 0 l 1,2,-1
 24 8 l 1,3,-1
 85 16 l 1,4,-1
 85 361 l 1,5,-1
 26 383 l 1,6,-1
 26 390 l 1,7,-1
 139 429 l 1,8,-1
 147 429 l 1,9,-1
 147 366 l 1,10,11
 212 434 212 434 281 434 c 0,12,13
 312 434 312 434 337.5 421 c 128,-1,14
 363 408 363 408 374 385 c 0,15,16
 377 378 377 378 379.5 370 c 128,-1,17
 382 362 382 362 383 349.5 c 128,-1,18
 384 337 384 337 384.5 318 c 128,-1,19
 385 299 385 299 385 271 c 2,20,-1
 385 40 l 2,21,22
 385 -9 385 -9 384 -41 c 128,-1,23
 383 -73 383 -73 380.5 -95 c 128,-1,24
 378 -117 378 -117 373.5 -131 c 128,-1,25
 369 -145 369 -145 362 -158 c 0,26,27
 339 -200 339 -200 303.5 -223.5 c 128,-1,28
 268 -247 268 -247 226 -247 c 0,29,30
 191 -247 191 -247 170 -231 c 128,-1,31
 149 -215 149 -215 149 -189 c 0,32,33
 149 -171 149 -171 159.5 -160 c 128,-1,34
 170 -149 170 -149 187 -149 c 0,35,36
 216 -149 216 -149 226 -188 c 0,37,38
 231 -211 231 -211 239 -219.5 c 128,-1,39
 247 -228 247 -228 263 -228 c 0,40,41
 292 -228 292 -228 306 -197.5 c 128,-1,42
 320 -167 320 -167 320 -102 c 2,43,-1
 320 271 l 2,44,45
 320 309 320 309 318 328.5 c 128,-1,46
 316 348 316 348 310 361 c 0,47,48
 302 378 302 378 283.5 387.5 c 128,-1,49
 265 397 265 397 241 397 c 0,50,51
 190 397 190 397 150 354 c 1,52,-1
 150 16 l 1,53,-1
 211 8 l 1,0,-1
EndSplineSet
EndChar
StartChar: OE
Encoding: 338 338 275
Width: 985
Flags: W
LayerCount: 2
Back
Fore
SplineSet
367 706 m 0,0,1
 404 706 404 706 436.5 702 c 128,-1,2
 469 698 469 698 494 690 c 1,3,-1
 903 690 l 1,4,-1
 917 502 l 1,5,-1
 907 501 l 1,6,-1
 851 641 l 2,7,8
 842 664 842 664 831.5 671 c 128,-1,9
 821 678 821 678 797 678 c 2,10,-1
 571 678 l 1,11,-1
 571 371 l 1,12,-1
 719 371 l 2,13,14
 743 371 743 371 752.5 379 c 128,-1,15
 762 387 762 387 767 410 c 2,16,-1
 784 491 l 1,17,-1
 796 491 l 1,18,-1
 796 235 l 1,19,-1
 784 235 l 1,20,-1
 767 316 l 2,21,22
 762 339 762 339 752.5 347 c 128,-1,23
 743 355 743 355 719 355 c 2,24,-1
 571 355 l 1,25,-1
 571 12 l 1,26,-1
 795 12 l 2,27,28
 819 12 819 12 830 19 c 128,-1,29
 841 26 841 26 850 49 c 2,30,-1
 916 211 l 1,31,-1
 927 210 l 1,32,-1
 902 0 l 1,33,-1
 495 0 l 1,34,35
 466 -8 466 -8 433.5 -12 c 128,-1,36
 401 -16 401 -16 367 -16 c 0,37,38
 301 -16 301 -16 243.5 12 c 128,-1,39
 186 40 186 40 143.5 88.5 c 128,-1,40
 101 137 101 137 76.5 203 c 128,-1,41
 52 269 52 269 52 345 c 256,42,43
 52 421 52 421 76.5 487 c 128,-1,44
 101 553 101 553 143.5 601.5 c 128,-1,45
 186 650 186 650 243.5 678 c 128,-1,46
 301 706 301 706 367 706 c 0,0,1
148 345 m 256,47,48
 148 177 148 177 204.5 87 c 128,-1,49
 261 -3 261 -3 367 -3 c 0,50,51
 436 -3 436 -3 494 41 c 1,52,-1
 494 649 l 1,53,54
 468 672 468 672 436.5 683 c 128,-1,55
 405 694 405 694 367 694 c 0,56,57
 261 694 261 694 204.5 603.5 c 128,-1,58
 148 513 148 513 148 345 c 256,47,48
EndSplineSet
EndChar
StartChar: oe
Encoding: 339 339 276
Width: 745
Flags: W
LayerCount: 2
Back
Fore
SplineSet
703 267 m 1,0,-1
 433 267 l 1,1,2
 431 257 431 257 431 247 c 128,-1,3
 431 237 431 237 431 226 c 0,4,5
 431 132 431 132 468 86 c 128,-1,6
 505 40 505 40 571 40 c 0,7,8
 604 40 604 40 635.5 55 c 128,-1,9
 667 70 667 70 692 102 c 2,10,-1
 701 114 l 1,11,-1
 705 112 l 1,12,-1
 701 101 l 2,13,14
 681 47 681 47 641.5 18.5 c 128,-1,15
 602 -10 602 -10 547 -10 c 0,16,17
 496 -10 496 -10 457 13.5 c 128,-1,18
 418 37 418 37 394 79 c 1,19,20
 368 37 368 37 328 13.5 c 128,-1,21
 288 -10 288 -10 238 -10 c 0,22,23
 194 -10 194 -10 157.5 6 c 128,-1,24
 121 22 121 22 95 51.5 c 128,-1,25
 69 81 69 81 54.5 121.5 c 128,-1,26
 40 162 40 162 40 212 c 0,27,28
 40 261 40 261 54.5 302 c 128,-1,29
 69 343 69 343 95 372.5 c 128,-1,30
 121 402 121 402 157.5 418 c 128,-1,31
 194 434 194 434 238 434 c 0,32,33
 289 434 289 434 329.5 409.5 c 128,-1,34
 370 385 370 385 395 342 c 1,35,36
 421 385 421 385 464 409.5 c 128,-1,37
 507 434 507 434 563 434 c 0,38,39
 633 434 633 434 670 393 c 128,-1,40
 707 352 707 352 709 272 c 1,41,-1
 703 267 l 1,0,-1
114 212 m 256,42,43
 114 112 114 112 146.5 56 c 128,-1,44
 179 0 179 0 238 0 c 0,45,46
 296 0 296 0 329 55.5 c 128,-1,47
 362 111 362 111 362 211 c 2,48,-1
 362 221 l 2,49,50
 360 317 360 317 327.5 370.5 c 128,-1,51
 295 424 295 424 238 424 c 0,52,53
 179 424 179 424 146.5 368 c 128,-1,54
 114 312 114 312 114 212 c 256,42,43
552 423 m 0,55,56
 504 423 504 423 473.5 383.5 c 128,-1,57
 443 344 443 344 434 278 c 1,58,-1
 628 285 l 1,59,60
 630 291 630 291 630.5 302.5 c 128,-1,61
 631 314 631 314 631 325 c 0,62,63
 631 382 631 382 609 402.5 c 128,-1,64
 587 423 587 423 552 423 c 0,55,56
EndSplineSet
EndChar
StartChar: uni015E
Encoding: 350 350 287
Width: 551
Flags: W
LayerCount: 2
Back
Fore
SplineSet
219 -212 m 1,0,1
 241 -222 241 -222 269 -222 c 0,2,3
 301 -222 301 -222 320 -209.5 c 128,-1,4
 339 -197 339 -197 339 -176 c 0,5,6
 339 -156 339 -156 323.5 -145 c 128,-1,7
 308 -134 308 -134 282 -134 c 0,8,9
 259 -134 259 -134 244 -140 c 1,10,-1
 241 -137 l 1,11,-1
 293 -15 l 1,12,13
 288 -16 288 -16 284.5 -16 c 128,-1,14
 281 -16 281 -16 276 -16 c 0,15,16
 229 -16 229 -16 185.5 -1.5 c 128,-1,17
 142 13 142 13 110 39 c 1,18,-1
 89 -16 l 1,19,-1
 76 -16 l 1,20,-1
 63 223 l 1,21,-1
 72 225 l 1,22,23
 79 191 79 191 86.5 165 c 128,-1,24
 94 139 94 139 102.5 119 c 128,-1,25
 111 99 111 99 121 83 c 128,-1,26
 131 67 131 67 143 53 c 0,27,28
 194 -4 194 -4 278 -4 c 0,29,30
 351 -4 351 -4 391 33.5 c 128,-1,31
 431 71 431 71 431 135 c 0,32,33
 431 171 431 171 418 196.5 c 128,-1,34
 405 222 405 222 381 242 c 128,-1,35
 357 262 357 262 323 279.5 c 128,-1,36
 289 297 289 297 247 315 c 0,37,38
 214 329 214 329 182 346 c 128,-1,39
 150 363 150 363 125 386 c 128,-1,40
 100 409 100 409 84.5 440.5 c 128,-1,41
 69 472 69 472 69 515 c 0,42,43
 69 557 69 557 84.5 592 c 128,-1,44
 100 627 100 627 127 652.5 c 128,-1,45
 154 678 154 678 191.5 692 c 128,-1,46
 229 706 229 706 274 706 c 0,47,48
 315 706 315 706 350 692 c 128,-1,49
 385 678 385 678 427 646 c 1,50,-1
 451 694 l 1,51,-1
 464 694 l 1,52,-1
 474 476 l 1,53,-1
 464 473 l 1,54,55
 455 510 455 510 444.5 539.5 c 128,-1,56
 434 569 434 569 423 591 c 0,57,58
 400 639 400 639 362 666.5 c 128,-1,59
 324 694 324 694 270 694 c 0,60,61
 207 694 207 694 170.5 658.5 c 128,-1,62
 134 623 134 623 134 562 c 0,63,64
 134 528 134 528 146 503 c 128,-1,65
 158 478 158 478 181.5 458 c 128,-1,66
 205 438 205 438 238.5 420 c 128,-1,67
 272 402 272 402 315 383 c 0,68,69
 352 366 352 366 384.5 348.5 c 128,-1,70
 417 331 417 331 441 308.5 c 128,-1,71
 465 286 465 286 479 256 c 128,-1,72
 493 226 493 226 493 185 c 256,73,74
 493 144 493 144 479 110 c 128,-1,75
 465 76 465 76 440.5 50 c 128,-1,76
 416 24 416 24 381.5 7.5 c 128,-1,77
 347 -9 347 -9 306 -14 c 1,78,-1
 276 -84 l 1,79,80
 283 -82 283 -82 288 -82 c 128,-1,81
 293 -82 293 -82 303 -82 c 0,82,83
 345 -82 345 -82 371.5 -102 c 128,-1,84
 398 -122 398 -122 398 -154 c 0,85,86
 398 -189 398 -189 367.5 -212.5 c 128,-1,87
 337 -236 337 -236 290 -236 c 0,88,89
 241 -236 241 -236 217 -215 c 1,90,-1
 219 -212 l 1,0,1
EndSplineSet
EndChar
StartChar: uni015F
Encoding: 351 351 288
Width: 345
Flags: W
LayerCount: 2
Back
Fore
SplineSet
90 -202 m 1,0,1
 112 -212 112 -212 140 -212 c 0,2,3
 172 -212 172 -212 191 -199.5 c 128,-1,4
 210 -187 210 -187 210 -166 c 0,5,6
 210 -146 210 -146 194.5 -135 c 128,-1,7
 179 -124 179 -124 153 -124 c 0,8,9
 130 -124 130 -124 115 -130 c 1,10,-1
 112 -127 l 1,11,-1
 162 -10 l 1,12,13
 135 -10 135 -10 105 -5 c 128,-1,14
 75 0 75 0 54 8 c 1,15,-1
 49 138 l 1,16,-1
 61 138 l 1,17,18
 82 1 82 1 163 1 c 0,19,20
 200 1 200 1 222 24.5 c 128,-1,21
 244 48 244 48 244 86 c 0,22,23
 244 117 244 117 229.5 136.5 c 128,-1,24
 215 156 215 156 193.5 169.5 c 128,-1,25
 172 183 172 183 146.5 194 c 128,-1,26
 121 205 121 205 99.5 220 c 128,-1,27
 78 235 78 235 63.5 257.5 c 128,-1,28
 49 280 49 280 49 316 c 0,29,30
 49 373 49 373 87 403.5 c 128,-1,31
 125 434 125 434 196 434 c 0,32,33
 221 434 221 434 245.5 430 c 128,-1,34
 270 426 270 426 286 420 c 1,35,-1
 286 309 l 1,36,-1
 275 309 l 1,37,38
 261 369 261 369 239.5 396 c 128,-1,39
 218 423 218 423 182 423 c 0,40,41
 149 423 149 423 129 403 c 128,-1,42
 109 383 109 383 109 348 c 0,43,44
 109 318 109 318 123.5 300 c 128,-1,45
 138 282 138 282 159.5 269.5 c 128,-1,46
 181 257 181 257 206 246.5 c 128,-1,47
 231 236 231 236 252.5 220.5 c 128,-1,48
 274 205 274 205 288.5 182 c 128,-1,49
 303 159 303 159 303 122 c 0,50,51
 303 65 303 65 268.5 30 c 128,-1,52
 234 -5 234 -5 174 -9 c 1,53,-1
 147 -74 l 1,54,55
 154 -72 154 -72 159 -72 c 128,-1,56
 164 -72 164 -72 174 -72 c 0,57,58
 216 -72 216 -72 242.5 -92 c 128,-1,59
 269 -112 269 -112 269 -144 c 0,60,61
 269 -179 269 -179 238.5 -202.5 c 128,-1,62
 208 -226 208 -226 161 -226 c 0,63,64
 112 -226 112 -226 88 -205 c 1,65,-1
 90 -202 l 1,0,1
EndSplineSet
EndChar
StartChar: uni0162
Encoding: 354 354 291
Width: 663
Flags: W
LayerCount: 2
Back
Fore
SplineSet
251 -202 m 1,0,1
 273 -212 273 -212 301 -212 c 0,2,3
 333 -212 333 -212 352 -199.5 c 128,-1,4
 371 -187 371 -187 371 -166 c 0,5,6
 371 -146 371 -146 355.5 -135 c 128,-1,7
 340 -124 340 -124 314 -124 c 0,8,9
 291 -124 291 -124 276 -130 c 1,10,-1
 273 -127 l 1,11,-1
 327 0 l 1,12,-1
 181 0 l 1,13,-1
 181 8 l 1,14,-1
 289 16 l 1,15,-1
 289 679 l 1,16,-1
 157 679 l 2,17,18
 133 679 133 679 122 671.5 c 128,-1,19
 111 664 111 664 101 641 c 2,20,-1
 32 487 l 1,21,-1
 24 489 l 1,22,-1
 63 706 l 1,23,-1
 69 706 l 1,24,25
 91 696 91 696 106.5 693 c 128,-1,26
 122 690 122 690 146 690 c 2,27,-1
 531 690 l 2,28,29
 543 690 543 690 552.5 690.5 c 128,-1,30
 562 691 562 691 570.5 693 c 128,-1,31
 579 695 579 695 588 698 c 128,-1,32
 597 701 597 701 608 706 c 1,33,-1
 614 706 l 1,34,-1
 636 489 l 1,35,-1
 628 487 l 1,36,-1
 566 641 l 2,37,38
 557 664 557 664 546.5 671.5 c 128,-1,39
 536 679 536 679 512 679 c 2,40,-1
 366 679 l 1,41,-1
 366 16 l 1,42,-1
 474 8 l 1,43,-1
 474 0 l 1,44,-1
 339 0 l 1,45,-1
 308 -74 l 1,46,47
 315 -72 315 -72 320 -72 c 128,-1,48
 325 -72 325 -72 335 -72 c 0,49,50
 377 -72 377 -72 403.5 -92 c 128,-1,51
 430 -112 430 -112 430 -144 c 0,52,53
 430 -179 430 -179 399.5 -202.5 c 128,-1,54
 369 -226 369 -226 322 -226 c 0,55,56
 273 -226 273 -226 249 -205 c 1,57,-1
 251 -202 l 1,0,1
EndSplineSet
EndChar
StartChar: uni0163
Encoding: 355 355 292
Width: 268
Flags: W
LayerCount: 2
Back
Fore
SplineSet
61 -202 m 1,0,1
 83 -212 83 -212 111 -212 c 0,2,3
 143 -212 143 -212 162 -199.5 c 128,-1,4
 181 -187 181 -187 181 -166 c 0,5,6
 181 -146 181 -146 165.5 -135 c 128,-1,7
 150 -124 150 -124 124 -124 c 0,8,9
 101 -124 101 -124 86 -130 c 1,10,-1
 83 -127 l 1,11,-1
 134 -6 l 1,12,13
 126 -4 126 -4 118 -0.5 c 128,-1,14
 110 3 110 3 104 8 c 0,15,16
 87 20 87 20 80 38.5 c 128,-1,17
 73 57 73 57 73 89 c 2,18,-1
 73 409 l 1,19,-1
 26 409 l 1,20,-1
 24 414 l 1,21,-1
 134 520 l 1,22,-1
 138 519 l 1,23,-1
 138 424 l 1,24,-1
 252 424 l 1,25,-1
 246 408 l 1,26,-1
 138 408 l 1,27,-1
 138 102 l 2,28,29
 138 85 138 85 141 71.5 c 128,-1,30
 144 58 144 58 149 50 c 0,31,32
 162 26 162 26 194 26 c 0,33,34
 211 26 211 26 225.5 34 c 128,-1,35
 240 42 240 42 258 60 c 1,36,-1
 262 57 l 1,37,38
 247 26 247 26 220 8 c 128,-1,39
 193 -10 193 -10 161 -10 c 0,40,41
 151 -10 151 -10 146 -9 c 1,42,-1
 118 -74 l 1,43,44
 125 -72 125 -72 130 -72 c 128,-1,45
 135 -72 135 -72 145 -72 c 0,46,47
 187 -72 187 -72 213.5 -92 c 128,-1,48
 240 -112 240 -112 240 -144 c 0,49,50
 240 -179 240 -179 209.5 -202.5 c 128,-1,51
 179 -226 179 -226 132 -226 c 0,52,53
 83 -226 83 -226 59 -205 c 1,54,-1
 61 -202 l 1,0,1
EndSplineSet
EndChar
StartChar: Tbar
Encoding: 358 358 295
Width: 663
Flags: W
LayerCount: 2
Back
Fore
SplineSet
152 418 m 1,0,-1
 289 418 l 1,1,-1
 289 679 l 1,2,-1
 157 679 l 2,3,4
 133 679 133 679 122 671.5 c 128,-1,5
 111 664 111 664 101 641 c 2,6,-1
 32 487 l 1,7,-1
 24 489 l 1,8,-1
 63 706 l 1,9,-1
 69 706 l 1,10,11
 91 696 91 696 106.5 693 c 128,-1,12
 122 690 122 690 146 690 c 2,13,-1
 531 690 l 2,14,15
 543 690 543 690 552.5 690.5 c 128,-1,16
 562 691 562 691 570.5 693 c 128,-1,17
 579 695 579 695 588 698 c 128,-1,18
 597 701 597 701 608 706 c 1,19,-1
 614 706 l 1,20,-1
 636 489 l 1,21,-1
 628 487 l 1,22,-1
 566 641 l 2,23,24
 557 664 557 664 546.5 671.5 c 128,-1,25
 536 679 536 679 512 679 c 2,26,-1
 366 679 l 1,27,-1
 366 418 l 1,28,-1
 502 418 l 1,29,-1
 502 401 l 1,30,-1
 366 401 l 1,31,-1
 366 16 l 1,32,-1
 474 8 l 1,33,-1
 474 0 l 1,34,-1
 181 0 l 1,35,-1
 181 8 l 1,36,-1
 289 16 l 1,37,-1
 289 401 l 1,38,-1
 152 401 l 1,39,-1
 152 418 l 1,0,-1
EndSplineSet
EndChar
StartChar: tbar
Encoding: 359 359 296
Width: 284
Flags: W
LayerCount: 2
Back
Fore
SplineSet
29 327 m 1,0,-1
 77 327 l 1,1,-1
 77 409 l 1,2,-1
 30 409 l 1,3,-1
 28 414 l 1,4,-1
 138 520 l 1,5,-1
 142 519 l 1,6,-1
 142 424 l 1,7,-1
 256 424 l 1,8,-1
 250 408 l 1,9,-1
 142 408 l 1,10,-1
 142 327 l 1,11,-1
 256 327 l 1,12,-1
 256 310 l 1,13,-1
 142 310 l 1,14,-1
 142 102 l 2,15,16
 142 67 142 67 153 50 c 0,17,18
 165 26 165 26 198 26 c 0,19,20
 215 26 215 26 229.5 34 c 128,-1,21
 244 42 244 42 262 60 c 1,22,-1
 266 57 l 1,23,24
 251 26 251 26 224 8 c 128,-1,25
 197 -10 197 -10 165 -10 c 0,26,27
 149 -10 149 -10 134 -5 c 128,-1,28
 119 0 119 0 108 8 c 0,29,30
 91 20 91 20 84 38.5 c 128,-1,31
 77 57 77 57 77 89 c 2,32,-1
 77 310 l 1,33,-1
 29 310 l 1,34,-1
 29 327 l 1,0,-1
EndSplineSet
EndChar
StartChar: Uogonek
Encoding: 370 370 307
Width: 666
Flags: W
LayerCount: 2
Back
Fore
SplineSet
450 -178 m 1,0,1
 409 -226 409 -226 352 -226 c 0,2,3
 310 -226 310 -226 286 -205 c 128,-1,4
 262 -184 262 -184 262 -149 c 0,5,6
 262 -117 262 -117 286 -82.5 c 128,-1,7
 310 -48 310 -48 355 -15 c 1,8,9
 350 -16 350 -16 345.5 -16 c 128,-1,10
 341 -16 341 -16 336 -16 c 0,11,12
 290 -16 290 -16 245 -1 c 128,-1,13
 200 14 200 14 170 40 c 0,14,15
 139 67 139 67 126 109 c 128,-1,16
 113 151 113 151 113 225 c 2,17,-1
 113 674 l 1,18,-1
 31 682 l 1,19,-1
 31 690 l 1,20,-1
 277 690 l 1,21,-1
 277 682 l 1,22,-1
 190 674 l 1,23,-1
 190 192 l 2,24,25
 190 119 190 119 203.5 80 c 128,-1,26
 217 41 217 41 249 22 c 0,27,28
 266 11 266 11 291 5.5 c 128,-1,29
 316 0 316 0 343 0 c 0,30,31
 394 0 394 0 435 20 c 128,-1,32
 476 40 476 40 502 77 c 0,33,34
 521 105 521 105 529 142 c 128,-1,35
 537 179 537 179 537 240 c 2,36,-1
 537 629 l 2,37,38
 537 653 537 653 531 662 c 128,-1,39
 525 671 525 671 507 674 c 2,40,-1
 436 682 l 1,41,-1
 436 690 l 1,42,-1
 655 690 l 1,43,-1
 655 682 l 1,44,-1
 583 674 l 2,45,46
 565 671 565 671 559 662 c 128,-1,47
 553 653 553 653 553 629 c 2,48,-1
 553 245 l 2,49,50
 553 182 553 182 543.5 140 c 128,-1,51
 534 98 534 98 514 68 c 0,52,53
 491 36 491 36 455.5 15 c 128,-1,54
 420 -6 420 -6 376 -13 c 1,55,56
 354 -37 354 -37 338.5 -70.5 c 128,-1,57
 323 -104 323 -104 323 -132 c 0,58,59
 323 -164 323 -164 339.5 -181 c 128,-1,60
 356 -198 356 -198 385 -198 c 0,61,62
 402 -198 402 -198 417.5 -192.5 c 128,-1,63
 433 -187 433 -187 447 -173 c 1,64,-1
 450 -178 l 1,0,1
EndSplineSet
EndChar
StartChar: uogonek
Encoding: 371 371 308
Width: 444
Flags: W
LayerCount: 2
Back
Fore
SplineSet
383 -178 m 1,0,1
 342 -226 342 -226 285 -226 c 0,2,3
 243 -226 243 -226 219 -205 c 128,-1,4
 195 -184 195 -184 195 -149 c 256,5,6
 195 -114 195 -114 224 -76 c 128,-1,7
 253 -38 253 -38 307 -2 c 1,8,-1
 307 63 l 1,9,-1
 304 64 l 1,10,11
 245 -10 245 -10 177 -10 c 0,12,13
 146 -10 146 -10 122 3 c 128,-1,14
 98 16 98 16 87 39 c 0,15,16
 84 46 84 46 81.5 54 c 128,-1,17
 79 62 79 62 78 74.5 c 128,-1,18
 77 87 77 87 76.5 106 c 128,-1,19
 76 125 76 125 76 153 c 2,20,-1
 76 408 l 1,21,-1
 16 416 l 1,22,-1
 16 424 l 1,23,-1
 141 424 l 1,24,-1
 141 153 l 2,25,26
 141 114 141 114 143 95 c 128,-1,27
 145 76 145 76 151 63 c 0,28,29
 159 46 159 46 175 37 c 128,-1,30
 191 28 191 28 212 28 c 0,31,32
 264 28 264 28 302 77 c 1,33,-1
 302 408 l 1,34,-1
 242 416 l 1,35,-1
 242 424 l 1,36,-1
 367 424 l 1,37,-1
 367 62 l 1,38,-1
 422 50 l 1,39,-1
 422 45 l 1,40,-1
 320 -1 l 1,41,42
 308 -12 308 -12 296.5 -28 c 128,-1,43
 285 -44 285 -44 276 -62 c 128,-1,44
 267 -80 267 -80 261.5 -98 c 128,-1,45
 256 -116 256 -116 256 -132 c 0,46,47
 256 -164 256 -164 272.5 -181 c 128,-1,48
 289 -198 289 -198 318 -198 c 0,49,50
 335 -198 335 -198 350.5 -192.5 c 128,-1,51
 366 -187 366 -187 380 -173 c 1,52,-1
 383 -178 l 1,0,1
EndSplineSet
EndChar
StartChar: Schwa
Encoding: 399 399 320
Width: 652
Flags: W
LayerCount: 2
Back
Fore
SplineSet
59 255 m 1,0,-1
 498 255 l 1,1,2
 500 272 500 272 501 289 c 128,-1,3
 502 306 502 306 502 325 c 0,4,5
 502 486 502 486 441.5 565.5 c 128,-1,6
 381 645 381 645 271 645 c 0,7,8
 218 645 218 645 168 615 c 128,-1,9
 118 585 118 585 74 526 c 2,10,-1
 60 507 l 1,11,-1
 55 509 l 1,12,-1
 62 527 l 2,13,14
 94 613 94 613 157.5 659.5 c 128,-1,15
 221 706 221 706 310 706 c 0,16,17
 374 706 374 706 427 680 c 128,-1,18
 480 654 480 654 518 607 c 128,-1,19
 556 560 556 560 577 494 c 128,-1,20
 598 428 598 428 598 349 c 0,21,22
 598 267 598 267 574.5 200 c 128,-1,23
 551 133 551 133 508.5 85 c 128,-1,24
 466 37 466 37 406.5 10.5 c 128,-1,25
 347 -16 347 -16 274 -16 c 0,26,27
 165 -16 165 -16 108 50 c 128,-1,28
 51 116 51 116 49 247 c 1,29,-1
 59 255 l 1,0,-1
292 -3 m 0,30,31
 374 -3 374 -3 427.5 62.5 c 128,-1,32
 481 128 481 128 496 241 c 1,33,34
 488 240 488 240 461 239.5 c 128,-1,35
 434 239 434 239 398.5 238 c 128,-1,36
 363 237 363 237 322.5 235.5 c 128,-1,37
 282 234 282 234 247 233 c 128,-1,38
 212 232 212 232 186.5 231 c 128,-1,39
 161 230 161 230 155 230 c 1,40,41
 152 220 152 220 151 202 c 128,-1,42
 150 184 150 184 150 166 c 0,43,44
 150 116 150 116 161 83 c 128,-1,45
 172 50 172 50 191 31 c 128,-1,46
 210 12 210 12 236 4.5 c 128,-1,47
 262 -3 262 -3 292 -3 c 0,30,31
EndSplineSet
EndChar
StartChar: florin
Encoding: 402 402 321
Width: 295
Flags: W
LayerCount: 2
Back
Fore
SplineSet
50 440 m 1,0,-1
 117 440 l 1,1,2
 123 476 123 476 128 501 c 128,-1,3
 133 526 133 526 138.5 545 c 128,-1,4
 144 564 144 564 151 579.5 c 128,-1,5
 158 595 158 595 167 612 c 0,6,7
 177 631 177 631 194 648 c 128,-1,8
 211 665 211 665 232 678 c 128,-1,9
 253 691 253 691 278.5 698.5 c 128,-1,10
 304 706 304 706 331 706 c 0,11,12
 378 706 378 706 404 687.5 c 128,-1,13
 430 669 430 669 430 647 c 0,14,15
 430 635 430 635 420.5 623 c 128,-1,16
 411 611 411 611 393 611 c 0,17,18
 379 611 379 611 371.5 617 c 128,-1,19
 364 623 364 623 360 632 c 128,-1,20
 356 641 356 641 354 652 c 128,-1,21
 352 663 352 663 348.5 672 c 128,-1,22
 345 681 345 681 338.5 687 c 128,-1,23
 332 693 332 693 320 693 c 0,24,25
 298 693 298 693 278.5 684 c 128,-1,26
 259 675 259 675 243 652 c 128,-1,27
 227 629 227 629 214 589.5 c 128,-1,28
 201 550 201 550 191 489 c 2,29,-1
 183 440 l 1,30,-1
 298 440 l 1,31,-1
 294 424 l 1,32,-1
 182 424 l 1,33,-1
 135 142 l 2,34,35
 123 70 123 70 100 19 c 128,-1,36
 77 -32 77 -32 48 -65 c 128,-1,37
 19 -98 19 -98 -14.5 -113 c 128,-1,38
 -48 -128 -48 -128 -81 -128 c 0,39,40
 -98 -128 -98 -128 -115 -124 c 128,-1,41
 -132 -120 -132 -120 -146 -112.5 c 128,-1,42
 -160 -105 -160 -105 -169 -94 c 128,-1,43
 -178 -83 -178 -83 -178 -69 c 0,44,45
 -178 -54 -178 -54 -168 -43.5 c 128,-1,46
 -158 -33 -158 -33 -144 -33 c 0,47,48
 -126 -33 -126 -33 -119 -46 c 128,-1,49
 -112 -59 -112 -59 -106.5 -74 c 128,-1,50
 -101 -89 -101 -89 -93 -102 c 128,-1,51
 -85 -115 -85 -115 -64 -115 c 0,52,53
 -26 -115 -26 -115 7 -79.5 c 128,-1,54
 40 -44 40 -44 52 32 c 2,55,-1
 115 424 l 1,56,-1
 45 424 l 1,57,-1
 50 440 l 1,0,-1
EndSplineSet
EndChar
StartChar: Oogonek
Encoding: 490 490 331
Width: 734
Flags: W
LayerCount: 2
Back
Fore
SplineSet
367 706 m 256,0,1
 433 706 433 706 490.5 678 c 128,-1,2
 548 650 548 650 590.5 601.5 c 128,-1,3
 633 553 633 553 657.5 487 c 128,-1,4
 682 421 682 421 682 345 c 0,5,6
 682 273 682 273 660 209.5 c 128,-1,7
 638 146 638 146 599 98 c 128,-1,8
 560 50 560 50 507 20.5 c 128,-1,9
 454 -9 454 -9 392 -15 c 1,10,11
 371 -39 371 -39 356 -71.5 c 128,-1,12
 341 -104 341 -104 341 -132 c 0,13,14
 341 -164 341 -164 357.5 -181 c 128,-1,15
 374 -198 374 -198 403 -198 c 0,16,17
 420 -198 420 -198 435.5 -192.5 c 128,-1,18
 451 -187 451 -187 465 -173 c 1,19,-1
 468 -178 l 1,20,21
 427 -226 427 -226 370 -226 c 0,22,23
 328 -226 328 -226 304 -205 c 128,-1,24
 280 -184 280 -184 280 -149 c 0,25,26
 280 -117 280 -117 304 -82.5 c 128,-1,27
 328 -48 328 -48 373 -15 c 1,28,29
 371 -15 371 -15 370 -15.5 c 128,-1,30
 369 -16 369 -16 367 -16 c 0,31,32
 301 -16 301 -16 243.5 12 c 128,-1,33
 186 40 186 40 143.5 88.5 c 128,-1,34
 101 137 101 137 76.5 203 c 128,-1,35
 52 269 52 269 52 345 c 256,36,37
 52 421 52 421 76.5 487 c 128,-1,38
 101 553 101 553 143.5 601.5 c 128,-1,39
 186 650 186 650 243.5 678 c 128,-1,40
 301 706 301 706 367 706 c 256,0,1
148 345 m 256,41,42
 148 177 148 177 204.5 87 c 128,-1,43
 261 -3 261 -3 367 -3 c 256,44,45
 473 -3 473 -3 529.5 87 c 128,-1,46
 586 177 586 177 586 345 c 256,47,48
 586 513 586 513 529.5 603.5 c 128,-1,49
 473 694 473 694 367 694 c 256,50,51
 261 694 261 694 204.5 603.5 c 128,-1,52
 148 513 148 513 148 345 c 256,41,42
EndSplineSet
EndChar
StartChar: oogonek
Encoding: 491 491 332
Width: 476
Flags: W
LayerCount: 2
Back
Fore
SplineSet
329 -178 m 1,0,1
 288 -226 288 -226 231 -226 c 0,2,3
 189 -226 189 -226 165 -205 c 128,-1,4
 141 -184 141 -184 141 -149 c 0,5,6
 141 -116 141 -116 167.5 -80 c 128,-1,7
 194 -44 194 -44 242 -10 c 1,8,-1
 238 -10 l 2,9,10
 194 -10 194 -10 157.5 6 c 128,-1,11
 121 22 121 22 95 51.5 c 128,-1,12
 69 81 69 81 54.5 121.5 c 128,-1,13
 40 162 40 162 40 212 c 0,14,15
 40 261 40 261 54.5 302 c 128,-1,16
 69 343 69 343 95 372.5 c 128,-1,17
 121 402 121 402 157.5 418 c 128,-1,18
 194 434 194 434 238 434 c 256,19,20
 282 434 282 434 318.5 418 c 128,-1,21
 355 402 355 402 381 372.5 c 128,-1,22
 407 343 407 343 421.5 302 c 128,-1,23
 436 261 436 261 436 212 c 0,24,25
 436 165 436 165 423 126.5 c 128,-1,26
 410 88 410 88 386.5 59 c 128,-1,27
 363 30 363 30 330.5 12.5 c 128,-1,28
 298 -5 298 -5 258 -9 c 1,29,30
 247 -21 247 -21 236.5 -36 c 128,-1,31
 226 -51 226 -51 218.5 -67.5 c 128,-1,32
 211 -84 211 -84 206.5 -100.5 c 128,-1,33
 202 -117 202 -117 202 -132 c 0,34,35
 202 -164 202 -164 218.5 -181 c 128,-1,36
 235 -198 235 -198 264 -198 c 0,37,38
 281 -198 281 -198 296.5 -192.5 c 128,-1,39
 312 -187 312 -187 326 -173 c 1,40,-1
 329 -178 l 1,0,1
114 212 m 256,41,42
 114 112 114 112 146.5 56 c 128,-1,43
 179 0 179 0 238 0 c 0,44,45
 296 0 296 0 329 56 c 128,-1,46
 362 112 362 112 362 212 c 256,47,48
 362 312 362 312 329 368 c 128,-1,49
 296 424 296 424 238 424 c 0,50,51
 179 424 179 424 146.5 368 c 128,-1,52
 114 312 114 312 114 212 c 256,41,42
EndSplineSet
EndChar
StartChar: Aringacute
Encoding: 506 506 338
Width: 659
Flags: W
LayerCount: 2
Back
Fore
SplineSet
178 8 m 1,0,-1
 178 0 l 1,1,-1
 -35 0 l 1,2,-1
 -35 8 l 1,3,-1
 21 13 l 2,4,5
 46 15 46 15 56.5 22.5 c 128,-1,6
 67 30 67 30 75 53 c 2,7,-1
 316 697 l 1,8,9
 295 703 295 703 283 719.5 c 128,-1,10
 271 736 271 736 271 758 c 0,11,12
 271 784 271 784 288 802.5 c 128,-1,13
 305 821 305 821 334 821 c 0,14,15
 337 821 337 821 339.5 820.5 c 128,-1,16
 342 820 342 820 345 820 c 2,17,-1
 382 941 l 2,18,19
 389 962 389 962 413 962 c 0,20,21
 427 962 427 962 434 953 c 128,-1,22
 441 944 441 944 441 931 c 0,23,24
 441 921 441 921 433 911 c 128,-1,25
 425 901 425 901 405 876 c 2,26,-1
 357 817 l 1,27,28
 376 810 376 810 386.5 794 c 128,-1,29
 397 778 397 778 397 758 c 0,30,31
 397 733 397 733 382 715.5 c 128,-1,32
 367 698 367 698 342 695 c 1,33,-1
 590 18 l 1,34,-1
 673 8 l 1,35,-1
 673 0 l 1,36,-1
 428 0 l 1,37,-1
 428 8 l 1,38,-1
 510 18 l 1,39,-1
 416 274 l 1,40,-1
 174 274 l 1,41,-1
 91 53 l 2,42,43
 87 42 87 42 87 35 c 0,44,45
 87 24 87 24 93.5 19.5 c 128,-1,46
 100 15 100 15 117 13 c 2,47,-1
 178 8 l 1,0,-1
294 595 m 1,48,-1
 180 290 l 1,49,-1
 410 290 l 1,50,-1
 298 595 l 1,51,-1
 294 595 l 1,48,-1
283 758 m 256,52,53
 283 736 283 736 297 721.5 c 128,-1,54
 311 707 311 707 334 707 c 256,55,56
 357 707 357 707 370.5 721.5 c 128,-1,57
 384 736 384 736 384 758 c 256,58,59
 384 780 384 780 370.5 794 c 128,-1,60
 357 808 357 808 334 808 c 256,61,62
 311 808 311 808 297 794 c 128,-1,63
 283 780 283 780 283 758 c 256,52,53
EndSplineSet
EndChar
StartChar: Oslashacute
Encoding: 510 510 342
Width: 734
Flags: W
LayerCount: 2
Back
Fore
SplineSet
368 706 m 0,0,1
 450 706 450 706 518 664 c 1,2,-1
 562 750 l 1,3,-1
 585 750 l 1,4,-1
 535 653 l 1,5,6
 603 605 603 605 643 525 c 128,-1,7
 683 445 683 445 683 345 c 0,8,9
 683 269 683 269 658.5 203 c 128,-1,10
 634 137 634 137 591.5 88.5 c 128,-1,11
 549 40 549 40 491.5 12 c 128,-1,12
 434 -16 434 -16 368 -16 c 0,13,14
 326 -16 326 -16 288 -5 c 128,-1,15
 250 6 250 6 216 26 c 1,16,-1
 165 -75 l 1,17,-1
 142 -75 l 1,18,-1
 199 38 l 1,19,20
 132 86 132 86 92.5 165.5 c 128,-1,21
 53 245 53 245 53 345 c 0,22,23
 53 421 53 421 77.5 487 c 128,-1,24
 102 553 102 553 144.5 601.5 c 128,-1,25
 187 650 187 650 244.5 678 c 128,-1,26
 302 706 302 706 368 706 c 0,0,1
587 345 m 0,27,28
 587 530 587 530 518 620 c 1,29,-1
 231 55 l 1,30,31
 284 -3 284 -3 368 -3 c 0,32,33
 474 -3 474 -3 530.5 87 c 128,-1,34
 587 177 587 177 587 345 c 0,27,28
149 345 m 0,35,36
 149 161 149 161 217 72 c 1,37,-1
 504 636 l 1,38,39
 451 694 451 694 368 694 c 0,40,41
 262 694 262 694 205.5 603.5 c 128,-1,42
 149 513 149 513 149 345 c 0,35,36
400 940 m 2,43,44
 407 961 407 961 431 961 c 0,45,46
 445 961 445 961 452 952 c 128,-1,47
 459 943 459 943 459 930 c 0,48,49
 459 920 459 920 451 910 c 128,-1,50
 443 900 443 900 423 875 c 2,51,-1
 358 793 l 1,52,-1
 355 794 l 1,53,-1
 400 940 l 2,43,44
EndSplineSet
EndChar
StartChar: oslashacute
Encoding: 511 511 343
Width: 476
Flags: W
LayerCount: 2
Back
Fore
SplineSet
238 434 m 0,0,1
 296 434 296 434 343 404 c 1,2,-1
 391 490 l 1,3,-1
 414 490 l 1,4,-1
 359 392 l 1,5,6
 395 363 395 363 415.5 317 c 128,-1,7
 436 271 436 271 436 212 c 0,8,9
 436 162 436 162 421.5 121.5 c 128,-1,10
 407 81 407 81 381 51.5 c 128,-1,11
 355 22 355 22 318.5 6 c 128,-1,12
 282 -10 282 -10 238 -10 c 0,13,14
 212 -10 212 -10 189 -4.5 c 128,-1,15
 166 1 166 1 146 11 c 1,16,-1
 104 -65 l 1,17,-1
 81 -65 l 1,18,-1
 129 21 l 1,19,20
 87 50 87 50 63.5 98.5 c 128,-1,21
 40 147 40 147 40 212 c 0,22,23
 40 261 40 261 54.5 302 c 128,-1,24
 69 343 69 343 95 372.5 c 128,-1,25
 121 402 121 402 157.5 418 c 128,-1,26
 194 434 194 434 238 434 c 0,0,1
114 212 m 0,27,28
 114 111 114 111 148 54 c 1,29,-1
 325 373 l 1,30,31
 293 424 293 424 238 424 c 0,32,33
 179 424 179 424 146.5 368 c 128,-1,34
 114 312 114 312 114 212 c 0,27,28
362 212 m 0,35,36
 362 297 362 297 337 352 c 1,37,-1
 160 36 l 1,38,39
 191 0 191 0 238 0 c 0,40,41
 296 0 296 0 329 56 c 128,-1,42
 362 112 362 112 362 212 c 0,35,36
275 670 m 2,43,44
 282 691 282 691 306 691 c 0,45,46
 320 691 320 691 327 682 c 128,-1,47
 334 673 334 673 334 660 c 0,48,49
 334 650 334 650 326 640 c 128,-1,50
 318 630 318 630 298 605 c 2,51,-1
 233 523 l 1,52,-1
 230 524 l 1,53,-1
 275 670 l 2,43,44
EndSplineSet
EndChar
StartChar: dotlessj
Encoding: 567 567 372
Width: 218
Flags: W
LayerCount: 2
Back
Fore
SplineSet
81 366 m 1,0,-1
 22 388 l 1,1,-1
 22 395 l 1,2,-1
 138 434 l 1,3,-1
 146 434 l 1,4,-1
 146 40 l 2,5,6
 146 -9 146 -9 145 -41 c 128,-1,7
 144 -73 144 -73 141.5 -95 c 128,-1,8
 139 -117 139 -117 134.5 -131 c 128,-1,9
 130 -145 130 -145 123 -158 c 0,10,11
 100 -200 100 -200 64.5 -223.5 c 128,-1,12
 29 -247 29 -247 -13 -247 c 0,13,14
 -48 -247 -48 -247 -69 -231 c 128,-1,15
 -90 -215 -90 -215 -90 -189 c 0,16,17
 -90 -171 -90 -171 -79.5 -160 c 128,-1,18
 -69 -149 -69 -149 -52 -149 c 0,19,20
 -23 -149 -23 -149 -13 -188 c 0,21,22
 -8 -211 -8 -211 0 -219.5 c 128,-1,23
 8 -228 8 -228 24 -228 c 0,24,25
 53 -228 53 -228 67 -197.5 c 128,-1,26
 81 -167 81 -167 81 -102 c 2,27,-1
 81 366 l 1,0,-1
EndSplineSet
EndChar
StartChar: schwa
Encoding: 601 601 373
Width: 424
Flags: W
LayerCount: 2
Back
Fore
SplineSet
43 157 m 1,0,-1
 313 157 l 1,1,2
 314 167 314 167 314.5 177 c 128,-1,3
 315 187 315 187 315 198 c 0,4,5
 315 292 315 292 278 338 c 128,-1,6
 241 384 241 384 175 384 c 0,7,8
 142 384 142 384 110.5 369 c 128,-1,9
 79 354 79 354 54 322 c 2,10,-1
 45 310 l 1,11,-1
 41 312 l 1,12,-1
 45 323 l 2,13,14
 65 377 65 377 104.5 405.5 c 128,-1,15
 144 434 144 434 199 434 c 0,16,17
 240 434 240 434 274 418 c 128,-1,18
 308 402 308 402 332.5 372.5 c 128,-1,19
 357 343 357 343 370.5 302.5 c 128,-1,20
 384 262 384 262 384 213 c 0,21,22
 384 163 384 163 369.5 122 c 128,-1,23
 355 81 355 81 328.5 52 c 128,-1,24
 302 23 302 23 265 6.5 c 128,-1,25
 228 -10 228 -10 183 -10 c 0,26,27
 113 -10 113 -10 76 31 c 128,-1,28
 39 72 39 72 37 152 c 1,29,-1
 43 157 l 1,0,-1
194 1 m 0,30,31
 242 1 242 1 272 40 c 128,-1,32
 302 79 302 79 311 145 c 1,33,34
 302 145 302 145 274.5 144 c 128,-1,35
 247 143 247 143 216 142 c 128,-1,36
 185 141 185 141 156.5 140 c 128,-1,37
 128 139 128 139 118 139 c 1,38,39
 116 133 116 133 115.5 121.5 c 128,-1,40
 115 110 115 110 115 99 c 0,41,42
 115 42 115 42 137 21.5 c 128,-1,43
 159 1 159 1 194 1 c 0,30,31
EndSplineSet
EndChar
StartChar: apostrophe
Encoding: 700 700 374
Width: 144
Flags: W
LayerCount: 2
Back
Fore
SplineSet
47 651 m 2,0,1
 46 656 46 656 45.5 659.5 c 128,-1,2
 45 663 45 663 45 666 c 0,3,4
 45 682 45 682 52.5 689 c 128,-1,5
 60 696 60 696 72 696 c 256,6,7
 84 696 84 696 91.5 689 c 128,-1,8
 99 682 99 682 99 666 c 0,9,10
 99 663 99 663 98.5 659.5 c 128,-1,11
 98 656 98 656 97 651 c 2,12,-1
 74 530 l 1,13,-1
 70 530 l 1,14,-1
 47 651 l 2,0,1
EndSplineSet
EndChar
StartChar: circumflex
Encoding: 710 710 375
Width: 282
Flags: W
LayerCount: 2
Back
Fore
SplineSet
237 524 m 1,0,-1
 234 523 l 1,1,-1
 141 629 l 1,2,-1
 48 523 l 1,3,-1
 45 524 l 1,4,-1
 110 670 l 2,5,6
 119 691 119 691 141 691 c 0,7,8
 154 691 154 691 160.5 685 c 128,-1,9
 167 679 167 679 172 670 c 2,10,-1
 237 524 l 1,0,-1
EndSplineSet
EndChar
StartChar: caron
Encoding: 711 711 376
Width: 282
Flags: W
LayerCount: 2
Back
Fore
SplineSet
172 549 m 2,0,1
 167 540 167 540 160.5 534 c 128,-1,2
 154 528 154 528 141 528 c 0,3,4
 119 528 119 528 110 549 c 2,5,-1
 45 695 l 1,6,-1
 48 696 l 1,7,-1
 141 590 l 1,8,-1
 234 696 l 1,9,-1
 237 695 l 1,10,-1
 172 549 l 2,0,1
EndSplineSet
EndChar
StartChar: uni02C9
Encoding: 713 713 377
Width: 290
Flags: W
LayerCount: 2
Back
Fore
SplineSet
45 575 m 1,0,-1
 245 575 l 1,1,-1
 245 553 l 1,2,-1
 45 553 l 1,3,-1
 45 575 l 1,0,-1
EndSplineSet
EndChar
StartChar: breve
Encoding: 728 728 378
Width: 306
Flags: W
LayerCount: 2
Back
Fore
SplineSet
153 530 m 0,0,1
 113 530 113 530 85.5 554.5 c 128,-1,2
 58 579 58 579 45 625 c 1,3,-1
 50 625 l 1,4,5
 79 578 79 578 153 578 c 0,6,7
 226 578 226 578 256 625 c 1,8,-1
 261 625 l 1,9,10
 248 579 248 579 220 554.5 c 128,-1,11
 192 530 192 530 153 530 c 0,0,1
EndSplineSet
EndChar
StartChar: dotaccent
Encoding: 729 729 379
Width: 186
Flags: W
LayerCount: 2
Back
Fore
SplineSet
45 578 m 256,0,1
 45 598 45 598 58 612 c 128,-1,2
 71 626 71 626 93 626 c 256,3,4
 115 626 115 626 128 612 c 128,-1,5
 141 598 141 598 141 578 c 256,6,7
 141 558 141 558 128 544 c 128,-1,8
 115 530 115 530 93 530 c 256,9,10
 71 530 71 530 58 544 c 128,-1,11
 45 558 45 558 45 578 c 256,0,1
EndSplineSet
EndChar
StartChar: ring
Encoding: 730 730 380
Width: 216
Flags: W
LayerCount: 2
Back
Fore
SplineSet
45 593 m 256,0,1
 45 619 45 619 62 637.5 c 128,-1,2
 79 656 79 656 108 656 c 256,3,4
 137 656 137 656 154 637.5 c 128,-1,5
 171 619 171 619 171 593 c 256,6,7
 171 567 171 567 154 548.5 c 128,-1,8
 137 530 137 530 108 530 c 256,9,10
 79 530 79 530 62 548.5 c 128,-1,11
 45 567 45 567 45 593 c 256,0,1
57 593 m 256,12,13
 57 571 57 571 71 556.5 c 128,-1,14
 85 542 85 542 108 542 c 256,15,16
 131 542 131 542 144.5 556.5 c 128,-1,17
 158 571 158 571 158 593 c 256,18,19
 158 615 158 615 144.5 629 c 128,-1,20
 131 643 131 643 108 643 c 256,21,22
 85 643 85 643 71 629 c 128,-1,23
 57 615 57 615 57 593 c 256,12,13
EndSplineSet
EndChar
StartChar: ogonek
Encoding: 731 731 381
Width: 278
Flags: W
LayerCount: 2
Back
Fore
SplineSet
233 -178 m 1,0,1
 192 -226 192 -226 135 -226 c 0,2,3
 93 -226 93 -226 69 -205 c 128,-1,4
 45 -184 45 -184 45 -149 c 256,5,6
 45 -114 45 -114 75 -75.5 c 128,-1,7
 105 -37 105 -37 159 -1 c 1,8,-1
 171 -1 l 1,9,10
 159 -12 159 -12 147 -28 c 128,-1,11
 135 -44 135 -44 126 -62 c 128,-1,12
 117 -80 117 -80 111.5 -98 c 128,-1,13
 106 -116 106 -116 106 -132 c 0,14,15
 106 -164 106 -164 122.5 -181 c 128,-1,16
 139 -198 139 -198 168 -198 c 0,17,18
 185 -198 185 -198 200.5 -192.5 c 128,-1,19
 216 -187 216 -187 230 -173 c 1,20,-1
 233 -178 l 1,0,1
EndSplineSet
EndChar
StartChar: tilde
Encoding: 732 732 382
Width: 336
Flags: W
LayerCount: 2
Back
Fore
SplineSet
45 531 m 1,0,1
 45 570 45 570 64 593.5 c 128,-1,2
 83 617 83 617 115 617 c 0,3,4
 129 617 129 617 145.5 612 c 128,-1,5
 162 607 162 607 179 600.5 c 128,-1,6
 196 594 196 594 213 589 c 128,-1,7
 230 584 230 584 244 584 c 0,8,9
 278 584 278 584 286 620 c 1,10,-1
 291 620 l 1,11,12
 291 578 291 578 272 554 c 128,-1,13
 253 530 253 530 221 530 c 0,14,15
 206 530 206 530 189.5 535.5 c 128,-1,16
 173 541 173 541 156 548 c 128,-1,17
 139 555 139 555 122.5 560.5 c 128,-1,18
 106 566 106 566 91 566 c 0,19,20
 54 566 54 566 49 531 c 1,21,-1
 45 531 l 1,0,1
EndSplineSet
EndChar
StartChar: hungarumlaut
Encoding: 733 733 383
Width: 299
Flags: W
LayerCount: 2
Back
Fore
SplineSet
90 670 m 2,0,1
 97 691 97 691 121 691 c 0,2,3
 135 691 135 691 142 682 c 128,-1,4
 149 673 149 673 149 660 c 0,5,6
 149 650 149 650 141 640 c 128,-1,7
 133 630 133 630 113 605 c 2,8,-1
 48 523 l 1,9,-1
 45 524 l 1,10,-1
 90 670 l 2,0,1
195 670 m 2,11,12
 202 691 202 691 226 691 c 0,13,14
 240 691 240 691 247 682 c 128,-1,15
 254 673 254 673 254 660 c 0,16,17
 254 650 254 650 246 640 c 128,-1,18
 238 630 238 630 218 605 c 2,19,-1
 153 523 l 1,20,-1
 150 524 l 1,21,-1
 195 670 l 2,11,12
EndSplineSet
EndChar
StartChar: uni030F
Encoding: 783 783 384
Width: 299
Flags: W
LayerCount: 2
Back
Fore
SplineSet
254 523 m 1,0,-1
 251 522 l 1,1,-1
 186 604 l 2,2,3
 166 629 166 629 158 639 c 128,-1,4
 150 649 150 649 150 659 c 0,5,6
 150 672 150 672 157 681 c 128,-1,7
 164 690 164 690 178 690 c 0,8,9
 202 690 202 690 209 669 c 2,10,-1
 254 523 l 1,0,-1
149 523 m 1,11,-1
 146 522 l 1,12,-1
 81 604 l 2,13,14
 61 629 61 629 53 639 c 128,-1,15
 45 649 45 649 45 659 c 0,16,17
 45 672 45 672 52 681 c 128,-1,18
 59 690 59 690 73 690 c 0,19,20
 97 690 97 690 104 669 c 2,21,-1
 149 523 l 1,11,-1
EndSplineSet
EndChar
StartChar: uni0311
Encoding: 785 785 385
Width: 306
Flags: W
LayerCount: 2
Back
Fore
SplineSet
153 625 m 0,0,1
 192 625 192 625 220 600.5 c 128,-1,2
 248 576 248 576 261 530 c 1,3,-1
 256 530 l 1,4,5
 226 577 226 577 153 577 c 0,6,7
 79 577 79 577 50 530 c 1,8,-1
 45 530 l 1,9,10
 58 576 58 576 85.5 600.5 c 128,-1,11
 113 625 113 625 153 625 c 0,0,1
EndSplineSet
EndChar
StartChar: uni0394
Encoding: 916 916 386
Width: 624
Flags: W
LayerCount: 2
Back
Fore
SplineSet
3 0 m 1,0,-1
 3 24 l 1,1,-1
 287 694 l 1,2,-1
 329 706 l 1,3,-1
 621 24 l 1,4,-1
 621 0 l 1,5,-1
 3 0 l 1,0,-1
283 590 m 1,6,-1
 60 47 l 1,7,-1
 510 47 l 1,8,-1
 283 590 l 1,6,-1
EndSplineSet
EndChar
StartChar: uni03A9
Encoding: 937 937 387
Width: 827
Flags: W
LayerCount: 2
Back
Fore
SplineSet
758 0 m 1,0,-1
 496 0 l 1,1,-1
 489 21 l 1,2,3
 507 49 507 49 532.5 86.5 c 128,-1,4
 558 124 558 124 581.5 170 c 128,-1,5
 605 216 605 216 621.5 268.5 c 128,-1,6
 638 321 638 321 638 379 c 0,7,8
 638 461 638 461 619 518 c 128,-1,9
 600 575 600 575 568.5 609.5 c 128,-1,10
 537 644 537 644 497 659.5 c 128,-1,11
 457 675 457 675 415 675 c 0,12,13
 369 675 369 675 329 658.5 c 128,-1,14
 289 642 289 642 259 606 c 128,-1,15
 229 570 229 570 211.5 512.5 c 128,-1,16
 194 455 194 455 194 373 c 0,17,18
 194 318 194 318 208 268.5 c 128,-1,19
 222 219 222 219 243.5 175.5 c 128,-1,20
 265 132 265 132 290.5 93.5 c 128,-1,21
 316 55 316 55 340 21 c 1,22,-1
 332 0 l 1,23,-1
 72 0 l 1,24,-1
 46 146 l 1,25,-1
 71 147 l 1,26,27
 80 122 80 122 88 106.5 c 128,-1,28
 96 91 96 91 105.5 82 c 128,-1,29
 115 73 115 73 127 70 c 128,-1,30
 139 67 139 67 156 67 c 2,31,-1
 275 67 l 1,32,33
 248 88 248 88 216 116.5 c 128,-1,34
 184 145 184 145 156.5 183.5 c 128,-1,35
 129 222 129 222 110 270.5 c 128,-1,36
 91 319 91 319 91 381 c 0,37,38
 91 455 91 455 116 515 c 128,-1,39
 141 575 141 575 185 617.5 c 128,-1,40
 229 660 229 660 288.5 683 c 128,-1,41
 348 706 348 706 417 706 c 0,42,43
 487 706 487 706 546.5 684.5 c 128,-1,44
 606 663 606 663 648.5 622.5 c 128,-1,45
 691 582 691 582 715 523 c 128,-1,46
 739 464 739 464 739 390 c 0,47,48
 739 337 739 337 721.5 290.5 c 128,-1,49
 704 244 704 244 676.5 204 c 128,-1,50
 649 164 649 164 616 129.5 c 128,-1,51
 583 95 583 95 552 67 c 1,52,-1
 676 67 l 2,53,54
 694 67 694 67 705.5 69.5 c 128,-1,55
 717 72 717 72 726 80.5 c 128,-1,56
 735 89 735 89 742.5 104.5 c 128,-1,57
 750 120 750 120 759 147 c 1,58,-1
 786 146 l 1,59,-1
 758 0 l 1,0,-1
EndSplineSet
EndChar
StartChar: uni03BC
Encoding: 956 956 388
Width: 446
Flags: W
LayerCount: 2
Back
Fore
SplineSet
89 49 m 1,0,1
 89 -7 89 -7 94 -45 c 128,-1,2
 99 -83 99 -83 105 -108.5 c 128,-1,3
 111 -134 111 -134 116 -150.5 c 128,-1,4
 121 -167 121 -167 121 -180 c 0,5,6
 121 -197 121 -197 113 -206.5 c 128,-1,7
 105 -216 105 -216 91 -216 c 0,8,9
 76 -216 76 -216 69.5 -203.5 c 128,-1,10
 63 -191 63 -191 63 -162 c 0,11,12
 63 -144 63 -144 65.5 -109 c 128,-1,13
 68 -74 68 -74 70.5 -30.5 c 128,-1,14
 73 13 73 13 75.5 61 c 128,-1,15
 78 109 78 109 78 153 c 2,16,-1
 78 408 l 1,17,-1
 18 416 l 1,18,-1
 18 424 l 1,19,-1
 143 424 l 1,20,-1
 143 153 l 2,21,22
 143 112 143 112 145 93.5 c 128,-1,23
 147 75 147 75 153 63 c 0,24,25
 170 28 170 28 214 28 c 0,26,27
 266 28 266 28 304 77 c 1,28,-1
 304 408 l 1,29,-1
 244 416 l 1,30,-1
 244 424 l 1,31,-1
 369 424 l 1,32,-1
 369 62 l 1,33,-1
 424 50 l 1,34,-1
 424 45 l 1,35,-1
 315 -5 l 1,36,-1
 309 -5 l 1,37,-1
 309 63 l 1,38,-1
 306 64 l 1,39,40
 247 -10 247 -10 180 -10 c 0,41,42
 117 -10 117 -10 94 51 c 1,43,-1
 89 49 l 1,0,1
EndSplineSet
EndChar
StartChar: pi
Encoding: 960 960 389
Width: 604
Flags: W
LayerCount: 2
Back
Fore
SplineSet
582 476 m 1,0,1
 576 447 576 447 565 422.5 c 128,-1,2
 554 398 554 398 543 385 c 1,3,4
 530 382 530 382 508 381.5 c 128,-1,5
 486 381 486 381 463 381 c 1,6,-1
 463 181 l 2,7,8
 463 142 463 142 464.5 116 c 128,-1,9
 466 90 466 90 471 74.5 c 128,-1,10
 476 59 476 59 485.5 52.5 c 128,-1,11
 495 46 495 46 512 46 c 256,12,13
 529 46 529 46 541 54.5 c 128,-1,14
 553 63 553 63 567 78 c 1,15,-1
 580 56 l 1,16,17
 560 21 560 21 529.5 4.5 c 128,-1,18
 499 -12 499 -12 470 -12 c 0,19,20
 449 -12 449 -12 432 -6 c 128,-1,21
 415 0 415 0 402.5 14.5 c 128,-1,22
 390 29 390 29 383 54 c 128,-1,23
 376 79 376 79 376 117 c 0,24,25
 376 186 376 186 379.5 255 c 128,-1,26
 383 324 383 324 387 383 c 1,27,28
 336 384 336 384 288.5 384.5 c 128,-1,29
 241 385 241 385 209 385 c 1,30,-1
 209 366 l 2,31,32
 209 279 209 279 200 214.5 c 128,-1,33
 191 150 191 150 179 105.5 c 128,-1,34
 167 61 167 61 155.5 36 c 128,-1,35
 144 11 144 11 138 5 c 0,36,37
 124 0 124 0 106.5 -5.5 c 128,-1,38
 89 -11 89 -11 77 -12 c 1,39,-1
 70 5 l 1,40,41
 100 39 100 39 119 88.5 c 128,-1,42
 138 138 138 138 149.5 191.5 c 128,-1,43
 161 245 161 245 165.5 296.5 c 128,-1,44
 170 348 170 348 170 387 c 1,45,46
 143 387 143 387 123 383 c 128,-1,47
 103 379 103 379 87.5 372.5 c 128,-1,48
 72 366 72 366 58.5 356.5 c 128,-1,49
 45 347 45 347 30 337 c 1,50,-1
 15 359 l 1,51,52
 27 374 27 374 41 390.5 c 128,-1,53
 55 407 55 407 76 421.5 c 128,-1,54
 97 436 97 436 126 445 c 128,-1,55
 155 454 155 454 196 454 c 0,56,57
 226 454 226 454 261 453.5 c 128,-1,58
 296 453 296 453 334.5 452 c 128,-1,59
 373 451 373 451 413 450.5 c 128,-1,60
 453 450 453 450 492 450 c 0,61,62
 516 450 516 450 530 456.5 c 128,-1,63
 544 463 544 463 558 486 c 1,64,-1
 582 476 l 1,0,1
EndSplineSet
EndChar
StartChar: quoteleft
Encoding: 8216 8216 428
Width: 187
Flags: W
LayerCount: 2
Back
Fore
SplineSet
125 709 m 1,0,1
 110 695 110 695 101 672 c 128,-1,2
 92 649 92 649 92 626 c 0,3,4
 92 606 92 606 98 594.5 c 128,-1,5
 104 583 104 583 111 574.5 c 128,-1,6
 118 566 118 566 124 558 c 128,-1,7
 130 550 130 550 130 538 c 0,8,9
 130 523 130 523 121 513.5 c 128,-1,10
 112 504 112 504 98 504 c 0,11,12
 78 504 78 504 67 521 c 128,-1,13
 56 538 56 538 56 569 c 0,14,15
 56 607 56 607 73.5 646 c 128,-1,16
 91 685 91 685 121 714 c 1,17,-1
 125 709 l 1,0,1
EndSplineSet
EndChar
StartChar: quoteright
Encoding: 8217 8217 429
Width: 186
Flags: W
LayerCount: 2
Back
Fore
SplineSet
66 509 m 1,0,1
 81 523 81 523 90 546 c 128,-1,2
 99 569 99 569 99 592 c 0,3,4
 99 611 99 611 93 623 c 128,-1,5
 87 635 87 635 80 643.5 c 128,-1,6
 73 652 73 652 67 660 c 128,-1,7
 61 668 61 668 61 680 c 0,8,9
 61 695 61 695 70 704.5 c 128,-1,10
 79 714 79 714 93 714 c 0,11,12
 113 714 113 714 124 697 c 128,-1,13
 135 680 135 680 135 649 c 0,14,15
 135 611 135 611 117.5 572 c 128,-1,16
 100 533 100 533 70 504 c 1,17,-1
 66 509 l 1,0,1
EndSplineSet
EndChar
StartChar: quotesinglbase
Encoding: 8218 8218 430
Width: 207
Flags: W
LayerCount: 2
Back
Fore
SplineSet
72 -106 m 1,0,1
 87 -92 87 -92 96 -69 c 128,-1,2
 105 -46 105 -46 105 -23 c 0,3,4
 105 -4 105 -4 99 8 c 128,-1,5
 93 20 93 20 86 28.5 c 128,-1,6
 79 37 79 37 73 45 c 128,-1,7
 67 53 67 53 67 65 c 0,8,9
 67 80 67 80 76 89.5 c 128,-1,10
 85 99 85 99 99 99 c 0,11,12
 119 99 119 99 130 82 c 128,-1,13
 141 65 141 65 141 34 c 0,14,15
 141 -4 141 -4 123.5 -43 c 128,-1,16
 106 -82 106 -82 76 -111 c 1,17,-1
 72 -106 l 1,0,1
EndSplineSet
EndChar
StartChar: quotedblleft
Encoding: 8220 8220 431
Width: 297
Flags: W
LayerCount: 2
Back
Fore
SplineSet
125 709 m 1,0,1
 110 695 110 695 101 672 c 128,-1,2
 92 649 92 649 92 626 c 0,3,4
 92 606 92 606 98 594.5 c 128,-1,5
 104 583 104 583 111 574.5 c 128,-1,6
 118 566 118 566 124 558 c 128,-1,7
 130 550 130 550 130 538 c 0,8,9
 130 523 130 523 121 513.5 c 128,-1,10
 112 504 112 504 98 504 c 0,11,12
 78 504 78 504 67 521 c 128,-1,13
 56 538 56 538 56 569 c 0,14,15
 56 607 56 607 73.5 646 c 128,-1,16
 91 685 91 685 121 714 c 1,17,-1
 125 709 l 1,0,1
235 709 m 1,18,19
 220 695 220 695 211 672 c 128,-1,20
 202 649 202 649 202 626 c 0,21,22
 202 606 202 606 208 594.5 c 128,-1,23
 214 583 214 583 221 574.5 c 128,-1,24
 228 566 228 566 234 558 c 128,-1,25
 240 550 240 550 240 538 c 0,26,27
 240 523 240 523 231 513.5 c 128,-1,28
 222 504 222 504 208 504 c 0,29,30
 188 504 188 504 177 521 c 128,-1,31
 166 538 166 538 166 569 c 0,32,33
 166 607 166 607 183.5 646 c 128,-1,34
 201 685 201 685 231 714 c 1,35,-1
 235 709 l 1,18,19
EndSplineSet
EndChar
StartChar: quotedblright
Encoding: 8221 8221 432
Width: 296
Flags: W
LayerCount: 2
Back
Fore
SplineSet
176 509 m 1,0,1
 191 523 191 523 200 546 c 128,-1,2
 209 569 209 569 209 592 c 0,3,4
 209 611 209 611 203 623 c 128,-1,5
 197 635 197 635 190 643.5 c 128,-1,6
 183 652 183 652 177 660 c 128,-1,7
 171 668 171 668 171 680 c 0,8,9
 171 695 171 695 180 704.5 c 128,-1,10
 189 714 189 714 203 714 c 0,11,12
 223 714 223 714 234 697 c 128,-1,13
 245 680 245 680 245 649 c 0,14,15
 245 611 245 611 227.5 572 c 128,-1,16
 210 533 210 533 180 504 c 1,17,-1
 176 509 l 1,0,1
66 509 m 1,18,19
 81 523 81 523 90 546 c 128,-1,20
 99 569 99 569 99 592 c 0,21,22
 99 611 99 611 93 623 c 128,-1,23
 87 635 87 635 80 643.5 c 128,-1,24
 73 652 73 652 67 660 c 128,-1,25
 61 668 61 668 61 680 c 0,26,27
 61 695 61 695 70 704.5 c 128,-1,28
 79 714 79 714 93 714 c 0,29,30
 113 714 113 714 124 697 c 128,-1,31
 135 680 135 680 135 649 c 0,32,33
 135 611 135 611 117.5 572 c 128,-1,34
 100 533 100 533 70 504 c 1,35,-1
 66 509 l 1,18,19
EndSplineSet
EndChar
StartChar: quotedblbase
Encoding: 8222 8222 433
Width: 317
Flags: W
LayerCount: 2
Back
Fore
SplineSet
182 -106 m 1,0,1
 197 -92 197 -92 206 -69 c 128,-1,2
 215 -46 215 -46 215 -23 c 0,3,4
 215 -4 215 -4 209 8 c 128,-1,5
 203 20 203 20 196 28.5 c 128,-1,6
 189 37 189 37 183 45 c 128,-1,7
 177 53 177 53 177 65 c 0,8,9
 177 80 177 80 186 89.5 c 128,-1,10
 195 99 195 99 209 99 c 0,11,12
 229 99 229 99 240 82 c 128,-1,13
 251 65 251 65 251 34 c 0,14,15
 251 -4 251 -4 233.5 -43 c 128,-1,16
 216 -82 216 -82 186 -111 c 1,17,-1
 182 -106 l 1,0,1
72 -106 m 1,18,19
 87 -92 87 -92 96 -69 c 128,-1,20
 105 -46 105 -46 105 -23 c 0,21,22
 105 -4 105 -4 99 8 c 128,-1,23
 93 20 93 20 86 28.5 c 128,-1,24
 79 37 79 37 73 45 c 128,-1,25
 67 53 67 53 67 65 c 0,26,27
 67 80 67 80 76 89.5 c 128,-1,28
 85 99 85 99 99 99 c 0,29,30
 119 99 119 99 130 82 c 128,-1,31
 141 65 141 65 141 34 c 0,32,33
 141 -4 141 -4 123.5 -43 c 128,-1,34
 106 -82 106 -82 76 -111 c 1,35,-1
 72 -106 l 1,18,19
EndSplineSet
EndChar
StartChar: dagger
Encoding: 8224 8224 434
Width: 393
Flags: W
LayerCount: 2
Back
Fore
SplineSet
191 -136 m 1,0,1
 188 -51 188 -51 185.5 16 c 128,-1,2
 183 83 183 83 179.5 136 c 128,-1,3
 176 189 176 189 171 232.5 c 128,-1,4
 166 276 166 276 160 315 c 1,5,6
 170 354 170 354 176.5 405 c 128,-1,7
 183 456 183 456 188 525 c 1,8,9
 162 525 162 525 145.5 521.5 c 128,-1,10
 129 518 129 518 117 514 c 128,-1,11
 105 510 105 510 95 506.5 c 128,-1,12
 85 503 85 503 73 503 c 0,13,14
 58 503 58 503 49 511.5 c 128,-1,15
 40 520 40 520 40 534 c 0,16,17
 40 547 40 547 49 555 c 128,-1,18
 58 563 58 563 73 563 c 0,19,20
 85 563 85 563 95 559 c 128,-1,21
 105 555 105 555 117 550.5 c 128,-1,22
 129 546 129 546 145.5 542 c 128,-1,23
 162 538 162 538 188 538 c 1,24,-1
 188 548 l 2,25,26
 188 572 188 572 183.5 589 c 128,-1,27
 179 606 179 606 174 619 c 128,-1,28
 169 632 169 632 164.5 643 c 128,-1,29
 160 654 160 654 160 666 c 0,30,31
 160 706 160 706 195 706 c 0,32,33
 232 706 232 706 232 666 c 0,34,35
 232 655 232 655 228 644 c 128,-1,36
 224 633 224 633 218.5 619.5 c 128,-1,37
 213 606 213 606 209 588.5 c 128,-1,38
 205 571 205 571 205 548 c 2,39,-1
 205 538 l 1,40,41
 230 538 230 538 247 542 c 128,-1,42
 264 546 264 546 276 550.5 c 128,-1,43
 288 555 288 555 298 559 c 128,-1,44
 308 563 308 563 320 563 c 0,45,46
 335 563 335 563 344 555 c 128,-1,47
 353 547 353 547 353 534 c 0,48,49
 353 520 353 520 344 511.5 c 128,-1,50
 335 503 335 503 320 503 c 0,51,52
 308 503 308 503 298 506.5 c 128,-1,53
 288 510 288 510 276 514 c 128,-1,54
 264 518 264 518 247 521.5 c 128,-1,55
 230 525 230 525 205 525 c 1,56,57
 209 459 209 459 215 408 c 128,-1,58
 221 357 221 357 232 315 c 1,59,60
 226 276 226 276 221 232 c 128,-1,61
 216 188 216 188 212 134.5 c 128,-1,62
 208 81 208 81 205.5 15 c 128,-1,63
 203 -51 203 -51 201 -136 c 1,64,-1
 191 -136 l 1,0,1
EndSplineSet
EndChar
StartChar: daggerdbl
Encoding: 8225 8225 435
Width: 417
Flags: W
LayerCount: 2
Back
Fore
SplineSet
172 285 m 1,0,1
 180 325 180 325 187 381.5 c 128,-1,2
 194 438 194 438 200 525 c 1,3,4
 175 525 175 525 158 521.5 c 128,-1,5
 141 518 141 518 129 514 c 128,-1,6
 117 510 117 510 107.5 506.5 c 128,-1,7
 98 503 98 503 87 503 c 0,8,9
 52 503 52 503 52 534 c 0,10,11
 52 563 52 563 86 563 c 0,12,13
 98 563 98 563 107.5 559 c 128,-1,14
 117 555 117 555 129 550.5 c 128,-1,15
 141 546 141 546 157.5 542 c 128,-1,16
 174 538 174 538 200 538 c 1,17,-1
 200 548 l 2,18,19
 200 572 200 572 195.5 589 c 128,-1,20
 191 606 191 606 186 619 c 128,-1,21
 181 632 181 632 176.5 643 c 128,-1,22
 172 654 172 654 172 667 c 0,23,24
 172 685 172 685 181.5 695.5 c 128,-1,25
 191 706 191 706 207 706 c 0,26,27
 224 706 224 706 234 695.5 c 128,-1,28
 244 685 244 685 244 667 c 0,29,30
 244 655 244 655 240 644 c 128,-1,31
 236 633 236 633 230.5 619.5 c 128,-1,32
 225 606 225 606 221 589 c 128,-1,33
 217 572 217 572 217 548 c 2,34,-1
 217 538 l 1,35,36
 242 538 242 538 259 542 c 128,-1,37
 276 546 276 546 288 550.5 c 128,-1,38
 300 555 300 555 309.5 559 c 128,-1,39
 319 563 319 563 331 563 c 0,40,41
 365 563 365 563 365 534 c 0,42,43
 365 503 365 503 330 503 c 0,44,45
 319 503 319 503 309.5 506.5 c 128,-1,46
 300 510 300 510 288 514 c 128,-1,47
 276 518 276 518 259 521.5 c 128,-1,48
 242 525 242 525 217 525 c 1,49,50
 221 447 221 447 227 389.5 c 128,-1,51
 233 332 233 332 244 285 c 1,52,53
 233 237 233 237 227 180 c 128,-1,54
 221 123 221 123 217 45 c 1,55,56
 242 45 242 45 259 48.5 c 128,-1,57
 276 52 276 52 288 56 c 128,-1,58
 300 60 300 60 309.5 63.5 c 128,-1,59
 319 67 319 67 330 67 c 0,60,61
 365 67 365 67 365 36 c 0,62,63
 365 7 365 7 331 7 c 0,64,65
 319 7 319 7 309.5 11 c 128,-1,66
 300 15 300 15 288 19.5 c 128,-1,67
 276 24 276 24 259 28 c 128,-1,68
 242 32 242 32 217 32 c 1,69,-1
 217 22 l 2,70,71
 217 -2 217 -2 221 -19 c 128,-1,72
 225 -36 225 -36 230.5 -49.5 c 128,-1,73
 236 -63 236 -63 240 -74 c 128,-1,74
 244 -85 244 -85 244 -97 c 0,75,76
 244 -115 244 -115 234 -125.5 c 128,-1,77
 224 -136 224 -136 207 -136 c 0,78,79
 191 -136 191 -136 181.5 -125.5 c 128,-1,80
 172 -115 172 -115 172 -97 c 0,81,82
 172 -84 172 -84 176.5 -73 c 128,-1,83
 181 -62 181 -62 186 -49 c 128,-1,84
 191 -36 191 -36 195.5 -19 c 128,-1,85
 200 -2 200 -2 200 22 c 2,86,-1
 200 32 l 1,87,88
 174 32 174 32 157.5 28 c 128,-1,89
 141 24 141 24 129 19.5 c 128,-1,90
 117 15 117 15 107.5 11 c 128,-1,91
 98 7 98 7 86 7 c 0,92,93
 52 7 52 7 52 36 c 0,94,95
 52 67 52 67 87 67 c 0,96,97
 98 67 98 67 107.5 63.5 c 128,-1,98
 117 60 117 60 129 56 c 128,-1,99
 141 52 141 52 158 48.5 c 128,-1,100
 175 45 175 45 200 45 c 1,101,102
 194 132 194 132 187 188.5 c 128,-1,103
 180 245 180 245 172 285 c 1,0,1
EndSplineSet
EndChar
StartChar: bullet
Encoding: 8226 8226 436
Width: 317
Flags: W
LayerCount: 2
Back
Fore
SplineSet
92 363 m 0,0,1
 92 392 92 392 110.5 410.5 c 128,-1,2
 129 429 129 429 159 429 c 256,3,4
 189 429 189 429 207 410.5 c 128,-1,5
 225 392 225 392 225 363 c 0,6,7
 225 335 225 335 207 315.5 c 128,-1,8
 189 296 189 296 159 296 c 256,9,10
 129 296 129 296 110.5 315.5 c 128,-1,11
 92 335 92 335 92 363 c 0,0,1
EndSplineSet
EndChar
